{"glyphs":{"0":{"ha":570,"x_min":46,"x_max":525,"o":"m 285 -14 q 46 263 46 -14 l 46 697 q 285 975 46 975 q 525 697 525 975 l 525 263 q 467 55 525 123 q 285 -14 408 -14 m 240 260 q 248 183 240 206 q 285 160 256 160 q 322 182 312 160 q 332 260 332 203 l 332 701 q 321 777 332 755 q 285 799 311 799 q 250 779 259 799 q 240 701 240 758 l 240 260 z "},"1":{"ha":416,"x_min":33,"x_max":361,"o":"m 161 0 l 161 732 l 33 627 l 33 853 l 161 959 l 361 959 l 361 0 l 161 0 z "},"2":{"ha":553,"x_min":42,"x_max":514,"o":"m 42 0 l 42 172 l 277 537 q 304 587 294 567 q 318 629 313 608 q 323 681 323 650 l 323 739 q 279 799 323 799 q 236 730 236 799 l 236 663 l 49 663 l 49 754 q 113 913 49 854 q 283 972 176 972 q 450 912 388 972 q 513 746 513 852 l 513 673 q 495 563 513 609 q 442 457 477 517 l 256 176 l 514 176 l 514 0 l 42 0 z "},"3":{"ha":551,"x_min":39,"x_max":507,"o":"m 271 -14 q 100 47 160 -14 q 39 214 39 107 l 39 288 l 227 288 l 227 222 q 237 177 227 191 q 270 160 248 163 q 304 177 297 160 q 312 232 312 194 l 312 328 q 302 389 312 373 q 259 404 292 404 l 224 404 l 224 579 l 262 579 q 304 595 294 579 q 313 646 313 610 l 313 727 q 304 781 313 764 q 270 798 296 798 q 227 738 227 798 l 227 678 l 39 678 l 39 750 q 100 911 39 850 q 273 972 161 972 q 446 911 384 972 q 507 736 507 849 l 507 677 q 487 565 507 606 q 412 499 467 524 q 489 435 472 476 q 506 316 506 395 l 506 220 q 443 49 506 111 q 271 -14 380 -14 z "},"4":{"ha":598,"x_min":34,"x_max":566,"o":"m 320 0 l 320 149 l 34 149 l 34 323 l 220 959 l 414 959 l 229 323 l 320 323 l 320 522 l 514 522 l 514 323 l 566 323 l 566 149 l 514 149 l 514 0 l 320 0 z "},"5":{"ha":567,"x_min":46,"x_max":525,"o":"m 285 -14 q 108 47 170 -14 q 46 225 46 109 l 46 277 l 239 277 l 239 233 q 249 174 239 190 q 283 159 259 159 q 317 174 307 159 q 327 231 327 189 l 327 397 q 282 460 327 460 q 254 450 263 460 q 236 418 244 441 l 57 418 l 57 959 l 525 959 l 525 783 l 233 783 l 233 595 q 339 628 274 628 q 522 406 522 628 l 522 225 q 461 46 522 106 q 285 -14 400 -14 z "},"6":{"ha":557,"x_min":42,"x_max":517,"o":"m 279 -14 q 103 46 164 -14 q 42 225 42 106 l 42 369 q 53 482 42 437 q 90 586 64 528 l 259 959 l 460 959 l 298 595 q 321 600 311 600 q 345 601 331 601 q 472 544 427 601 q 517 391 517 487 l 517 218 q 454 46 517 106 q 279 -14 392 -14 m 236 217 q 279 160 236 164 q 311 174 298 160 q 323 218 323 189 l 323 376 q 279 433 323 429 q 246 419 256 433 q 236 384 236 406 l 236 217 z "},"7":{"ha":538,"x_min":28,"x_max":511,"o":"m 90 0 l 316 783 l 28 783 l 28 959 l 511 959 l 511 783 l 285 0 l 90 0 z "},"8":{"ha":571,"x_min":45,"x_max":529,"o":"m 286 -14 q 109 48 171 -14 q 46 233 46 110 l 46 330 q 123 502 46 449 q 64 569 83 525 q 45 656 45 613 l 45 747 q 111 912 45 852 q 286 972 176 972 q 464 912 399 972 q 529 747 529 852 l 529 656 q 507 569 529 613 q 450 502 486 525 q 526 330 526 450 l 526 233 q 463 47 526 109 q 286 -14 400 -14 m 286 159 q 321 175 315 157 q 328 231 328 193 l 328 346 q 286 407 328 407 q 252 390 258 407 q 245 346 245 373 l 245 231 q 253 176 245 193 q 286 159 260 159 m 286 578 q 322 595 315 578 q 330 646 330 613 l 330 746 q 286 799 330 799 q 243 746 243 799 l 243 646 q 251 594 243 610 q 286 578 259 578 z "},"9":{"ha":557,"x_min":42,"x_max":517,"o":"m 99 0 l 259 362 q 214 355 244 355 q 89 411 136 355 q 42 568 42 467 l 42 741 q 102 910 42 848 q 281 972 161 972 q 458 911 399 972 q 517 734 517 850 l 517 589 q 506 476 517 522 q 471 373 495 430 l 300 0 l 99 0 m 236 582 q 281 528 236 528 q 310 538 297 528 q 323 575 323 549 l 323 742 q 281 798 323 798 q 236 741 236 798 l 236 582 z "},"\u0000":{"ha":0,"x_min":0,"x_max":0,"o":""},"\r":{"ha":243,"x_min":0,"x_max":0,"o":""}," ":{"ha":243,"x_min":0,"x_max":0,"o":""},"!":{"ha":289,"x_min":49,"x_max":243,"o":"m 87 316 l 49 959 l 243 959 l 203 316 l 87 316 m 61 0 l 61 190 l 228 190 l 228 0 l 61 0 z "},"\"":{"ha":519,"x_min":35,"x_max":486,"o":"m 308 526 l 308 959 l 486 959 l 486 526 l 308 526 m 35 526 l 35 959 l 212 959 l 212 526 l 35 526 z "},"#":{"ha":642,"x_min":16,"x_max":625,"o":"m 69 0 l 99 292 l 16 292 l 16 415 l 113 415 l 127 563 l 45 563 l 45 686 l 140 686 l 168 959 l 305 959 l 281 686 l 391 686 l 416 959 l 557 959 l 528 686 l 625 686 l 625 563 l 517 563 l 502 415 l 598 415 l 598 292 l 487 292 l 458 0 l 321 0 l 349 292 l 239 292 l 212 0 l 69 0 m 251 415 l 361 415 l 377 563 l 267 563 l 251 415 z "},"$":{"ha":620,"x_min":49,"x_max":568,"o":"m 237 -50 l 237 23 q 100 106 148 41 q 49 278 52 171 l 224 278 q 309 167 228 167 q 370 191 353 167 q 388 269 388 216 q 365 339 388 312 q 290 389 342 366 q 148 469 198 431 q 79 553 98 507 q 60 663 60 600 q 106 814 60 751 q 237 897 152 876 l 237 1050 l 370 1050 l 370 899 q 557 650 551 865 l 388 650 q 372 728 388 701 q 313 754 357 754 q 236 670 236 754 q 257 607 236 629 q 321 564 278 585 q 482 467 430 515 q 551 370 534 418 q 567 271 567 321 q 516 102 568 167 q 370 23 464 38 l 370 -50 l 237 -50 z "},"%":{"ha":1090,"x_min":42,"x_max":1050,"o":"m 892 -9 q 734 140 734 -9 l 734 437 q 892 586 734 586 q 1050 437 1050 586 l 1050 140 q 892 -9 1050 -9 m 198 370 q 42 519 42 370 l 42 817 q 198 967 42 967 q 355 817 355 967 l 355 519 q 198 370 355 370 m 300 0 l 666 974 l 789 974 l 423 0 l 300 0 m 854 161 q 861 112 854 123 q 892 100 868 100 q 922 113 913 100 q 932 161 932 125 l 932 415 q 922 467 932 456 q 892 477 913 477 q 863 466 871 477 q 854 415 854 454 l 854 161 m 163 541 q 170 491 163 503 q 198 479 178 479 q 229 492 221 479 q 237 541 237 505 l 237 795 q 229 848 237 838 q 198 859 220 859 q 170 846 178 859 q 163 795 163 834 l 163 541 z "},"&":{"ha":711,"x_min":47,"x_max":667,"o":"m 269 -14 q 109 48 170 -14 q 47 212 47 110 q 81 352 47 282 q 197 509 114 422 q 141 606 163 566 q 109 682 119 647 q 99 754 99 716 q 162 913 99 854 q 324 972 225 972 q 485 913 425 972 q 545 754 545 853 q 514 629 545 694 q 410 484 483 564 l 479 370 l 538 467 l 667 376 l 568 224 l 587 190 q 612 163 597 172 q 646 155 628 155 l 662 155 l 662 0 l 589 0 q 517 17 538 0 q 465 69 495 34 q 378 4 427 22 q 269 -14 328 -14 m 229 232 q 292 152 229 152 q 332 163 312 152 q 381 210 351 175 l 285 363 q 241 295 252 323 q 229 232 229 267 m 319 635 q 363 701 351 673 q 374 764 374 730 q 324 833 374 833 q 283 814 296 833 q 271 764 271 796 q 282 713 271 742 q 319 635 293 684 z "},"'":{"ha":247,"x_min":35,"x_max":212,"o":"m 35 526 l 35 959 l 212 959 l 212 526 l 35 526 z "},"(":{"ha":382,"x_min":47,"x_max":338,"o":"m 180 -117 q 81 154 114 8 q 47 456 47 300 q 81 755 47 609 q 180 1028 114 901 l 338 1028 q 256 746 285 892 q 227 456 227 600 q 256 163 227 309 q 338 -117 285 16 l 180 -117 z "},")":{"ha":382,"x_min":47,"x_max":338,"o":"m 47 -117 q 129 164 100 16 q 157 456 157 312 q 129 747 157 601 q 47 1028 100 892 l 202 1028 q 304 754 270 901 q 338 456 338 608 q 304 154 338 300 q 202 -117 270 8 l 47 -117 z "},"*":{"ha":461,"x_min":47,"x_max":414,"o":"m 180 536 l 180 673 l 92 621 l 49 697 l 141 750 l 47 806 l 92 884 l 180 833 l 180 959 l 281 959 l 281 829 l 368 882 l 412 806 l 319 751 l 414 694 l 368 617 l 281 669 l 281 536 l 180 536 z "},"+":{"ha":582,"x_min":41,"x_max":540,"o":"m 203 132 l 203 294 l 41 294 l 41 471 l 203 471 l 203 632 l 377 632 l 377 471 l 540 471 l 540 294 l 377 294 l 377 132 l 203 132 z "},",":{"ha":247,"x_min":35,"x_max":212,"o":"m 35 -232 l 35 203 l 212 203 l 212 -91 l 35 -232 z "},"-":{"ha":476,"x_min":47,"x_max":430,"o":"m 47 393 l 47 567 l 430 567 l 430 393 l 47 393 z "},".":{"ha":250,"x_min":35,"x_max":216,"o":"m 35 0 l 35 203 l 216 203 l 216 0 l 35 0 z "},"/":{"ha":415,"x_min":47,"x_max":368,"o":"m 47 -14 l 228 974 l 368 974 l 186 -14 l 47 -14 z "},":":{"ha":250,"x_min":35,"x_max":216,"o":"m 35 0 l 35 203 l 216 203 l 216 0 l 35 0 m 35 469 l 35 673 l 216 673 l 216 469 l 35 469 z "},";":{"ha":250,"x_min":35,"x_max":217,"o":"m 39 -232 l 39 203 l 217 203 l 217 -91 l 39 -232 m 35 469 l 35 673 l 216 673 l 216 469 l 35 469 z "},"<":{"ha":582,"x_min":41,"x_max":517,"o":"m 517 125 l 41 317 l 41 450 l 517 642 l 517 490 l 232 384 l 517 278 l 517 125 z "},"=":{"ha":582,"x_min":41,"x_max":517,"o":"m 41 175 l 41 320 l 517 320 l 517 175 l 41 175 m 41 446 l 41 590 l 517 590 l 517 446 l 41 446 z "},">":{"ha":582,"x_min":41,"x_max":517,"o":"m 41 125 l 41 278 l 323 384 l 41 490 l 41 642 l 517 450 l 517 317 l 41 125 z "},"?":{"ha":529,"x_min":22,"x_max":496,"o":"m 174 285 l 174 332 q 176 404 174 374 q 190 464 178 434 q 231 536 202 494 l 277 606 q 305 665 298 637 q 312 734 312 692 q 258 806 312 806 q 212 778 220 806 q 203 684 203 750 l 22 684 q 77 899 22 826 q 259 971 132 971 q 432 910 368 971 q 496 739 496 849 q 486 642 496 684 q 435 548 475 600 l 381 472 q 349 412 355 438 q 343 336 343 387 l 343 285 l 174 285 m 175 0 l 175 190 l 343 190 l 343 0 l 175 0 z "},"@":{"ha":982,"x_min":47,"x_max":935,"o":"m 492 -189 q 253 -132 353 -189 q 100 28 153 -76 q 47 273 47 132 l 47 518 q 102 763 47 659 q 257 923 157 867 q 492 979 357 979 q 726 922 627 979 q 880 762 826 865 q 935 521 935 659 l 935 300 q 885 135 935 193 q 739 77 836 77 q 568 172 617 77 q 520 100 552 122 q 433 77 488 77 q 325 128 359 77 q 290 286 290 179 l 290 511 q 322 653 290 605 q 429 701 354 701 q 491 687 468 701 q 532 637 514 673 l 532 690 l 696 690 l 696 270 q 709 229 696 241 q 741 217 722 217 q 784 278 784 217 l 784 537 q 711 761 784 684 q 492 838 637 838 q 272 758 343 838 q 201 515 201 678 l 201 290 q 273 36 201 118 q 492 -46 345 -46 q 606 -31 556 -46 q 704 18 655 -15 l 785 -92 q 646 -165 719 -142 q 492 -189 574 -189 m 452 281 q 459 235 452 251 q 492 220 467 220 q 536 286 536 220 l 536 503 q 492 560 536 560 q 452 503 452 560 l 452 281 z "},"A":{"ha":684,"x_min":7,"x_max":677,"o":"m 7 0 l 247 959 l 438 959 l 677 0 l 476 0 l 445 167 l 240 167 l 209 0 l 7 0 m 275 342 l 411 342 l 343 703 l 275 342 z "},"B":{"ha":625,"x_min":50,"x_max":581,"o":"m 50 0 l 50 959 l 313 959 q 519 897 457 959 q 581 697 581 836 q 559 580 581 628 q 483 505 538 532 q 562 420 544 473 q 581 282 581 366 q 555 119 581 180 q 471 28 529 57 q 313 0 412 0 l 50 0 m 243 174 l 290 174 q 366 200 346 174 q 387 297 387 227 q 366 389 387 361 q 290 418 345 418 l 243 418 l 243 174 m 243 585 l 293 585 q 366 606 345 585 q 387 685 387 628 q 366 763 387 741 q 293 785 345 785 l 243 785 l 243 585 z "},"C":{"ha":646,"x_min":46,"x_max":598,"o":"m 317 -11 q 119 57 193 -11 q 46 259 46 125 l 46 701 q 124 903 46 834 q 330 972 202 972 q 526 902 453 972 q 598 692 598 831 l 598 656 l 404 656 l 404 690 q 382 771 404 745 q 324 798 359 798 q 258 765 277 798 q 240 669 240 732 l 240 285 q 324 163 240 164 q 384 191 363 163 q 404 271 404 220 l 404 300 l 598 300 l 598 270 q 562 114 598 176 q 462 20 525 52 q 317 -11 399 -11 z "},"D":{"ha":636,"x_min":50,"x_max":590,"o":"m 50 0 l 50 959 l 321 959 q 516 890 442 959 q 590 689 590 822 l 590 270 q 513 70 590 140 q 309 0 435 0 l 50 0 m 243 174 l 316 174 q 376 205 355 174 q 396 296 396 237 l 396 652 q 316 783 396 783 l 243 783 l 243 174 z "},"E":{"ha":509,"x_min":50,"x_max":477,"o":"m 50 0 l 50 959 l 477 959 l 477 783 l 243 783 l 243 575 l 446 575 l 446 400 l 243 400 l 243 174 l 477 174 l 477 0 l 50 0 z "},"F":{"ha":502,"x_min":50,"x_max":477,"o":"m 50 0 l 50 959 l 477 959 l 477 783 l 244 783 l 244 571 l 448 571 l 448 395 l 244 395 l 244 0 l 50 0 z "},"G":{"ha":646,"x_min":46,"x_max":598,"o":"m 317 -11 q 119 57 193 -11 q 46 259 46 125 l 46 701 q 124 903 46 834 q 330 972 202 972 q 526 903 453 972 q 598 701 598 834 l 598 669 l 404 669 l 404 701 q 380 773 404 749 q 324 798 355 798 q 258 765 277 798 q 240 669 240 732 l 240 285 q 324 163 240 165 q 386 194 368 163 q 404 275 404 225 l 404 368 l 323 368 l 323 518 l 598 518 l 598 260 q 519 60 598 132 q 317 -11 441 -11 z "},"H":{"ha":631,"x_min":50,"x_max":581,"o":"m 50 0 l 50 959 l 244 959 l 244 575 l 387 575 l 387 959 l 581 959 l 581 0 l 387 0 l 387 400 l 244 400 l 244 0 l 50 0 z "},"I":{"ha":302,"x_min":54,"x_max":247,"o":"m 54 0 l 54 959 l 247 959 l 247 0 l 54 0 z "},"J":{"ha":370,"x_min":19,"x_max":316,"o":"m 19 0 l 19 176 l 37 176 q 122 262 122 176 l 122 959 l 316 959 l 316 240 q 49 0 316 0 l 19 0 z "},"K":{"ha":639,"x_min":50,"x_max":633,"o":"m 50 0 l 50 959 l 243 959 l 243 534 l 411 959 l 604 959 l 415 563 l 633 0 l 429 0 l 305 339 l 243 203 l 243 0 l 50 0 z "},"L":{"ha":498,"x_min":50,"x_max":477,"o":"m 50 0 l 50 959 l 244 959 l 244 174 l 477 174 l 477 0 l 50 0 z "},"M":{"ha":780,"x_min":50,"x_max":731,"o":"m 50 0 l 50 959 l 244 959 l 389 481 l 537 959 l 731 959 l 731 0 l 537 0 l 537 503 l 439 174 l 339 174 l 244 499 l 244 0 l 50 0 z "},"N":{"ha":644,"x_min":50,"x_max":594,"o":"m 50 0 l 50 959 l 244 959 l 400 492 l 400 959 l 594 959 l 594 0 l 400 0 l 244 437 l 244 0 l 50 0 z "},"O":{"ha":646,"x_min":46,"x_max":598,"o":"m 317 -11 q 119 57 193 -11 q 46 259 46 125 l 46 701 q 125 903 46 833 q 331 972 203 972 q 524 904 450 972 q 598 701 598 836 l 598 259 q 519 60 598 130 q 317 -11 441 -11 m 240 285 q 324 163 240 165 q 382 195 361 163 q 404 285 404 228 l 404 669 q 386 764 404 731 q 324 798 368 798 q 258 765 277 798 q 240 669 240 732 l 240 285 z "},"P":{"ha":600,"x_min":50,"x_max":579,"o":"m 50 0 l 50 959 l 311 959 q 517 883 456 959 q 579 648 579 807 q 517 413 579 490 q 311 336 456 336 l 243 336 l 243 0 l 50 0 m 243 513 l 305 513 q 368 545 351 513 q 385 648 385 578 q 369 751 385 716 q 305 785 353 785 l 243 785 l 243 513 z "},"Q":{"ha":646,"x_min":46,"x_max":598,"o":"m 370 -202 l 305 -12 q 316 -11 308 -11 q 119 58 191 -11 q 46 259 46 127 l 46 701 q 125 903 46 833 q 331 972 203 972 q 524 904 450 972 q 598 701 598 836 l 598 259 q 565 115 598 172 q 473 26 532 57 l 530 -144 l 370 -202 m 240 285 q 324 163 240 163 q 384 195 363 163 q 404 285 404 227 l 404 669 q 386 764 404 731 q 324 798 368 798 q 258 765 277 798 q 240 669 240 732 l 240 285 z "},"R":{"ha":636,"x_min":50,"x_max":612,"o":"m 50 0 l 50 959 l 315 959 q 520 889 461 959 q 579 667 579 819 q 555 510 579 575 q 476 410 532 445 l 612 0 l 410 0 l 301 374 l 244 374 l 244 0 l 50 0 m 244 547 l 312 547 q 370 576 354 547 q 385 667 385 606 q 372 755 385 724 q 312 785 359 785 l 244 785 l 244 547 z "},"S":{"ha":591,"x_min":22,"x_max":559,"o":"m 288 -11 q 92 64 160 -11 q 22 278 24 138 l 205 278 q 292 155 206 155 q 353 182 335 155 q 370 269 370 209 q 347 347 370 316 q 270 403 324 378 l 202 435 q 71 538 111 479 q 31 705 31 598 q 101 899 31 825 q 294 974 171 974 q 479 901 414 974 q 548 690 545 827 l 372 690 q 355 778 370 749 q 296 807 339 807 q 218 715 218 807 q 238 642 218 669 q 304 595 258 616 l 369 567 q 514 453 469 521 q 559 271 559 385 q 487 62 559 136 q 288 -11 415 -11 z "},"T":{"ha":513,"x_min":4,"x_max":509,"o":"m 161 0 l 161 783 l 4 783 l 4 959 l 509 959 l 509 783 l 354 783 l 354 0 l 161 0 z "},"U":{"ha":629,"x_min":50,"x_max":579,"o":"m 316 -11 q 179 23 239 -11 q 85 117 119 57 q 50 254 50 176 l 50 959 l 244 959 l 244 256 q 260 184 244 206 q 316 163 277 163 q 371 186 357 163 q 385 256 385 210 l 385 959 l 579 959 l 579 254 q 545 117 579 176 q 450 23 510 57 q 316 -11 391 -11 z "},"V":{"ha":635,"x_min":7,"x_max":629,"o":"m 217 0 l 7 959 l 220 959 l 316 269 l 414 959 l 629 959 l 419 0 l 217 0 z "},"W":{"ha":945,"x_min":7,"x_max":937,"o":"m 172 0 l 7 959 l 203 959 l 282 271 l 355 959 l 590 959 l 665 271 l 743 959 l 937 959 l 772 0 l 563 0 l 472 515 l 380 0 l 172 0 z "},"X":{"ha":575,"x_min":7,"x_max":570,"o":"m 7 0 l 197 498 l 19 959 l 205 959 l 289 678 l 372 959 l 557 959 l 380 498 l 570 0 l 384 0 l 289 315 l 193 0 l 7 0 z "},"Y":{"ha":586,"x_min":7,"x_max":581,"o":"m 197 0 l 197 370 l 7 959 l 220 959 l 293 616 l 366 959 l 581 959 l 389 365 l 389 0 l 197 0 z "},"Z":{"ha":486,"x_min":26,"x_max":464,"o":"m 26 0 l 26 176 l 269 783 l 39 783 l 39 959 l 460 959 l 460 783 l 217 176 l 464 176 l 464 0 l 26 0 z "},"[":{"ha":406,"x_min":50,"x_max":359,"o":"m 50 -117 l 50 1028 l 359 1028 l 359 852 l 229 852 l 229 60 l 359 60 l 359 -117 l 50 -117 z "},"\\":{"ha":415,"x_min":47,"x_max":368,"o":"m 228 -14 l 47 974 l 186 974 l 368 -14 l 228 -14 z "},"]":{"ha":406,"x_min":47,"x_max":358,"o":"m 47 -117 l 47 60 l 176 60 l 176 852 l 47 852 l 47 1028 l 358 1028 l 358 -117 l 47 -117 z "},"^":{"ha":582,"x_min":39,"x_max":526,"o":"m 39 388 l 213 974 l 353 974 l 526 388 l 388 388 l 282 758 l 178 388 l 39 388 z "},"_":{"ha":594,"x_min":0,"x_max":594,"o":"m 0 -170 l 0 -64 l 594 -64 l 594 -170 l 0 -170 z "},"`":{"ha":694,"x_min":183,"x_max":518,"o":"m 361 826 l 183 1017 l 376 1017 l 518 826 l 361 826 z "},"a":{"ha":563,"x_min":38,"x_max":517,"o":"m 222 -11 q 84 50 130 -11 q 38 220 38 110 q 103 381 38 326 q 288 437 168 437 l 332 437 l 332 524 q 319 570 332 553 q 279 587 305 587 q 241 572 256 587 q 227 528 227 557 l 227 517 l 57 517 l 57 519 q 121 692 57 635 q 285 750 184 750 q 456 684 395 750 q 517 509 517 618 l 517 0 l 346 0 l 346 60 q 288 4 312 19 q 222 -11 264 -11 m 221 228 q 278 148 221 148 q 317 169 301 148 q 332 224 332 190 l 332 311 l 311 311 q 243 292 264 311 q 221 228 221 273 z "},"b":{"ha":567,"x_min":49,"x_max":521,"o":"m 347 -11 q 281 3 311 -11 q 225 47 252 16 l 225 0 l 49 0 l 49 959 l 232 959 l 232 685 q 351 750 267 750 q 475 695 429 750 q 521 515 521 640 l 521 224 q 472 45 521 100 q 347 -11 423 -11 m 229 255 q 283 153 229 153 q 324 176 311 153 q 338 255 338 198 l 338 483 q 323 562 338 540 q 283 585 309 585 q 243 562 258 585 q 229 483 229 538 l 229 255 z "},"c":{"ha":563,"x_min":47,"x_max":517,"o":"m 286 -11 q 108 52 168 -11 q 47 260 47 115 l 47 477 q 109 686 47 623 q 286 750 170 750 q 458 690 399 750 q 517 507 517 629 l 517 476 l 340 476 l 340 505 q 286 585 340 585 q 231 483 231 585 l 231 255 q 285 153 231 153 q 326 173 312 153 q 340 236 340 193 l 340 260 l 517 260 l 517 236 q 458 50 517 111 q 286 -11 399 -11 z "},"d":{"ha":567,"x_min":47,"x_max":521,"o":"m 224 -11 q 96 45 145 -11 q 47 224 47 102 l 47 515 q 94 694 47 639 q 220 750 141 750 q 290 733 258 750 q 338 685 321 716 l 338 959 l 521 959 l 521 0 l 346 0 l 346 47 q 224 -11 292 -11 m 231 255 q 244 177 231 201 q 288 153 258 153 q 342 255 342 153 l 342 483 q 328 562 342 538 q 286 585 315 585 q 243 561 256 585 q 231 483 231 537 l 231 255 z "},"e":{"ha":571,"x_min":47,"x_max":525,"o":"m 286 -11 q 111 56 174 -11 q 47 288 47 123 l 47 449 q 105 679 47 608 q 282 750 163 750 q 461 677 397 750 q 525 449 525 605 l 525 302 l 231 302 l 231 241 q 244 175 231 199 q 285 151 258 151 q 342 227 342 151 l 342 235 l 518 235 l 518 225 q 458 48 518 107 q 286 -11 399 -11 m 231 434 l 340 434 l 340 481 q 328 560 340 536 q 285 585 315 585 q 231 483 231 585 l 231 434 z "},"f":{"ha":397,"x_min":33,"x_max":373,"o":"m 102 0 l 102 613 l 33 613 l 33 739 l 102 739 l 102 776 q 292 959 102 958 l 373 959 l 373 833 l 354 833 q 298 816 313 833 q 283 757 283 799 l 283 739 l 373 739 l 373 613 l 283 613 l 283 0 l 102 0 z "},"g":{"ha":567,"x_min":47,"x_max":521,"o":"m 286 -236 q 123 -182 182 -236 q 61 -18 64 -127 l 232 -18 q 289 -79 231 -79 q 330 -61 315 -79 q 346 -14 346 -43 l 346 119 q 224 61 292 61 q 96 117 145 61 q 47 297 47 174 l 47 514 q 94 694 47 639 q 220 750 141 750 q 290 733 258 750 q 338 685 321 716 l 338 739 l 521 739 l 521 4 q 457 -172 521 -109 q 286 -236 393 -236 m 231 330 q 243 251 231 277 q 288 225 256 225 q 342 330 342 227 l 342 483 q 328 562 342 538 q 286 585 315 585 q 243 559 256 585 q 231 481 231 534 l 231 330 z "},"h":{"ha":566,"x_min":49,"x_max":518,"o":"m 49 0 l 49 959 l 232 959 l 232 697 q 340 750 285 750 q 477 692 437 750 q 518 525 518 635 l 518 0 l 335 0 l 335 525 q 321 570 335 555 q 283 585 307 585 q 232 525 232 585 l 232 0 l 49 0 z "},"i":{"ha":288,"x_min":53,"x_max":237,"o":"m 53 0 l 53 739 l 237 739 l 237 0 l 53 0 m 53 821 l 53 959 l 236 959 l 236 821 l 53 821 z "},"j":{"ha":290,"x_min":-34,"x_max":239,"o":"m -34 -222 l -34 -57 l -30 -57 q 56 28 56 -57 l 56 739 l 239 739 l 239 18 q -28 -222 239 -222 l -34 -222 m 56 821 l 56 959 l 239 959 l 239 821 l 56 821 z "},"k":{"ha":587,"x_min":49,"x_max":575,"o":"m 49 0 l 49 959 l 232 959 l 232 465 l 385 739 l 575 739 l 387 448 l 575 0 l 374 0 l 274 270 l 232 206 l 232 0 l 49 0 z "},"l":{"ha":335,"x_min":49,"x_max":319,"o":"m 316 0 q 49 240 49 0 l 49 959 l 232 959 l 232 252 q 316 164 232 164 l 319 164 l 319 0 l 316 0 z "},"m":{"ha":852,"x_min":49,"x_max":804,"o":"m 49 0 l 49 739 l 224 739 l 224 689 q 342 750 277 750 q 421 731 384 750 q 480 678 458 712 q 545 730 507 711 q 620 750 583 750 q 764 694 723 750 q 804 525 804 637 l 804 0 l 621 0 l 621 525 q 568 585 621 585 q 518 524 518 585 l 518 0 l 335 0 l 335 525 q 321 570 335 555 q 283 585 307 585 q 232 525 232 585 l 232 0 l 49 0 z "},"n":{"ha":566,"x_min":49,"x_max":518,"o":"m 49 0 l 49 739 l 224 739 l 224 689 q 340 750 277 750 q 518 525 518 750 l 518 0 l 335 0 l 335 525 q 321 570 335 555 q 283 585 307 585 q 232 525 232 585 l 232 0 l 49 0 z "},"o":{"ha":571,"x_min":47,"x_max":525,"o":"m 286 -11 q 109 52 170 -11 q 47 260 47 115 l 47 477 q 109 686 47 623 q 286 750 170 750 q 465 686 406 750 q 525 477 525 623 l 525 260 q 465 52 525 115 q 286 -11 406 -11 m 231 255 q 285 153 231 153 q 340 255 340 153 l 340 483 q 285 585 340 585 q 231 483 231 585 l 231 255 z "},"p":{"ha":567,"x_min":49,"x_max":521,"o":"m 49 -222 l 49 739 l 225 739 l 225 685 q 351 750 273 750 q 475 695 429 750 q 521 515 521 640 l 521 224 q 472 45 521 100 q 347 -11 423 -11 q 232 38 281 -11 l 232 -222 l 49 -222 m 229 255 q 283 153 229 153 q 324 176 311 153 q 338 255 338 198 l 338 483 q 323 562 338 540 q 283 585 309 585 q 243 562 258 585 q 229 483 229 538 l 229 255 z "},"q":{"ha":567,"x_min":47,"x_max":521,"o":"m 338 -222 l 338 38 q 224 -11 289 -11 q 96 45 145 -11 q 47 224 47 102 l 47 515 q 94 694 47 639 q 220 750 141 750 q 346 685 293 750 l 346 739 l 521 739 l 521 -222 l 338 -222 m 231 255 q 244 177 231 201 q 288 153 258 153 q 342 255 342 153 l 342 483 q 328 562 342 538 q 286 585 315 585 q 243 561 256 585 q 231 483 231 537 l 231 255 z "},"r":{"ha":433,"x_min":49,"x_max":416,"o":"m 49 0 l 49 739 l 224 739 l 224 670 q 286 734 252 716 q 366 753 320 753 q 391 751 378 753 q 416 747 404 750 l 416 552 q 378 564 397 560 q 342 567 359 567 q 262 535 293 567 q 232 445 232 503 l 232 0 l 49 0 z "},"s":{"ha":548,"x_min":38,"x_max":515,"o":"m 277 -11 q 102 50 165 -11 q 38 218 38 111 l 38 227 l 214 227 l 214 218 q 279 141 214 141 q 324 159 311 141 q 338 209 338 178 q 274 286 338 258 l 193 323 q 73 411 104 362 q 41 534 41 460 q 71 646 41 597 q 153 722 100 694 q 274 750 205 750 q 396 722 343 750 q 478 644 449 693 q 507 529 507 594 l 507 517 l 328 517 l 328 525 q 312 582 328 564 q 273 600 296 600 q 216 541 216 600 q 229 498 216 514 q 277 468 241 483 l 366 427 q 481 341 448 392 q 515 210 515 290 q 451 52 515 115 q 277 -11 387 -11 z "},"t":{"ha":422,"x_min":22,"x_max":395,"o":"m 373 0 q 170 58 239 0 q 102 241 102 117 l 102 613 l 22 613 l 22 739 l 102 739 l 102 861 l 285 933 l 285 739 l 395 739 l 395 613 l 285 613 l 285 252 q 373 164 285 164 l 373 0 m 374 0 l 373 0 l 373 0 q 374 0 373 0 z "},"u":{"ha":566,"x_min":49,"x_max":518,"o":"m 283 -11 q 139 18 190 -11 q 68 106 88 47 q 49 254 49 165 l 49 739 l 232 739 l 232 278 q 239 180 232 208 q 283 153 245 153 q 329 179 323 153 q 335 262 335 205 q 335 270 335 266 q 335 278 335 274 l 335 739 l 518 739 l 518 254 q 498 103 518 161 q 428 17 479 45 q 283 -11 377 -11 z "},"v":{"ha":585,"x_min":14,"x_max":572,"o":"m 194 0 l 14 739 l 216 739 l 294 292 l 369 739 l 572 739 l 391 0 l 194 0 z "},"w":{"ha":860,"x_min":14,"x_max":846,"o":"m 182 0 l 14 739 l 216 739 l 279 290 l 354 739 l 505 739 l 581 290 l 643 739 l 846 739 l 677 0 l 499 0 l 430 418 l 358 0 l 182 0 z "},"x":{"ha":543,"x_min":14,"x_max":529,"o":"m 14 0 l 176 384 l 22 739 l 206 739 l 281 571 l 336 739 l 522 739 l 361 385 l 529 0 l 345 0 l 263 186 l 201 0 l 14 0 z "},"y":{"ha":585,"x_min":14,"x_max":572,"o":"m 69 -221 l 69 -60 l 140 -60 q 189 -55 168 -60 q 220 -45 210 -50 l 14 739 l 216 739 l 302 327 l 381 739 l 572 739 l 377 -47 q 325 -158 361 -121 q 228 -208 289 -195 q 72 -221 167 -221 l 69 -221 z "},"z":{"ha":537,"x_min":47,"x_max":490,"o":"m 47 0 l 47 152 l 309 585 l 47 585 l 47 739 l 490 739 l 490 585 l 235 152 l 490 152 l 490 0 l 47 0 z "},"{":{"ha":448,"x_min":47,"x_max":401,"o":"m 315 -117 q 184 -71 231 -117 q 138 61 138 -24 l 138 281 q 120 358 138 336 q 47 378 102 380 l 47 540 q 120 562 102 538 q 138 639 138 585 l 138 850 q 184 982 138 936 q 315 1028 231 1028 l 401 1028 l 401 867 l 376 867 q 317 804 317 867 l 317 648 q 311 549 317 586 q 288 492 305 513 q 232 460 270 472 q 287 425 269 446 q 311 368 305 404 q 317 270 317 331 l 317 107 q 334 60 317 77 q 376 43 350 43 l 401 43 l 401 -117 l 315 -117 z "},"|":{"ha":365,"x_min":95,"x_max":273,"o":"m 95 -117 l 95 1028 l 273 1028 l 273 -117 l 95 -117 z "},"}":{"ha":448,"x_min":47,"x_max":401,"o":"m 47 -117 l 47 43 l 72 43 q 130 107 130 43 l 130 270 q 148 399 130 358 q 217 460 165 439 q 146 519 163 479 q 130 648 130 559 l 130 804 q 72 867 130 867 l 47 867 l 47 1028 l 134 1028 q 264 982 218 1028 q 309 850 309 936 l 309 639 q 328 562 309 586 q 401 540 347 538 l 401 378 q 328 357 347 380 q 309 281 309 335 l 309 61 q 266 -71 309 -24 q 134 -117 222 -117 l 47 -117 z "},"~":{"ha":582,"x_min":33,"x_max":534,"o":"m 140 267 l 33 327 q 106 433 69 400 q 194 467 144 467 q 245 456 220 467 q 297 430 270 446 q 328 414 311 422 q 357 407 346 407 q 391 420 377 407 q 429 476 404 434 l 534 414 q 459 307 498 339 q 370 274 420 274 q 319 283 345 274 q 270 309 293 293 q 212 334 236 334 q 178 320 194 334 q 140 267 163 307 z "}," ":{"ha":243,"x_min":0,"x_max":0,"o":""},"¡":{"ha":289,"x_min":47,"x_max":239,"o":"m 47 -222 l 85 418 l 202 418 l 239 -222 l 47 -222 m 54 541 l 54 739 l 233 739 l 233 541 l 54 541 z "},"¢":{"ha":631,"x_min":47,"x_max":517,"o":"m 281 -138 l 281 -11 q 106 53 165 -12 q 47 260 47 118 l 47 477 q 106 684 47 618 q 281 750 165 750 l 281 892 l 365 892 l 365 742 q 517 507 517 703 l 517 476 l 340 476 l 340 505 q 286 585 340 585 q 231 483 231 585 l 231 255 q 285 153 231 153 q 326 173 312 153 q 340 236 340 193 l 340 260 l 517 260 l 517 236 q 477 76 517 136 q 365 -3 438 16 l 365 -138 l 281 -138 z "},"£":{"ha":601,"x_min":22,"x_max":582,"o":"m 47 0 l 47 178 q 98 217 87 193 q 109 300 109 241 l 109 395 l 22 395 l 22 571 l 109 571 l 109 747 q 168 914 109 856 q 346 972 227 972 q 524 912 465 972 q 582 739 582 852 l 397 739 q 386 804 397 787 q 351 821 374 821 q 301 755 301 821 l 301 571 l 469 571 l 469 395 l 301 395 l 301 297 q 256 175 301 218 l 562 175 l 562 0 l 47 0 z "},"¤":{"ha":785,"x_min":47,"x_max":739,"o":"m 161 83 l 47 197 l 138 290 q 107 423 107 353 q 140 559 107 492 l 49 651 l 164 766 l 252 677 q 393 709 320 712 q 530 677 464 709 l 624 766 l 738 651 l 646 560 q 673 493 665 528 q 681 423 681 458 q 647 290 681 354 l 739 197 l 623 83 l 532 172 q 393 140 467 138 q 252 172 316 140 l 161 83 m 393 298 q 479 334 445 298 q 514 423 514 369 q 480 514 514 476 q 393 552 446 552 q 307 514 340 552 q 273 423 273 476 q 307 334 273 370 q 393 298 342 298 z "},"¥":{"ha":576,"x_min":5,"x_max":572,"o":"m 191 0 l 191 136 l 57 136 l 57 266 l 191 266 l 191 332 l 57 332 l 57 463 l 176 463 l 5 959 l 208 959 l 293 609 l 373 959 l 572 959 l 401 463 l 521 463 l 521 332 l 385 332 l 385 266 l 521 266 l 521 136 l 385 136 l 385 0 l 191 0 z "},"¦":{"ha":365,"x_min":95,"x_max":273,"o":"m 95 538 l 95 1028 l 273 1028 l 273 538 l 95 538 m 95 -117 l 95 370 l 273 370 l 273 -117 l 95 -117 z "},"§":{"ha":557,"x_min":50,"x_max":510,"o":"m 278 -233 q 115 -176 163 -233 q 68 9 68 -119 l 231 9 q 237 -71 231 -49 q 275 -94 244 -94 q 314 -73 305 -94 q 323 -18 323 -53 q 315 50 323 27 q 281 87 307 72 q 208 121 256 102 q 84 214 118 156 q 50 378 50 273 q 73 505 50 454 q 153 581 95 555 q 85 648 106 601 q 65 766 65 696 q 279 983 65 983 q 441 928 396 983 q 487 743 487 872 l 324 743 q 319 823 324 802 q 281 844 313 844 q 246 825 252 844 q 240 766 240 806 q 248 702 240 724 q 280 666 256 680 q 351 635 304 652 q 477 542 444 600 q 510 378 510 484 q 487 250 510 300 q 404 176 464 199 q 475 107 456 155 q 495 -12 495 60 q 278 -233 495 -233 m 278 255 q 330 283 320 255 q 339 378 339 311 q 330 472 339 444 q 278 500 321 500 q 228 471 235 500 q 221 384 221 442 q 221 378 221 380 q 231 286 221 316 q 278 255 240 255 z "},"¨":{"ha":694,"x_min":168,"x_max":524,"o":"m 168 826 l 168 998 l 305 998 l 305 826 l 168 826 m 387 826 l 387 998 l 524 998 l 524 826 l 387 826 z "},"©":{"ha":955,"x_min":46,"x_max":910,"o":"m 479 -7 q 159 121 271 -7 q 46 477 46 250 q 159 837 46 711 q 479 963 271 963 q 799 834 688 963 q 910 477 910 705 q 799 123 910 252 q 479 -7 688 -7 m 479 96 q 716 196 637 96 q 795 477 795 296 q 715 760 795 662 q 479 859 636 859 q 239 758 317 859 q 161 477 161 658 q 241 195 161 293 q 479 96 320 96 m 479 210 q 355 254 397 209 q 313 401 313 298 l 313 556 q 355 703 313 658 q 479 747 396 747 q 643 578 643 747 l 643 557 l 519 557 l 519 575 q 479 633 519 633 q 442 562 442 633 l 442 397 q 450 340 442 358 q 479 323 458 323 q 519 385 519 323 l 519 401 l 643 401 l 643 385 q 601 253 643 296 q 479 210 559 210 z "},"ª":{"ha":431,"x_min":52,"x_max":365,"o":"m 176 590 q 52 727 52 590 q 92 823 52 789 q 220 857 133 857 l 254 857 l 254 899 q 213 933 254 933 q 180 924 193 933 q 168 902 168 916 l 168 899 l 64 899 l 64 902 q 104 1002 64 968 q 214 1035 144 1035 q 326 996 286 1035 q 365 892 365 956 l 365 597 l 260 597 l 260 631 q 225 601 243 612 q 176 590 208 590 m 165 732 q 178 704 165 716 q 210 692 191 692 q 241 701 228 692 q 254 728 254 711 l 254 776 l 231 776 q 165 732 165 776 z "},"«":{"ha":623,"x_min":16,"x_max":575,"o":"m 293 85 l 16 366 l 293 648 l 293 479 l 182 366 l 293 252 l 293 85 m 575 85 l 298 366 l 575 648 l 575 479 l 463 366 l 575 252 l 575 85 z "},"¬":{"ha":582,"x_min":46,"x_max":533,"o":"m 350 216 l 350 351 l 46 351 l 46 517 l 533 517 l 533 216 l 350 216 z "},"®":{"ha":574,"x_min":50,"x_max":524,"o":"m 285 442 q 110 511 170 442 q 50 704 50 581 q 111 898 50 829 q 285 967 172 967 q 461 896 399 967 q 524 704 524 825 q 462 513 524 583 q 285 442 400 442 m 110 704 q 285 496 110 496 q 460 704 460 496 q 416 858 460 804 q 285 911 372 911 q 153 857 195 911 q 110 704 110 802 m 209 559 l 209 853 l 288 853 q 376 765 372 853 q 343 689 376 713 l 385 559 l 319 559 l 283 673 l 273 673 l 273 559 l 209 559 m 273 730 l 281 730 q 303 734 296 730 q 311 762 311 739 q 303 789 311 785 q 281 793 296 793 l 273 793 l 273 730 z "},"¯":{"ha":694,"x_min":180,"x_max":513,"o":"m 180 830 l 180 994 l 513 994 l 513 830 l 180 830 z "},"°":{"ha":438,"x_min":46,"x_max":393,"o":"m 218 629 q 132 652 171 629 q 69 713 92 674 q 46 802 46 753 q 95 924 46 873 q 218 974 144 974 q 344 924 294 974 q 393 802 393 875 q 344 678 393 727 q 218 629 294 629 m 146 802 q 168 746 146 768 q 218 724 189 724 q 271 746 250 724 q 293 802 293 768 q 272 857 293 837 q 218 878 251 878 q 166 855 186 878 q 146 802 146 833 z "},"±":{"ha":582,"x_min":41,"x_max":540,"o":"m 203 240 l 203 403 l 41 403 l 41 578 l 203 578 l 203 741 l 377 741 l 377 578 l 540 578 l 540 403 l 377 403 l 377 240 l 203 240 m 41 5 l 41 180 l 540 180 l 540 5 l 41 5 z "},"²":{"ha":353,"x_min":9,"x_max":346,"o":"m 9 578 l 9 700 l 164 921 q 184 957 179 943 q 191 997 190 971 l 191 1034 q 179 1051 191 1051 q 167 1027 167 1051 l 167 971 l 15 971 l 15 1040 q 61 1145 15 1105 q 182 1185 107 1185 q 301 1145 258 1185 q 345 1036 345 1105 l 345 991 q 332 922 345 951 q 297 857 320 892 l 194 712 l 346 712 l 346 578 l 9 578 z "},"³":{"ha":353,"x_min":9,"x_max":342,"o":"m 172 570 q 51 612 92 570 q 9 720 9 654 l 9 779 l 161 779 l 161 724 q 172 704 161 704 q 174 704 172 704 q 181 707 179 704 q 183 731 183 711 l 183 788 q 181 814 183 811 q 168 818 179 818 q 167 818 167 818 l 126 818 l 126 952 l 168 952 q 182 955 180 952 q 183 968 184 958 q 183 975 183 972 l 183 1024 q 180 1047 183 1043 q 172 1051 178 1051 q 161 1032 161 1051 l 161 981 l 9 981 l 9 1039 q 54 1147 9 1107 q 176 1185 99 1187 q 297 1145 252 1185 q 342 1031 342 1104 l 342 994 q 297 891 342 922 q 330 854 319 878 q 340 781 340 831 l 340 723 q 296 610 340 651 q 172 570 251 570 z "},"´":{"ha":694,"x_min":175,"x_max":511,"o":"m 175 826 l 317 1017 l 511 1017 l 334 826 l 175 826 z "},"µ":{"ha":567,"x_min":49,"x_max":519,"o":"m 49 -221 l 49 739 l 233 739 l 233 216 q 285 153 233 153 q 336 216 336 153 l 336 739 l 519 739 l 519 0 l 343 0 l 343 50 q 310 8 334 22 q 264 -5 286 -5 q 220 -1 239 -5 l 220 -221 l 49 -221 z "},"¶":{"ha":783,"x_min":50,"x_max":709,"o":"m 281 -222 l 281 358 q 162 404 214 362 q 80 512 110 445 q 50 658 50 579 q 85 808 50 739 q 182 918 119 876 q 330 959 244 959 l 709 959 l 709 -222 l 534 -222 l 534 814 l 456 814 l 456 -222 l 281 -222 z "},"·":{"ha":250,"x_min":35,"x_max":216,"o":"m 35 292 l 35 495 l 216 495 l 216 292 l 35 292 z "},"¸":{"ha":749,"x_min":218,"x_max":454,"o":"m 218 -222 l 320 12 l 454 12 l 370 -222 l 218 -222 z "},"¹":{"ha":266,"x_min":5,"x_max":248,"o":"m 87 578 l 87 996 l 5 933 l 5 1105 l 98 1177 l 248 1177 l 248 578 l 87 578 z "},"º":{"ha":437,"x_min":61,"x_max":376,"o":"m 221 590 q 100 625 140 590 q 61 746 61 659 l 61 879 q 100 997 61 959 q 221 1035 138 1035 q 336 999 297 1035 q 376 879 376 963 l 376 746 q 336 627 376 663 q 221 590 297 590 m 174 751 q 218 693 174 693 q 251 707 239 693 q 263 751 263 720 l 263 873 q 251 918 263 905 q 218 932 239 932 q 174 873 174 932 l 174 751 z "},"»":{"ha":623,"x_min":49,"x_max":606,"o":"m 49 85 l 49 252 l 160 366 l 49 479 l 49 648 l 326 366 l 49 85 m 331 85 l 331 252 l 441 366 l 331 479 l 331 648 l 606 366 l 331 85 z "},"¼":{"ha":994,"x_min":3,"x_max":970,"o":"m 84 359 l 84 777 l 3 715 l 3 887 l 95 959 l 245 959 l 245 359 l 84 359 m 193 0 l 552 974 l 677 974 l 317 0 l 193 0 m 804 -15 l 804 73 l 595 73 l 595 194 l 718 585 l 876 585 l 758 206 l 804 206 l 804 326 l 944 326 l 944 206 l 970 206 l 970 73 l 944 73 l 944 -15 l 804 -15 z "},"½":{"ha":982,"x_min":3,"x_max":926,"o":"m 84 359 l 84 777 l 3 715 l 3 887 l 95 959 l 245 959 l 245 359 l 84 359 m 197 0 l 556 974 l 681 974 l 321 0 l 197 0 m 590 -20 l 590 102 l 745 323 q 765 359 760 345 q 772 399 770 373 l 772 435 q 760 453 772 453 q 747 429 747 453 l 747 373 l 595 373 l 595 442 q 642 547 595 507 q 762 587 688 587 q 882 547 838 587 q 925 438 925 507 l 925 393 q 913 323 925 353 q 878 259 901 294 l 774 114 l 926 114 l 926 -20 l 590 -20 z "},"¾":{"ha":1099,"x_min":8,"x_max":1073,"o":"m 171 350 q 50 392 91 350 q 8 500 8 434 l 8 559 l 160 559 l 160 505 q 171 484 160 484 q 172 484 171 484 q 180 488 178 484 q 182 511 182 491 l 182 568 q 180 595 182 591 q 167 598 178 598 q 165 598 165 598 l 125 598 l 125 732 l 167 732 q 181 735 179 732 q 182 749 183 738 q 182 755 182 753 l 182 804 q 179 827 182 823 q 171 831 176 831 q 160 812 160 831 l 160 761 l 8 761 l 8 819 q 53 927 8 887 q 175 966 98 967 q 296 925 251 966 q 340 811 340 884 l 340 774 q 296 671 340 703 q 328 635 317 658 q 339 562 339 612 l 339 503 q 294 391 339 431 q 171 350 250 350 m 296 0 l 655 974 l 780 974 l 420 0 l 296 0 m 907 -15 l 907 73 l 699 73 l 699 194 l 821 585 l 979 585 l 861 206 l 907 206 l 907 326 l 1047 326 l 1047 206 l 1073 206 l 1073 73 l 1047 73 l 1047 -15 l 907 -15 z "},"¿":{"ha":529,"x_min":31,"x_max":506,"o":"m 269 -235 q 96 -172 160 -235 q 31 -3 31 -110 q 41 94 31 53 q 90 183 52 134 l 148 264 q 179 324 174 297 q 184 400 184 351 l 184 457 l 354 457 l 354 401 q 351 327 354 357 q 337 269 349 297 q 298 199 326 240 l 252 127 q 222 70 231 96 q 214 0 214 43 q 271 -72 214 -72 q 317 -44 309 -72 q 324 54 324 -16 l 506 54 q 450 -164 506 -94 q 269 -235 393 -235 m 186 549 l 186 739 l 353 739 l 353 549 l 186 549 z "},"À":{"ha":684,"x_min":7,"x_max":677,"o":"m 7 0 l 247 959 l 438 959 l 677 0 l 476 0 l 445 167 l 240 167 l 209 0 l 7 0 m 275 342 l 411 342 l 343 703 l 275 342 m 312 1046 l 134 1237 l 328 1237 l 468 1046 l 312 1046 z "},"Á":{"ha":684,"x_min":7,"x_max":677,"o":"m 7 0 l 247 959 l 438 959 l 677 0 l 476 0 l 445 167 l 240 167 l 209 0 l 7 0 m 275 342 l 411 342 l 343 703 l 275 342 m 222 1046 l 363 1237 l 557 1237 l 380 1046 l 222 1046 z "},"Â":{"ha":684,"x_min":7,"x_max":677,"o":"m 7 0 l 247 959 l 438 959 l 677 0 l 476 0 l 445 167 l 240 167 l 209 0 l 7 0 m 275 342 l 411 342 l 343 703 l 275 342 m 137 1038 l 279 1246 l 403 1246 l 547 1038 l 416 1038 l 343 1145 l 267 1038 l 137 1038 z "},"Ã":{"ha":684,"x_min":7,"x_max":677,"o":"m 7 0 l 247 959 l 438 959 l 677 0 l 476 0 l 445 167 l 240 167 l 209 0 l 7 0 m 275 342 l 411 342 l 343 703 l 275 342 m 183 1047 l 183 1185 q 231 1227 210 1217 q 278 1237 252 1237 q 316 1231 300 1237 q 353 1210 332 1225 q 384 1194 372 1200 q 414 1188 396 1188 q 450 1198 435 1188 q 502 1244 464 1207 l 502 1105 q 456 1063 473 1074 q 408 1053 438 1053 q 370 1059 385 1053 q 335 1080 354 1066 q 304 1096 317 1090 q 271 1101 292 1101 q 233 1091 250 1101 q 183 1047 216 1081 z "},"Ä":{"ha":684,"x_min":7,"x_max":677,"o":"m 7 0 l 247 959 l 438 959 l 677 0 l 476 0 l 445 167 l 240 167 l 209 0 l 7 0 m 275 342 l 411 342 l 343 703 l 275 342 m 164 1046 l 164 1218 l 301 1218 l 301 1046 l 164 1046 m 384 1046 l 384 1218 l 521 1218 l 521 1046 l 384 1046 z "},"Å":{"ha":684,"x_min":7,"x_max":677,"o":"m 7 0 l 247 959 l 438 959 l 677 0 l 476 0 l 445 167 l 240 167 l 209 0 l 7 0 m 275 342 l 411 342 l 343 703 l 275 342 m 343 922 q 249 961 288 922 q 210 1055 210 1000 q 248 1150 210 1112 q 343 1188 285 1188 q 437 1151 399 1188 q 476 1055 476 1114 q 437 960 476 998 q 343 922 397 922 m 282 1055 q 300 1012 282 1029 q 343 994 317 994 q 386 1012 369 994 q 403 1055 403 1029 q 386 1098 403 1080 q 343 1116 369 1116 q 300 1098 319 1116 q 282 1055 282 1080 z "},"Æ":{"ha":939,"x_min":7,"x_max":910,"o":"m 7 0 l 349 959 l 910 959 l 910 783 l 671 783 l 671 575 l 878 575 l 878 400 l 671 400 l 671 174 l 910 174 l 910 0 l 476 0 l 476 167 l 264 167 l 209 0 l 7 0 m 327 340 l 476 340 l 476 784 l 327 340 z "},"Ç":{"ha":646,"x_min":46,"x_max":598,"o":"m 317 -11 q 119 57 193 -11 q 46 259 46 125 l 46 701 q 124 903 46 834 q 330 972 202 972 q 526 902 453 972 q 598 692 598 831 l 598 656 l 404 656 l 404 690 q 382 771 404 745 q 324 798 359 798 q 258 765 277 798 q 240 669 240 732 l 240 285 q 324 163 240 164 q 384 191 363 163 q 404 271 404 220 l 404 300 l 598 300 l 598 270 q 562 114 598 176 q 462 20 525 52 q 317 -11 399 -11 m 176 -222 l 278 12 l 412 12 l 328 -222 l 176 -222 z "},"È":{"ha":509,"x_min":50,"x_max":477,"o":"m 50 0 l 50 959 l 477 959 l 477 783 l 243 783 l 243 575 l 446 575 l 446 400 l 243 400 l 243 174 l 477 174 l 477 0 l 50 0 m 241 1046 l 64 1237 l 258 1237 l 397 1046 l 241 1046 z "},"É":{"ha":509,"x_min":50,"x_max":487,"o":"m 50 0 l 50 959 l 477 959 l 477 783 l 243 783 l 243 575 l 446 575 l 446 400 l 243 400 l 243 174 l 477 174 l 477 0 l 50 0 m 152 1046 l 293 1237 l 487 1237 l 309 1046 l 152 1046 z "},"Ê":{"ha":509,"x_min":50,"x_max":477,"o":"m 50 0 l 50 959 l 477 959 l 477 783 l 243 783 l 243 575 l 446 575 l 446 400 l 243 400 l 243 174 l 477 174 l 477 0 l 50 0 m 66 1038 l 209 1246 l 332 1246 l 476 1038 l 346 1038 l 273 1145 l 197 1038 l 66 1038 z "},"Ë":{"ha":509,"x_min":50,"x_max":477,"o":"m 50 0 l 50 959 l 477 959 l 477 783 l 243 783 l 243 575 l 446 575 l 446 400 l 243 400 l 243 174 l 477 174 l 477 0 l 50 0 m 94 1046 l 94 1218 l 231 1218 l 231 1046 l 94 1046 m 313 1046 l 313 1218 l 450 1218 l 450 1046 l 313 1046 z "},"Ì":{"ha":302,"x_min":-57,"x_max":277,"o":"m 54 0 l 54 959 l 247 959 l 247 0 l 54 0 m 121 1046 l -57 1237 l 137 1237 l 277 1046 l 121 1046 z "},"Í":{"ha":302,"x_min":31,"x_max":366,"o":"m 54 0 l 54 959 l 247 959 l 247 0 l 54 0 m 31 1046 l 172 1237 l 366 1237 l 189 1046 l 31 1046 z "},"Î":{"ha":302,"x_min":-54,"x_max":355,"o":"m 54 0 l 54 959 l 247 959 l 247 0 l 54 0 m -54 1038 l 88 1246 l 212 1246 l 355 1038 l 225 1038 l 152 1145 l 76 1038 l -54 1038 z "},"Ï":{"ha":302,"x_min":-27,"x_max":330,"o":"m 54 0 l 54 959 l 247 959 l 247 0 l 54 0 m -27 1046 l -27 1218 l 110 1218 l 110 1046 l -27 1046 m 193 1046 l 193 1218 l 330 1218 l 330 1046 l 193 1046 z "},"Ð":{"ha":659,"x_min":22,"x_max":614,"o":"m 73 0 l 73 408 l 22 408 l 22 582 l 73 582 l 73 959 l 345 959 q 541 890 468 959 q 614 689 614 822 l 614 270 q 536 69 614 138 q 334 0 457 0 l 73 0 m 266 174 l 339 174 q 399 206 378 174 q 420 296 420 239 l 420 652 q 339 783 420 783 l 266 783 l 266 582 l 376 582 l 376 408 l 266 408 l 266 174 z "},"Ñ":{"ha":644,"x_min":50,"x_max":594,"o":"m 50 0 l 50 959 l 244 959 l 400 492 l 400 959 l 594 959 l 594 0 l 400 0 l 244 437 l 244 0 l 50 0 m 163 1047 l 163 1185 q 211 1227 190 1217 q 258 1237 232 1237 q 296 1231 279 1237 q 332 1210 312 1225 q 363 1194 351 1200 q 393 1188 376 1188 q 429 1198 415 1188 q 481 1244 444 1207 l 481 1105 q 435 1063 453 1074 q 388 1053 418 1053 q 349 1059 365 1053 q 315 1080 334 1066 q 284 1096 297 1090 q 251 1101 271 1101 q 212 1091 229 1101 q 163 1047 195 1081 z "},"Ò":{"ha":646,"x_min":46,"x_max":598,"o":"m 317 -11 q 119 57 193 -11 q 46 259 46 125 l 46 701 q 125 903 46 833 q 331 972 203 972 q 524 904 450 972 q 598 701 598 836 l 598 259 q 519 60 598 130 q 317 -11 441 -11 m 240 285 q 324 163 240 165 q 382 195 361 163 q 404 285 404 228 l 404 669 q 386 764 404 731 q 324 798 368 798 q 258 765 277 798 q 240 669 240 732 l 240 285 m 292 1046 l 114 1237 l 308 1237 l 448 1046 l 292 1046 z "},"Ó":{"ha":646,"x_min":46,"x_max":598,"o":"m 317 -11 q 119 57 193 -11 q 46 259 46 125 l 46 701 q 125 903 46 833 q 331 972 203 972 q 524 904 450 972 q 598 701 598 836 l 598 259 q 519 60 598 130 q 317 -11 441 -11 m 240 285 q 324 163 240 165 q 382 195 361 163 q 404 285 404 228 l 404 669 q 386 764 404 731 q 324 798 368 798 q 258 765 277 798 q 240 669 240 732 l 240 285 m 202 1046 l 343 1237 l 537 1237 l 359 1046 l 202 1046 z "},"Ô":{"ha":646,"x_min":46,"x_max":598,"o":"m 317 -11 q 119 57 193 -11 q 46 259 46 125 l 46 701 q 125 903 46 833 q 331 972 203 972 q 524 904 450 972 q 598 701 598 836 l 598 259 q 519 60 598 130 q 317 -11 441 -11 m 240 285 q 324 163 240 165 q 382 195 361 163 q 404 285 404 228 l 404 669 q 386 764 404 731 q 324 798 368 798 q 258 765 277 798 q 240 669 240 732 l 240 285 m 117 1038 l 259 1246 l 382 1246 l 526 1038 l 396 1038 l 323 1145 l 247 1038 l 117 1038 z "},"Õ":{"ha":646,"x_min":46,"x_max":598,"o":"m 317 -11 q 119 57 193 -11 q 46 259 46 125 l 46 701 q 125 903 46 833 q 331 972 203 972 q 524 904 450 972 q 598 701 598 836 l 598 259 q 519 60 598 130 q 317 -11 441 -11 m 240 285 q 324 163 240 165 q 382 195 361 163 q 404 285 404 228 l 404 669 q 386 764 404 731 q 324 798 368 798 q 258 765 277 798 q 240 669 240 732 l 240 285 m 163 1047 l 163 1185 q 211 1227 190 1217 q 258 1237 232 1237 q 296 1231 279 1237 q 332 1210 312 1225 q 363 1194 351 1200 q 393 1188 376 1188 q 429 1198 415 1188 q 481 1244 444 1207 l 481 1105 q 435 1063 453 1074 q 388 1053 418 1053 q 349 1059 365 1053 q 315 1080 334 1066 q 284 1096 297 1090 q 251 1101 271 1101 q 212 1091 229 1101 q 163 1047 195 1081 z "},"Ö":{"ha":646,"x_min":46,"x_max":598,"o":"m 317 -11 q 119 57 193 -11 q 46 259 46 125 l 46 701 q 125 903 46 833 q 331 972 203 972 q 524 904 450 972 q 598 701 598 836 l 598 259 q 519 60 598 130 q 317 -11 441 -11 m 240 285 q 324 163 240 165 q 382 195 361 163 q 404 285 404 228 l 404 669 q 386 764 404 731 q 324 798 368 798 q 258 765 277 798 q 240 669 240 732 l 240 285 m 144 1046 l 144 1218 l 281 1218 l 281 1046 l 144 1046 m 363 1046 l 363 1218 l 500 1218 l 500 1046 l 363 1046 z "},"×":{"ha":582,"x_min":49,"x_max":533,"o":"m 164 141 l 49 255 l 176 384 l 49 510 l 164 625 l 292 498 l 416 625 l 533 510 l 407 384 l 533 255 l 416 141 l 292 269 l 164 141 z "},"Ø":{"ha":646,"x_min":46,"x_max":598,"o":"m 46 -27 l 96 83 q 46 259 46 151 l 46 701 q 125 903 46 833 q 331 972 203 972 q 484 935 420 972 l 514 1001 l 598 1001 l 544 882 q 584 804 570 849 q 598 701 598 758 l 598 259 q 519 60 598 130 q 317 -11 441 -11 q 156 28 221 -11 l 130 -27 l 46 -27 m 404 575 l 247 228 q 324 163 263 164 q 382 195 361 163 q 404 285 404 228 l 404 575 m 240 399 l 396 741 q 324 798 378 798 q 258 765 277 798 q 240 669 240 732 l 240 399 z "},"Ù":{"ha":629,"x_min":50,"x_max":579,"o":"m 316 -11 q 179 23 239 -11 q 85 117 119 57 q 50 254 50 176 l 50 959 l 244 959 l 244 256 q 260 184 244 206 q 316 163 277 163 q 371 186 357 163 q 385 256 385 210 l 385 959 l 579 959 l 579 254 q 545 117 579 176 q 450 23 510 57 q 316 -11 391 -11 m 285 1046 l 107 1237 l 301 1237 l 441 1046 l 285 1046 z "},"Ú":{"ha":629,"x_min":50,"x_max":579,"o":"m 316 -11 q 179 23 239 -11 q 85 117 119 57 q 50 254 50 176 l 50 959 l 244 959 l 244 256 q 260 184 244 206 q 316 163 277 163 q 371 186 357 163 q 385 256 385 210 l 385 959 l 579 959 l 579 254 q 545 117 579 176 q 450 23 510 57 q 316 -11 391 -11 m 195 1046 l 336 1237 l 530 1237 l 353 1046 l 195 1046 z "},"Û":{"ha":629,"x_min":50,"x_max":579,"o":"m 316 -11 q 179 23 239 -11 q 85 117 119 57 q 50 254 50 176 l 50 959 l 244 959 l 244 256 q 260 184 244 206 q 316 163 277 163 q 371 186 357 163 q 385 256 385 210 l 385 959 l 579 959 l 579 254 q 545 117 579 176 q 450 23 510 57 q 316 -11 391 -11 m 110 1038 l 252 1246 l 376 1246 l 519 1038 l 389 1038 l 316 1145 l 240 1038 l 110 1038 z "},"Ü":{"ha":629,"x_min":50,"x_max":579,"o":"m 316 -11 q 179 23 239 -11 q 85 117 119 57 q 50 254 50 176 l 50 959 l 244 959 l 244 256 q 260 184 244 206 q 316 163 277 163 q 371 186 357 163 q 385 256 385 210 l 385 959 l 579 959 l 579 254 q 545 117 579 176 q 450 23 510 57 q 316 -11 391 -11 m 137 1046 l 137 1218 l 274 1218 l 274 1046 l 137 1046 m 357 1046 l 357 1218 l 494 1218 l 494 1046 l 357 1046 z "},"Ý":{"ha":586,"x_min":7,"x_max":581,"o":"m 197 0 l 197 370 l 7 959 l 220 959 l 293 616 l 366 959 l 581 959 l 389 365 l 389 0 l 197 0 m 170 1046 l 311 1237 l 505 1237 l 327 1046 l 170 1046 z "},"Þ":{"ha":600,"x_min":50,"x_max":581,"o":"m 50 0 l 50 959 l 243 959 l 243 811 l 312 811 q 519 735 458 811 q 581 503 581 659 q 519 266 581 343 q 312 189 457 189 l 243 189 l 243 0 l 50 0 m 243 363 l 307 363 q 370 398 354 363 q 387 503 387 433 q 371 602 387 568 q 307 635 355 635 l 243 635 l 243 363 z "},"ß":{"ha":587,"x_min":49,"x_max":538,"o":"m 296 -7 l 296 145 l 316 145 q 342 158 334 145 q 353 208 350 171 q 355 315 355 244 q 355 326 355 320 q 355 338 355 332 q 354 424 355 395 q 345 463 353 453 q 316 473 336 473 l 293 473 l 293 627 l 312 627 q 343 647 338 627 q 349 724 349 667 q 292 808 349 808 q 232 736 232 808 l 232 0 l 49 0 l 49 719 q 111 909 49 846 q 292 972 172 971 q 470 911 408 972 q 532 742 532 849 q 526 659 532 692 q 505 605 521 627 q 461 563 490 583 q 514 516 498 540 q 534 447 530 492 q 538 315 538 401 q 532 154 538 217 q 505 56 525 91 q 442 7 484 20 q 331 -7 400 -7 l 296 -7 z "},"à":{"ha":563,"x_min":38,"x_max":517,"o":"m 222 -11 q 84 50 130 -11 q 38 220 38 110 q 103 381 38 326 q 288 437 168 437 l 332 437 l 332 524 q 319 570 332 553 q 279 587 305 587 q 241 572 256 587 q 227 528 227 557 l 227 517 l 57 517 l 57 519 q 121 692 57 635 q 285 750 184 750 q 456 684 395 750 q 517 509 517 618 l 517 0 l 346 0 l 346 60 q 288 4 312 19 q 222 -11 264 -11 m 221 228 q 278 148 221 148 q 317 169 301 148 q 332 224 332 190 l 332 311 l 311 311 q 243 292 264 311 q 221 228 221 273 m 250 826 l 72 1017 l 266 1017 l 406 826 l 250 826 z "},"á":{"ha":563,"x_min":38,"x_max":517,"o":"m 222 -11 q 84 50 130 -11 q 38 220 38 110 q 103 381 38 326 q 288 437 168 437 l 332 437 l 332 524 q 319 570 332 553 q 279 587 305 587 q 241 572 256 587 q 227 528 227 557 l 227 517 l 57 517 l 57 519 q 121 692 57 635 q 285 750 184 750 q 456 684 395 750 q 517 509 517 618 l 517 0 l 346 0 l 346 60 q 288 4 312 19 q 222 -11 264 -11 m 221 228 q 278 148 221 148 q 317 169 301 148 q 332 224 332 190 l 332 311 l 311 311 q 243 292 264 311 q 221 228 221 273 m 160 826 l 301 1017 l 495 1017 l 317 826 l 160 826 z "},"â":{"ha":563,"x_min":38,"x_max":517,"o":"m 222 -11 q 84 50 130 -11 q 38 220 38 110 q 103 381 38 326 q 288 437 168 437 l 332 437 l 332 524 q 319 570 332 553 q 279 587 305 587 q 241 572 256 587 q 227 528 227 557 l 227 517 l 57 517 l 57 519 q 121 692 57 635 q 285 750 184 750 q 456 684 395 750 q 517 509 517 618 l 517 0 l 346 0 l 346 60 q 288 4 312 19 q 222 -11 264 -11 m 221 228 q 278 148 221 148 q 317 169 301 148 q 332 224 332 190 l 332 311 l 311 311 q 243 292 264 311 q 221 228 221 273 m 75 818 l 217 1027 l 340 1027 l 484 818 l 354 818 l 281 925 l 205 818 l 75 818 z "},"ã":{"ha":563,"x_min":38,"x_max":517,"o":"m 222 -11 q 84 50 130 -11 q 38 220 38 110 q 103 381 38 326 q 288 437 168 437 l 332 437 l 332 524 q 319 570 332 553 q 279 587 305 587 q 241 572 256 587 q 227 528 227 557 l 227 517 l 57 517 l 57 519 q 121 692 57 635 q 285 750 184 750 q 456 684 395 750 q 517 509 517 618 l 517 0 l 346 0 l 346 60 q 288 4 312 19 q 222 -11 264 -11 m 221 228 q 278 148 221 148 q 317 169 301 148 q 332 224 332 190 l 332 311 l 311 311 q 243 292 264 311 q 221 228 221 273 m 121 827 l 121 966 q 169 1007 148 997 q 216 1017 190 1017 q 254 1011 237 1017 q 290 990 270 1005 q 321 975 309 981 q 351 968 334 968 q 387 978 373 968 q 439 1024 401 987 l 439 886 q 393 844 411 854 q 346 833 376 833 q 307 840 323 833 q 273 860 292 846 q 242 876 255 871 q 209 882 229 882 q 170 871 187 882 q 121 827 153 861 z "},"ä":{"ha":563,"x_min":38,"x_max":517,"o":"m 222 -11 q 84 50 130 -11 q 38 220 38 110 q 103 381 38 326 q 288 437 168 437 l 332 437 l 332 524 q 319 570 332 553 q 279 587 305 587 q 241 572 256 587 q 227 528 227 557 l 227 517 l 57 517 l 57 519 q 121 692 57 635 q 285 750 184 750 q 456 684 395 750 q 517 509 517 618 l 517 0 l 346 0 l 346 60 q 288 4 312 19 q 222 -11 264 -11 m 221 228 q 278 148 221 148 q 317 169 301 148 q 332 224 332 190 l 332 311 l 311 311 q 243 292 264 311 q 221 228 221 273 m 102 826 l 102 998 l 239 998 l 239 826 l 102 826 m 321 826 l 321 998 l 458 998 l 458 826 l 321 826 z "},"å":{"ha":563,"x_min":38,"x_max":517,"o":"m 222 -11 q 84 50 130 -11 q 38 220 38 110 q 103 381 38 326 q 288 437 168 437 l 332 437 l 332 524 q 319 570 332 553 q 279 587 305 587 q 241 572 256 587 q 227 528 227 557 l 227 517 l 57 517 l 57 519 q 121 692 57 635 q 285 750 184 750 q 456 684 395 750 q 517 509 517 618 l 517 0 l 346 0 l 346 60 q 288 4 312 19 q 222 -11 264 -11 m 221 228 q 278 148 221 148 q 317 169 301 148 q 332 224 332 190 l 332 311 l 311 311 q 243 292 264 311 q 221 228 221 273 m 281 738 q 186 777 225 738 q 148 871 148 815 q 186 966 148 928 q 281 1004 225 1004 q 375 966 336 1004 q 414 871 414 929 q 374 776 414 814 q 281 738 335 738 m 220 871 q 238 827 220 845 q 281 810 256 810 q 323 827 307 810 q 340 871 340 845 q 323 913 340 895 q 281 932 307 932 q 238 913 256 932 q 220 871 220 895 z "},"æ":{"ha":856,"x_min":38,"x_max":810,"o":"m 264 -11 q 100 54 163 -11 q 38 221 38 118 q 103 383 38 328 q 288 438 168 438 l 332 438 l 332 524 q 319 570 332 553 q 279 587 305 587 q 241 572 256 587 q 227 528 227 557 l 227 517 l 57 517 l 57 519 q 121 692 57 635 q 285 750 184 750 q 423 713 365 750 q 567 750 479 750 q 746 678 682 750 q 810 449 810 606 l 810 301 l 517 301 l 517 241 q 530 175 517 199 q 571 151 543 151 q 627 227 627 151 l 627 235 l 804 235 l 804 225 q 744 48 804 107 q 572 -11 684 -11 q 416 35 468 -11 q 264 -11 349 -11 m 221 229 q 278 148 221 148 q 315 168 298 148 q 332 224 332 187 l 332 312 l 311 312 q 243 293 264 312 q 221 229 221 274 m 517 433 l 627 433 l 627 481 q 613 560 627 536 q 572 585 600 585 q 517 483 517 585 l 517 433 z "},"ç":{"ha":563,"x_min":47,"x_max":517,"o":"m 286 -11 q 108 52 168 -11 q 47 260 47 115 l 47 477 q 109 686 47 623 q 286 750 170 750 q 458 690 399 750 q 517 507 517 629 l 517 476 l 340 476 l 340 505 q 286 585 340 585 q 231 483 231 585 l 231 255 q 285 153 231 153 q 326 173 312 153 q 340 236 340 193 l 340 260 l 517 260 l 517 236 q 458 50 517 111 q 286 -11 399 -11 m 146 -222 l 248 12 l 382 12 l 298 -222 l 146 -222 z "},"è":{"ha":571,"x_min":47,"x_max":525,"o":"m 286 -11 q 111 56 174 -11 q 47 288 47 123 l 47 449 q 105 679 47 608 q 282 750 163 750 q 461 677 397 750 q 525 449 525 605 l 525 302 l 231 302 l 231 241 q 244 175 231 199 q 285 151 258 151 q 342 227 342 151 l 342 235 l 518 235 l 518 225 q 458 48 518 107 q 286 -11 399 -11 m 231 434 l 340 434 l 340 481 q 328 560 340 536 q 285 585 315 585 q 231 483 231 585 l 231 434 m 256 826 l 79 1017 l 273 1017 l 412 826 l 256 826 z "},"é":{"ha":571,"x_min":47,"x_max":525,"o":"m 286 -11 q 111 56 174 -11 q 47 288 47 123 l 47 449 q 105 679 47 608 q 282 750 163 750 q 461 677 397 750 q 525 449 525 605 l 525 302 l 231 302 l 231 241 q 244 175 231 199 q 285 151 258 151 q 342 227 342 151 l 342 235 l 518 235 l 518 225 q 458 48 518 107 q 286 -11 399 -11 m 231 434 l 340 434 l 340 481 q 328 560 340 536 q 285 585 315 585 q 231 483 231 585 l 231 434 m 167 826 l 308 1017 l 502 1017 l 324 826 l 167 826 z "},"ê":{"ha":571,"x_min":47,"x_max":525,"o":"m 286 -11 q 111 56 174 -11 q 47 288 47 123 l 47 449 q 105 679 47 608 q 282 750 163 750 q 461 677 397 750 q 525 449 525 605 l 525 302 l 231 302 l 231 241 q 244 175 231 199 q 285 151 258 151 q 342 227 342 151 l 342 235 l 518 235 l 518 225 q 458 48 518 107 q 286 -11 399 -11 m 231 434 l 340 434 l 340 481 q 328 560 340 536 q 285 585 315 585 q 231 483 231 585 l 231 434 m 81 818 l 224 1027 l 347 1027 l 491 818 l 361 818 l 288 925 l 212 818 l 81 818 z "},"ë":{"ha":571,"x_min":47,"x_max":525,"o":"m 286 -11 q 111 56 174 -11 q 47 288 47 123 l 47 449 q 105 679 47 608 q 282 750 163 750 q 461 677 397 750 q 525 449 525 605 l 525 302 l 231 302 l 231 241 q 244 175 231 199 q 285 151 258 151 q 342 227 342 151 l 342 235 l 518 235 l 518 225 q 458 48 518 107 q 286 -11 399 -11 m 231 434 l 340 434 l 340 481 q 328 560 340 536 q 285 585 315 585 q 231 483 231 585 l 231 434 m 109 826 l 109 998 l 245 998 l 245 826 l 109 826 m 328 826 l 328 998 l 465 998 l 465 826 l 328 826 z "},"ì":{"ha":289,"x_min":-65,"x_max":269,"o":"m 53 0 l 53 739 l 237 739 l 237 0 l 53 0 m 113 822 l -65 1013 l 129 1013 l 269 822 l 113 822 z "},"í":{"ha":289,"x_min":23,"x_max":358,"o":"m 53 0 l 53 739 l 237 739 l 237 0 l 53 0 m 23 822 l 164 1013 l 358 1013 l 180 822 l 23 822 z "},"î":{"ha":289,"x_min":-62,"x_max":347,"o":"m 53 0 l 53 739 l 237 739 l 237 0 l 53 0 m -62 814 l 80 1023 l 203 1023 l 347 814 l 217 814 l 144 921 l 68 814 l -62 814 z "},"ï":{"ha":289,"x_min":-35,"x_max":321,"o":"m 53 0 l 53 739 l 237 739 l 237 0 l 53 0 m -35 822 l -35 994 l 102 994 l 102 822 l -35 822 m 184 822 l 184 994 l 321 994 l 321 822 l 184 822 z "},"ð":{"ha":551,"x_min":47,"x_max":505,"o":"m 274 -14 q 47 245 47 -14 l 47 393 q 92 574 47 510 q 225 637 136 637 q 293 624 258 637 l 237 739 l 121 701 l 83 815 l 180 848 l 119 972 l 292 972 l 328 892 l 427 925 l 465 810 l 381 784 l 414 716 q 467 595 448 647 q 496 494 487 543 q 505 388 505 446 l 505 244 q 446 52 505 118 q 274 -14 387 -14 m 231 229 q 277 164 231 164 q 308 180 296 164 q 320 229 320 197 l 320 410 q 277 463 320 463 q 231 410 231 463 l 231 229 z "},"ñ":{"ha":566,"x_min":49,"x_max":518,"o":"m 49 0 l 49 739 l 224 739 l 224 689 q 340 750 277 750 q 518 525 518 750 l 518 0 l 335 0 l 335 525 q 321 570 335 555 q 283 585 307 585 q 232 525 232 585 l 232 0 l 49 0 m 123 827 l 123 966 q 172 1007 151 997 q 218 1017 193 1017 q 256 1011 240 1017 q 293 990 273 1005 q 324 975 312 981 q 354 968 336 968 q 390 978 376 968 q 442 1024 404 987 l 442 886 q 396 844 414 854 q 349 833 378 833 q 310 840 326 833 q 275 860 294 846 q 245 876 258 871 q 212 882 232 882 q 173 871 190 882 q 123 827 156 861 z "},"ò":{"ha":571,"x_min":47,"x_max":525,"o":"m 286 -11 q 109 52 170 -11 q 47 260 47 115 l 47 477 q 109 686 47 623 q 286 750 170 750 q 465 686 406 750 q 525 477 525 623 l 525 260 q 465 52 525 115 q 286 -11 406 -11 m 231 255 q 285 153 231 153 q 340 255 340 153 l 340 483 q 285 585 340 585 q 231 483 231 585 l 231 255 m 254 826 l 76 1017 l 270 1017 l 410 826 l 254 826 z "},"ó":{"ha":571,"x_min":47,"x_max":525,"o":"m 286 -11 q 109 52 170 -11 q 47 260 47 115 l 47 477 q 109 686 47 623 q 286 750 170 750 q 465 686 406 750 q 525 477 525 623 l 525 260 q 465 52 525 115 q 286 -11 406 -11 m 231 255 q 285 153 231 153 q 340 255 340 153 l 340 483 q 285 585 340 585 q 231 483 231 585 l 231 255 m 164 826 l 305 1017 l 499 1017 l 321 826 l 164 826 z "},"ô":{"ha":571,"x_min":47,"x_max":525,"o":"m 286 -11 q 109 52 170 -11 q 47 260 47 115 l 47 477 q 109 686 47 623 q 286 750 170 750 q 465 686 406 750 q 525 477 525 623 l 525 260 q 465 52 525 115 q 286 -11 406 -11 m 231 255 q 285 153 231 153 q 340 255 340 153 l 340 483 q 285 585 340 585 q 231 483 231 585 l 231 255 m 79 818 l 221 1027 l 345 1027 l 488 818 l 358 818 l 285 925 l 209 818 l 79 818 z "},"õ":{"ha":571,"x_min":47,"x_max":525,"o":"m 286 -11 q 109 52 170 -11 q 47 260 47 115 l 47 477 q 109 686 47 623 q 286 750 170 750 q 465 686 406 750 q 525 477 525 623 l 525 260 q 465 52 525 115 q 286 -11 406 -11 m 231 255 q 285 153 231 153 q 340 255 340 153 l 340 483 q 285 585 340 585 q 231 483 231 585 l 231 255 m 125 827 l 125 966 q 173 1007 152 997 q 220 1017 194 1017 q 258 1011 241 1017 q 294 990 274 1005 q 326 975 313 981 q 355 968 338 968 q 391 978 377 968 q 444 1024 406 987 l 444 886 q 397 844 415 854 q 350 833 380 833 q 311 840 327 833 q 277 860 296 846 q 246 876 259 871 q 213 882 233 882 q 174 871 191 882 q 125 827 157 861 z "},"ö":{"ha":571,"x_min":47,"x_max":525,"o":"m 286 -11 q 109 52 170 -11 q 47 260 47 115 l 47 477 q 109 686 47 623 q 286 750 170 750 q 465 686 406 750 q 525 477 525 623 l 525 260 q 465 52 525 115 q 286 -11 406 -11 m 231 255 q 285 153 231 153 q 340 255 340 153 l 340 483 q 285 585 340 585 q 231 483 231 585 l 231 255 m 106 826 l 106 998 l 243 998 l 243 826 l 106 826 m 326 826 l 326 998 l 463 998 l 463 826 l 326 826 z "},"÷":{"ha":582,"x_min":41,"x_max":540,"o":"m 41 294 l 41 471 l 540 471 l 540 294 l 41 294 m 289 52 q 222 80 248 52 q 195 146 195 109 q 222 214 195 186 q 289 243 248 243 q 358 213 330 243 q 387 146 387 183 q 357 79 387 107 q 289 52 328 52 m 289 528 q 222 557 248 528 q 195 625 195 587 q 221 692 195 665 q 289 719 247 719 q 358 690 330 719 q 387 625 387 662 q 357 557 387 586 q 289 528 328 528 z "},"ø":{"ha":571,"x_min":47,"x_max":525,"o":"m 47 -41 l 98 64 q 47 260 47 130 l 47 477 q 109 686 47 623 q 286 750 170 750 q 418 723 366 750 l 444 776 l 525 776 l 475 674 q 525 477 525 608 l 525 260 q 465 52 525 115 q 286 -11 406 -11 q 156 16 208 -11 l 129 -41 l 47 -41 m 231 336 l 332 548 q 285 585 320 585 q 231 483 231 585 l 231 336 m 340 396 l 240 189 q 285 153 252 153 q 340 255 340 153 l 340 396 z "},"ù":{"ha":566,"x_min":49,"x_max":518,"o":"m 283 -11 q 139 18 190 -11 q 68 106 88 47 q 49 254 49 165 l 49 739 l 232 739 l 232 278 q 239 180 232 208 q 283 153 245 153 q 329 179 323 153 q 335 262 335 205 q 335 270 335 266 q 335 278 335 274 l 335 739 l 518 739 l 518 254 q 498 103 518 161 q 428 17 479 45 q 283 -11 377 -11 m 252 826 l 75 1017 l 269 1017 l 408 826 l 252 826 z "},"ú":{"ha":566,"x_min":49,"x_max":518,"o":"m 283 -11 q 139 18 190 -11 q 68 106 88 47 q 49 254 49 165 l 49 739 l 232 739 l 232 278 q 239 180 232 208 q 283 153 245 153 q 329 179 323 153 q 335 262 335 205 q 335 270 335 266 q 335 278 335 274 l 335 739 l 518 739 l 518 254 q 498 103 518 161 q 428 17 479 45 q 283 -11 377 -11 m 163 826 l 304 1017 l 498 1017 l 320 826 l 163 826 z "},"û":{"ha":566,"x_min":49,"x_max":518,"o":"m 283 -11 q 139 18 190 -11 q 68 106 88 47 q 49 254 49 165 l 49 739 l 232 739 l 232 278 q 239 180 232 208 q 283 153 245 153 q 329 179 323 153 q 335 262 335 205 q 335 270 335 266 q 335 278 335 274 l 335 739 l 518 739 l 518 254 q 498 103 518 161 q 428 17 479 45 q 283 -11 377 -11 m 77 818 l 220 1027 l 343 1027 l 487 818 l 357 818 l 283 925 l 208 818 l 77 818 z "},"ü":{"ha":566,"x_min":49,"x_max":518,"o":"m 283 -11 q 139 18 190 -11 q 68 106 88 47 q 49 254 49 165 l 49 739 l 232 739 l 232 278 q 239 180 232 208 q 283 153 245 153 q 329 179 323 153 q 335 262 335 205 q 335 270 335 266 q 335 278 335 274 l 335 739 l 518 739 l 518 254 q 498 103 518 161 q 428 17 479 45 q 283 -11 377 -11 m 104 826 l 104 998 l 241 998 l 241 826 l 104 826 m 324 826 l 324 998 l 461 998 l 461 826 l 324 826 z "},"ý":{"ha":585,"x_min":14,"x_max":572,"o":"m 69 -221 l 69 -60 l 140 -60 q 189 -55 168 -60 q 220 -45 210 -50 l 14 739 l 216 739 l 302 327 l 381 739 l 572 739 l 377 -47 q 325 -158 361 -121 q 228 -208 289 -195 q 72 -221 167 -221 l 69 -221 m 172 826 l 313 1017 l 507 1017 l 330 826 l 172 826 z "},"þ":{"ha":567,"x_min":49,"x_max":521,"o":"m 49 -222 l 49 959 l 232 959 l 232 685 q 351 750 267 750 q 475 695 429 750 q 521 515 521 640 l 521 224 q 472 45 521 100 q 347 -11 423 -11 q 282 3 312 -11 q 225 47 252 16 l 225 -222 l 49 -222 m 229 255 q 283 153 229 153 q 324 176 311 153 q 338 255 338 198 l 338 483 q 323 562 338 540 q 283 585 309 585 q 243 562 258 585 q 229 483 229 538 l 229 255 z "},"ÿ":{"ha":585,"x_min":14,"x_max":572,"o":"m 69 -221 l 69 -60 l 140 -60 q 189 -55 168 -60 q 220 -45 210 -50 l 14 739 l 216 739 l 302 327 l 381 739 l 572 739 l 377 -47 q 325 -158 361 -121 q 228 -208 289 -195 q 72 -221 167 -221 l 69 -221 m 114 826 l 114 998 l 251 998 l 251 826 l 114 826 m 334 826 l 334 998 l 471 998 l 471 826 l 334 826 z "},"Ā":{"ha":684,"x_min":7,"x_max":677,"o":"m 7 0 l 247 959 l 438 959 l 677 0 l 476 0 l 445 167 l 240 167 l 209 0 l 7 0 m 275 342 l 411 342 l 343 703 l 275 342 m 175 1084 l 175 1248 l 507 1248 l 507 1084 l 175 1084 z "},"ā":{"ha":563,"x_min":38,"x_max":517,"o":"m 222 -11 q 84 50 130 -11 q 38 220 38 110 q 103 381 38 326 q 288 437 168 437 l 332 437 l 332 524 q 319 570 332 553 q 279 587 305 587 q 241 572 256 587 q 227 528 227 557 l 227 517 l 57 517 l 57 519 q 121 692 57 635 q 285 750 184 750 q 456 684 395 750 q 517 509 517 618 l 517 0 l 346 0 l 346 60 q 288 4 312 19 q 222 -11 264 -11 m 221 228 q 278 148 221 148 q 317 169 301 148 q 332 224 332 190 l 332 311 l 311 311 q 243 292 264 311 q 221 228 221 273 m 115 830 l 115 994 l 448 994 l 448 830 l 115 830 z "},"Ă":{"ha":684,"x_min":7,"x_max":677,"o":"m 7 0 l 247 959 l 438 959 l 677 0 l 476 0 l 445 167 l 240 167 l 209 0 l 7 0 m 275 342 l 411 342 l 343 703 l 275 342 m 342 1031 q 214 1078 258 1031 q 170 1213 170 1126 l 170 1237 l 270 1237 l 270 1217 q 288 1140 270 1158 q 342 1122 305 1122 q 396 1140 378 1122 q 414 1217 414 1158 l 414 1237 l 514 1237 l 514 1213 q 470 1078 514 1126 q 342 1031 426 1031 z "},"ă":{"ha":563,"x_min":38,"x_max":517,"o":"m 222 -11 q 84 50 130 -11 q 38 220 38 110 q 103 381 38 326 q 288 437 168 437 l 332 437 l 332 524 q 319 570 332 553 q 279 587 305 587 q 241 572 256 587 q 227 528 227 557 l 227 517 l 57 517 l 57 519 q 121 692 57 635 q 285 750 184 750 q 456 684 395 750 q 517 509 517 618 l 517 0 l 346 0 l 346 60 q 288 4 312 19 q 222 -11 264 -11 m 221 228 q 278 148 221 148 q 317 169 301 148 q 332 224 332 190 l 332 311 l 311 311 q 243 292 264 311 q 221 228 221 273 m 282 777 q 154 825 198 777 q 110 959 110 872 l 110 983 l 210 983 l 210 963 q 228 886 210 905 q 282 868 245 868 q 336 886 319 868 q 354 963 354 905 l 354 983 l 454 983 l 454 959 q 410 825 454 872 q 282 777 366 777 z "},"Ą":{"ha":684,"x_min":7,"x_max":677,"o":"m 7 0 l 247 959 l 438 959 l 677 0 l 476 0 l 445 167 l 240 167 l 209 0 l 7 0 m 275 342 l 411 342 l 343 703 l 275 342 m 617 -296 q 511 -271 559 -293 q 429 -199 464 -248 q 376 -76 392 -153 l 509 23 l 617 23 l 617 1 l 507 -83 q 545 -115 526 -111 q 589 -118 563 -119 q 602 -118 595 -118 q 617 -118 609 -118 l 617 -296 z "},"ą":{"ha":563,"x_min":38,"x_max":517,"o":"m 222 -11 q 84 50 130 -11 q 38 220 38 110 q 103 381 38 326 q 288 437 168 437 l 332 437 l 332 524 q 319 570 332 553 q 279 587 305 587 q 241 572 256 587 q 227 528 227 557 l 227 517 l 57 517 l 57 519 q 121 692 57 635 q 285 750 184 750 q 456 684 395 750 q 517 509 517 618 l 517 0 l 346 0 l 346 60 q 288 4 312 19 q 222 -11 264 -11 m 221 228 q 278 148 221 148 q 317 169 301 148 q 332 224 332 190 l 332 311 l 311 311 q 243 292 264 311 q 221 228 221 273 m 515 -297 q 410 -272 457 -294 q 327 -201 362 -250 q 274 -77 290 -155 l 407 22 l 515 22 l 515 0 l 406 -84 q 443 -117 425 -113 q 487 -119 461 -121 q 500 -119 494 -119 q 515 -119 507 -119 l 515 -297 z "},"Ć":{"ha":646,"x_min":46,"x_max":598,"o":"m 317 -11 q 119 57 193 -11 q 46 259 46 125 l 46 701 q 124 903 46 834 q 330 972 202 972 q 526 902 453 972 q 598 692 598 831 l 598 656 l 404 656 l 404 690 q 382 771 404 745 q 324 798 359 798 q 258 765 277 798 q 240 669 240 732 l 240 285 q 324 163 240 164 q 384 191 363 163 q 404 271 404 220 l 404 300 l 598 300 l 598 270 q 562 114 598 176 q 462 20 525 52 q 317 -11 399 -11 m 203 1080 l 345 1271 l 538 1271 l 361 1080 l 203 1080 z "},"ć":{"ha":563,"x_min":47,"x_max":517,"o":"m 286 -11 q 108 52 168 -11 q 47 260 47 115 l 47 477 q 109 686 47 623 q 286 750 170 750 q 458 690 399 750 q 517 507 517 629 l 517 476 l 340 476 l 340 505 q 286 585 340 585 q 231 483 231 585 l 231 255 q 285 153 231 153 q 326 173 312 153 q 340 236 340 193 l 340 260 l 517 260 l 517 236 q 458 50 517 111 q 286 -11 399 -11 m 161 826 l 302 1017 l 496 1017 l 319 826 l 161 826 z "},"Ĉ":{"ha":646,"x_min":46,"x_max":598,"o":"m 317 -11 q 119 57 193 -11 q 46 259 46 125 l 46 701 q 124 903 46 834 q 330 972 202 972 q 526 902 453 972 q 598 692 598 831 l 598 656 l 404 656 l 404 690 q 382 771 404 745 q 324 798 359 798 q 258 765 277 798 q 240 669 240 732 l 240 285 q 324 163 240 164 q 384 191 363 163 q 404 271 404 220 l 404 300 l 598 300 l 598 270 q 562 114 598 176 q 462 20 525 52 q 317 -11 399 -11 m 118 1042 l 260 1251 l 384 1251 l 528 1042 l 397 1042 l 324 1149 l 248 1042 l 118 1042 z "},"ĉ":{"ha":563,"x_min":47,"x_max":517,"o":"m 286 -11 q 108 52 168 -11 q 47 260 47 115 l 47 477 q 109 686 47 623 q 286 750 170 750 q 458 690 399 750 q 517 507 517 629 l 517 476 l 340 476 l 340 505 q 286 585 340 585 q 231 483 231 585 l 231 255 q 285 153 231 153 q 326 173 312 153 q 340 236 340 193 l 340 260 l 517 260 l 517 236 q 458 50 517 111 q 286 -11 399 -11 m 72 818 l 214 1027 l 338 1027 l 481 818 l 351 818 l 278 925 l 202 818 l 72 818 z "},"Ċ":{"ha":646,"x_min":46,"x_max":598,"o":"m 317 -11 q 119 57 193 -11 q 46 259 46 125 l 46 701 q 124 903 46 834 q 330 972 202 972 q 526 902 453 972 q 598 692 598 831 l 598 656 l 404 656 l 404 690 q 382 771 404 745 q 324 798 359 798 q 258 765 277 798 q 240 669 240 732 l 240 285 q 324 163 240 164 q 384 191 363 163 q 404 271 404 220 l 404 300 l 598 300 l 598 270 q 562 114 598 176 q 462 20 525 52 q 317 -11 399 -11 m 233 1090 l 233 1230 l 426 1230 l 426 1090 l 233 1090 z "},"ċ":{"ha":563,"x_min":47,"x_max":517,"o":"m 286 -11 q 108 52 168 -11 q 47 260 47 115 l 47 477 q 109 686 47 623 q 286 750 170 750 q 458 690 399 750 q 517 507 517 629 l 517 476 l 340 476 l 340 505 q 286 585 340 585 q 231 483 231 585 l 231 255 q 285 153 231 153 q 326 173 312 153 q 340 236 340 193 l 340 260 l 517 260 l 517 236 q 458 50 517 111 q 286 -11 399 -11 m 191 837 l 191 977 l 384 977 l 384 837 l 191 837 z "},"Č":{"ha":646,"x_min":46,"x_max":598,"o":"m 317 -11 q 119 57 193 -11 q 46 259 46 125 l 46 701 q 124 903 46 834 q 330 972 202 972 q 526 902 453 972 q 598 692 598 831 l 598 656 l 404 656 l 404 690 q 382 771 404 745 q 324 798 359 798 q 258 765 277 798 q 240 669 240 732 l 240 285 q 324 163 240 164 q 384 191 363 163 q 404 271 404 220 l 404 300 l 598 300 l 598 270 q 562 114 598 176 q 462 20 525 52 q 317 -11 399 -11 m 259 1058 l 118 1264 l 247 1264 l 323 1161 l 396 1264 l 526 1264 l 382 1058 l 259 1058 z "},"č":{"ha":563,"x_min":47,"x_max":517,"o":"m 286 -11 q 108 52 168 -11 q 47 260 47 115 l 47 477 q 109 686 47 623 q 286 750 170 750 q 458 690 399 750 q 517 507 517 629 l 517 476 l 340 476 l 340 505 q 286 585 340 585 q 231 483 231 585 l 231 255 q 285 153 231 153 q 326 173 312 153 q 340 236 340 193 l 340 260 l 517 260 l 517 236 q 458 50 517 111 q 286 -11 399 -11 m 218 804 l 77 1010 l 206 1010 l 282 907 l 355 1010 l 486 1010 l 342 804 l 218 804 z "},"Ď":{"ha":636,"x_min":50,"x_max":590,"o":"m 50 0 l 50 959 l 321 959 q 516 890 442 959 q 590 689 590 822 l 590 270 q 513 70 590 140 q 309 0 435 0 l 50 0 m 243 174 l 316 174 q 376 205 355 174 q 396 296 396 237 l 396 652 q 316 783 396 783 l 243 783 l 243 174 m 255 1058 l 114 1264 l 243 1264 l 319 1161 l 392 1264 l 522 1264 l 378 1058 l 255 1058 z "},"ď":{"ha":731,"x_min":47,"x_max":587,"o":"m 224 -11 q 96 45 145 -11 q 47 224 47 102 l 47 515 q 94 694 47 639 q 220 750 141 750 q 290 733 258 750 q 338 685 321 716 l 338 959 l 521 959 l 521 0 l 346 0 l 346 47 q 224 -11 292 -11 m 231 255 q 244 177 231 201 q 288 153 258 153 q 342 255 342 153 l 342 483 q 328 562 342 538 q 286 585 315 585 q 243 561 256 585 q 231 483 231 537 l 231 255 m 452 629 l 452 959 l 587 959 l 587 750 l 452 629 z "},"Đ":{"ha":659,"x_min":22,"x_max":614,"o":"m 73 0 l 73 408 l 22 408 l 22 582 l 73 582 l 73 959 l 345 959 q 541 890 468 959 q 614 689 614 822 l 614 270 q 536 69 614 138 q 334 0 457 0 l 73 0 m 266 174 l 339 174 q 399 206 378 174 q 420 296 420 239 l 420 652 q 339 783 420 783 l 266 783 l 266 582 l 376 582 l 376 408 l 266 408 l 266 174 z "},"đ":{"ha":567,"x_min":47,"x_max":586,"o":"m 254 799 l 254 891 l 338 891 l 338 959 l 521 959 l 521 891 l 586 891 l 586 799 l 521 799 l 521 0 l 346 0 l 346 47 q 224 -11 292 -11 q 96 45 145 -11 q 47 224 47 102 l 47 515 q 94 694 47 639 q 220 750 141 750 q 290 733 258 750 q 338 685 321 716 l 338 799 l 254 799 m 231 255 q 244 177 231 201 q 288 153 258 153 q 342 255 342 153 l 342 483 q 328 562 342 538 q 286 585 315 585 q 243 561 256 585 q 231 483 231 537 l 231 255 z "},"Ē":{"ha":509,"x_min":50,"x_max":477,"o":"m 50 0 l 50 959 l 477 959 l 477 783 l 243 783 l 243 575 l 446 575 l 446 400 l 243 400 l 243 174 l 477 174 l 477 0 l 50 0 m 87 1084 l 87 1248 l 419 1248 l 419 1084 l 87 1084 z "},"ē":{"ha":571,"x_min":47,"x_max":525,"o":"m 286 -11 q 111 56 174 -11 q 47 288 47 123 l 47 449 q 105 679 47 608 q 282 750 163 750 q 461 677 397 750 q 525 449 525 605 l 525 302 l 231 302 l 231 241 q 244 175 231 199 q 285 151 258 151 q 342 227 342 151 l 342 235 l 518 235 l 518 225 q 458 48 518 107 q 286 -11 399 -11 m 231 434 l 340 434 l 340 481 q 328 560 340 536 q 285 585 315 585 q 231 483 231 585 l 231 434 m 119 830 l 119 994 l 452 994 l 452 830 l 119 830 z "},"Ĕ":{"ha":509,"x_min":50,"x_max":477,"o":"m 50 0 l 50 959 l 477 959 l 477 783 l 243 783 l 243 575 l 446 575 l 446 400 l 243 400 l 243 174 l 477 174 l 477 0 l 50 0 m 292 1017 q 163 1065 208 1017 q 119 1199 119 1112 l 119 1223 l 220 1223 l 220 1203 q 237 1126 220 1145 q 292 1108 255 1108 q 346 1126 328 1108 q 363 1203 363 1145 l 363 1223 l 464 1223 l 464 1199 q 420 1065 464 1112 q 292 1017 376 1017 z "},"ĕ":{"ha":571,"x_min":47,"x_max":525,"o":"m 286 -11 q 111 56 174 -11 q 47 288 47 123 l 47 449 q 105 679 47 608 q 282 750 163 750 q 461 677 397 750 q 525 449 525 605 l 525 302 l 231 302 l 231 241 q 244 175 231 199 q 285 151 258 151 q 342 227 342 151 l 342 235 l 518 235 l 518 225 q 458 48 518 107 q 286 -11 399 -11 m 231 434 l 340 434 l 340 481 q 328 560 340 536 q 285 585 315 585 q 231 483 231 585 l 231 434 m 286 793 q 158 841 202 793 q 114 975 114 888 l 114 1000 l 214 1000 l 214 979 q 232 903 214 921 q 286 884 250 884 q 340 903 323 884 q 358 979 358 921 l 358 1000 l 458 1000 l 458 975 q 414 841 458 888 q 286 793 370 793 z "},"Ė":{"ha":509,"x_min":50,"x_max":477,"o":"m 50 0 l 50 959 l 477 959 l 477 783 l 243 783 l 243 575 l 446 575 l 446 400 l 243 400 l 243 174 l 477 174 l 477 0 l 50 0 m 163 1090 l 163 1230 l 355 1230 l 355 1090 l 163 1090 z "},"ė":{"ha":571,"x_min":47,"x_max":525,"o":"m 286 -11 q 111 56 174 -11 q 47 288 47 123 l 47 449 q 105 679 47 608 q 282 750 163 750 q 461 677 397 750 q 525 449 525 605 l 525 302 l 231 302 l 231 241 q 244 175 231 199 q 285 151 258 151 q 342 227 342 151 l 342 235 l 518 235 l 518 225 q 458 48 518 107 q 286 -11 399 -11 m 231 434 l 340 434 l 340 481 q 328 560 340 536 q 285 585 315 585 q 231 483 231 585 l 231 434 m 195 837 l 195 977 l 388 977 l 388 837 l 195 837 z "},"Ę":{"ha":509,"x_min":50,"x_max":477,"o":"m 50 0 l 50 959 l 477 959 l 477 783 l 243 783 l 243 575 l 446 575 l 446 400 l 243 400 l 243 174 l 477 174 l 477 0 l 50 0 m 476 -296 q 370 -271 418 -293 q 288 -199 323 -248 q 235 -76 251 -153 l 368 23 l 476 23 l 476 1 l 366 -83 q 404 -115 385 -111 q 448 -118 422 -119 q 461 -118 454 -118 q 476 -118 468 -118 l 476 -296 z "},"ę":{"ha":571,"x_min":47,"x_max":525,"o":"m 427 -296 q 321 -271 369 -293 q 239 -199 274 -248 q 186 -76 202 -153 l 273 -11 q 106 61 165 -7 q 47 288 47 129 l 47 449 q 105 679 47 608 q 282 750 163 750 q 461 677 397 750 q 525 449 525 605 l 525 302 l 231 302 l 231 241 q 244 175 231 199 q 285 151 258 151 q 342 227 342 151 l 342 235 l 518 235 l 518 225 q 414 15 518 69 l 317 -83 q 355 -115 336 -111 q 399 -118 373 -119 q 412 -118 406 -118 q 427 -118 419 -118 l 427 -296 m 231 434 l 340 434 l 340 481 q 328 560 340 536 q 285 585 315 585 q 231 483 231 585 l 231 434 z "},"Ě":{"ha":509,"x_min":50,"x_max":477,"o":"m 50 0 l 50 959 l 477 959 l 477 783 l 243 783 l 243 575 l 446 575 l 446 400 l 243 400 l 243 174 l 477 174 l 477 0 l 50 0 m 199 1058 l 58 1264 l 187 1264 l 263 1161 l 336 1264 l 467 1264 l 323 1058 l 199 1058 z "},"ě":{"ha":571,"x_min":47,"x_max":525,"o":"m 286 -11 q 111 56 174 -11 q 47 288 47 123 l 47 449 q 105 679 47 608 q 282 750 163 750 q 461 677 397 750 q 525 449 525 605 l 525 302 l 231 302 l 231 241 q 244 175 231 199 q 285 151 258 151 q 342 227 342 151 l 342 235 l 518 235 l 518 225 q 458 48 518 107 q 286 -11 399 -11 m 231 434 l 340 434 l 340 481 q 328 560 340 536 q 285 585 315 585 q 231 483 231 585 l 231 434 m 221 804 l 80 1010 l 209 1010 l 285 907 l 358 1010 l 488 1010 l 345 804 l 221 804 z "},"Ĝ":{"ha":646,"x_min":46,"x_max":598,"o":"m 317 -11 q 119 57 193 -11 q 46 259 46 125 l 46 701 q 124 903 46 834 q 330 972 202 972 q 526 903 453 972 q 598 701 598 834 l 598 669 l 404 669 l 404 701 q 380 773 404 749 q 324 798 355 798 q 258 765 277 798 q 240 669 240 732 l 240 285 q 324 163 240 165 q 386 194 368 163 q 404 275 404 225 l 404 368 l 323 368 l 323 518 l 598 518 l 598 260 q 519 60 598 132 q 317 -11 441 -11 m 127 1042 l 270 1251 l 393 1251 l 537 1042 l 407 1042 l 334 1149 l 258 1042 l 127 1042 z "},"ĝ":{"ha":567,"x_min":47,"x_max":521,"o":"m 286 -236 q 123 -182 182 -236 q 61 -18 64 -127 l 232 -18 q 289 -79 231 -79 q 330 -61 315 -79 q 346 -14 346 -43 l 346 119 q 224 61 292 61 q 96 117 145 61 q 47 297 47 174 l 47 514 q 94 694 47 639 q 220 750 141 750 q 290 733 258 750 q 338 685 321 716 l 338 739 l 521 739 l 521 4 q 457 -172 521 -109 q 286 -236 393 -236 m 231 330 q 243 251 231 277 q 288 225 256 225 q 342 330 342 227 l 342 483 q 328 562 342 538 q 286 585 315 585 q 243 559 256 585 q 231 481 231 534 l 231 330 m 49 818 l 191 1027 l 315 1027 l 458 818 l 328 818 l 255 925 l 179 818 l 49 818 z "},"Ğ":{"ha":646,"x_min":46,"x_max":598,"o":"m 317 -11 q 119 57 193 -11 q 46 259 46 125 l 46 701 q 124 903 46 834 q 330 972 202 972 q 526 903 453 972 q 598 701 598 834 l 598 669 l 404 669 l 404 701 q 380 773 404 749 q 324 798 355 798 q 258 765 277 798 q 240 669 240 732 l 240 285 q 324 163 240 165 q 386 194 368 163 q 404 275 404 225 l 404 368 l 323 368 l 323 518 l 598 518 l 598 260 q 519 60 598 132 q 317 -11 441 -11 m 323 1023 q 195 1070 239 1023 q 151 1204 151 1118 l 151 1229 l 251 1229 l 251 1208 q 269 1132 251 1150 q 323 1114 286 1114 q 377 1132 359 1114 q 395 1208 395 1150 l 395 1229 l 495 1229 l 495 1204 q 451 1070 495 1118 q 323 1023 407 1023 z "},"ğ":{"ha":567,"x_min":47,"x_max":521,"o":"m 286 -236 q 123 -182 182 -236 q 61 -18 64 -127 l 232 -18 q 289 -79 231 -79 q 330 -61 315 -79 q 346 -14 346 -43 l 346 119 q 224 61 292 61 q 96 117 145 61 q 47 297 47 174 l 47 514 q 94 694 47 639 q 220 750 141 750 q 290 733 258 750 q 338 685 321 716 l 338 739 l 521 739 l 521 4 q 457 -172 521 -109 q 286 -236 393 -236 m 231 330 q 243 251 231 277 q 288 225 256 225 q 342 330 342 227 l 342 483 q 328 562 342 538 q 286 585 315 585 q 243 559 256 585 q 231 481 231 534 l 231 330 m 293 793 q 165 841 209 793 q 121 975 121 888 l 121 1000 l 221 1000 l 221 979 q 239 903 221 921 q 293 884 256 884 q 347 903 330 884 q 365 979 365 921 l 365 1000 l 465 1000 l 465 975 q 421 841 465 888 q 293 793 377 793 z "},"Ġ":{"ha":646,"x_min":46,"x_max":598,"o":"m 317 -11 q 119 57 193 -11 q 46 259 46 125 l 46 701 q 124 903 46 834 q 330 972 202 972 q 526 903 453 972 q 598 701 598 834 l 598 669 l 404 669 l 404 701 q 380 773 404 749 q 324 798 355 798 q 258 765 277 798 q 240 669 240 732 l 240 285 q 324 163 240 165 q 386 194 368 163 q 404 275 404 225 l 404 368 l 323 368 l 323 518 l 598 518 l 598 260 q 519 60 598 132 q 317 -11 441 -11 m 233 1090 l 233 1230 l 426 1230 l 426 1090 l 233 1090 z "},"ġ":{"ha":567,"x_min":47,"x_max":521,"o":"m 286 -236 q 123 -182 182 -236 q 61 -18 64 -127 l 232 -18 q 289 -79 231 -79 q 330 -61 315 -79 q 346 -14 346 -43 l 346 119 q 224 61 292 61 q 96 117 145 61 q 47 297 47 174 l 47 514 q 94 694 47 639 q 220 750 141 750 q 290 733 258 750 q 338 685 321 716 l 338 739 l 521 739 l 521 4 q 457 -172 521 -109 q 286 -236 393 -236 m 231 330 q 243 251 231 277 q 288 225 256 225 q 342 330 342 227 l 342 483 q 328 562 342 538 q 286 585 315 585 q 243 559 256 585 q 231 481 231 534 l 231 330 m 194 837 l 194 977 l 387 977 l 387 837 l 194 837 z "},"Ģ":{"ha":646,"x_min":46,"x_max":598,"o":"m 317 -11 q 119 57 193 -11 q 46 259 46 125 l 46 701 q 124 903 46 834 q 330 972 202 972 q 526 903 453 972 q 598 701 598 834 l 598 669 l 404 669 l 404 701 q 380 773 404 749 q 324 798 355 798 q 258 765 277 798 q 240 669 240 732 l 240 285 q 324 163 240 165 q 386 194 368 163 q 404 275 404 225 l 404 368 l 323 368 l 323 518 l 598 518 l 598 260 q 519 60 598 132 q 317 -11 441 -11 m 252 -235 l 252 -37 l 395 -37 l 395 -110 l 252 -235 z "},"ģ":{"ha":567,"x_min":47,"x_max":521,"o":"m 286 -236 q 123 -182 182 -236 q 61 -18 64 -127 l 232 -18 q 289 -79 231 -79 q 330 -61 315 -79 q 346 -14 346 -43 l 346 119 q 224 61 292 61 q 96 117 145 61 q 47 297 47 174 l 47 514 q 94 694 47 639 q 220 750 141 750 q 290 733 258 750 q 338 685 321 716 l 338 739 l 521 739 l 521 4 q 457 -172 521 -109 q 286 -236 393 -236 m 231 330 q 243 251 231 277 q 288 225 256 225 q 342 330 342 227 l 342 483 q 328 562 342 538 q 286 585 315 585 q 243 559 256 585 q 231 481 231 534 l 231 330 m 199 761 l 199 834 l 339 959 l 339 761 l 199 761 z "},"Ĥ":{"ha":631,"x_min":50,"x_max":581,"o":"m 50 0 l 50 959 l 244 959 l 244 575 l 387 575 l 387 959 l 581 959 l 581 0 l 387 0 l 387 400 l 244 400 l 244 0 l 50 0 m 109 1042 l 251 1251 l 374 1251 l 518 1042 l 388 1042 l 315 1149 l 239 1042 l 109 1042 z "},"ĥ":{"ha":566,"x_min":49,"x_max":518,"o":"m 49 0 l 49 959 l 232 959 l 232 697 q 340 750 285 750 q 477 692 437 750 q 518 525 518 635 l 518 0 l 335 0 l 335 525 q 321 570 335 555 q 283 585 307 585 q 232 525 232 585 l 232 0 l 49 0 m 92 1042 l 235 1251 l 358 1251 l 502 1042 l 372 1042 l 298 1149 l 222 1042 l 92 1042 z "},"Ħ":{"ha":631,"x_min":3,"x_max":624,"o":"m 3 705 l 3 879 l 50 879 l 50 959 l 244 959 l 244 879 l 387 879 l 387 959 l 581 959 l 581 879 l 624 879 l 624 705 l 581 705 l 581 0 l 387 0 l 387 400 l 244 400 l 244 0 l 50 0 l 50 705 l 3 705 m 387 705 l 244 705 l 244 575 l 387 575 l 387 705 z "},"ħ":{"ha":566,"x_min":-5,"x_max":518,"o":"m -5 814 l -5 906 l 49 906 l 49 959 l 232 959 l 232 906 l 377 906 l 377 814 l 232 814 l 232 697 q 340 750 285 750 q 477 692 437 750 q 518 525 518 635 l 518 0 l 335 0 l 335 525 q 321 570 335 555 q 283 585 307 585 q 232 525 232 585 l 232 0 l 49 0 l 49 814 l -5 814 z "},"Ĩ":{"ha":302,"x_min":-8,"x_max":311,"o":"m 54 0 l 54 959 l 247 959 l 247 0 l 54 0 m -8 1051 l -8 1190 q 40 1231 19 1221 q 87 1241 61 1241 q 125 1235 109 1241 q 161 1214 141 1229 q 193 1198 180 1204 q 222 1192 205 1192 q 258 1202 244 1192 q 311 1248 273 1211 l 311 1109 q 264 1067 282 1078 q 217 1057 247 1057 q 178 1063 194 1057 q 144 1084 163 1070 q 113 1100 126 1095 q 80 1105 100 1105 q 41 1095 58 1105 q -8 1051 24 1085 z "},"ĩ":{"ha":289,"x_min":-16,"x_max":302,"o":"m 53 0 l 53 739 l 237 739 l 237 0 l 53 0 m -16 827 l -16 966 q 32 1007 11 997 q 79 1017 53 1017 q 117 1011 100 1017 q 153 990 133 1005 q 184 975 172 981 q 214 968 197 968 q 250 978 236 968 q 302 1024 264 987 l 302 886 q 256 844 274 854 q 209 833 239 833 q 170 840 186 833 q 136 860 155 846 q 105 876 118 871 q 72 882 92 882 q 33 871 50 882 q -16 827 16 861 z "},"Ī":{"ha":302,"x_min":-15,"x_max":317,"o":"m 54 0 l 54 959 l 247 959 l 247 0 l 54 0 m -15 1084 l -15 1248 l 317 1248 l 317 1084 l -15 1084 z "},"ī":{"ha":288,"x_min":-23,"x_max":309,"o":"m 53 0 l 53 739 l 237 739 l 237 0 l 53 0 m -23 830 l -23 994 l 309 994 l 309 830 l -23 830 z "},"Ĭ":{"ha":302,"x_min":-20,"x_max":324,"o":"m 54 0 l 54 959 l 247 959 l 247 0 l 54 0 m 152 1017 q 24 1065 68 1017 q -20 1199 -20 1112 l -20 1223 l 80 1223 l 80 1203 q 98 1126 80 1145 q 152 1108 115 1108 q 206 1126 189 1108 q 224 1203 224 1145 l 224 1223 l 324 1223 l 324 1199 q 280 1065 324 1112 q 152 1017 236 1017 z "},"ĭ":{"ha":289,"x_min":-28,"x_max":316,"o":"m 53 0 l 53 739 l 237 739 l 237 0 l 53 0 m 144 793 q 16 841 60 793 q -28 975 -28 888 l -28 1000 l 72 1000 l 72 979 q 90 903 72 921 q 144 884 107 884 q 198 903 180 884 q 216 979 216 921 l 216 1000 l 316 1000 l 316 975 q 272 841 316 888 q 144 793 228 793 z "},"Į":{"ha":302,"x_min":5,"x_max":247,"o":"m 54 0 l 54 959 l 247 959 l 247 0 l 54 0 m 247 -296 q 141 -271 189 -293 q 58 -199 94 -248 q 5 -76 22 -153 l 138 23 l 247 23 l 247 1 l 137 -83 q 174 -115 156 -111 q 218 -118 193 -119 q 232 -118 225 -118 q 247 -118 239 -118 l 247 -296 z "},"į":{"ha":288,"x_min":-5,"x_max":237,"o":"m 53 0 l 53 739 l 237 739 l 237 0 l 53 0 m 53 821 l 53 959 l 236 959 l 236 821 l 53 821 m 237 -296 q 131 -271 178 -293 q 49 -199 84 -248 q 17 -145 30 -176 q -5 -76 4 -114 l 102 4 l 237 23 l 237 1 l 127 -83 q 164 -115 146 -111 q 208 -118 182 -119 q 222 -118 214 -118 q 237 -118 229 -118 l 237 -296 z "},"İ":{"ha":305,"x_min":53,"x_max":247,"o":"m 54 0 l 54 959 l 247 959 l 247 0 l 54 0 m 53 1108 l 53 1248 l 245 1248 l 245 1108 l 53 1108 z "},"ı":{"ha":289,"x_min":53,"x_max":237,"o":"m 53 0 l 53 739 l 237 739 l 237 0 l 53 0 z "},"Ĳ":{"ha":629,"x_min":50,"x_max":579,"o":"m 316 -11 q 136 53 209 -11 q 50 217 64 117 l 248 217 q 269 175 251 187 q 316 163 286 163 q 371 186 357 163 q 385 256 385 210 l 385 959 l 579 959 l 579 254 q 545 117 579 176 q 450 23 510 57 q 316 -11 391 -11 m 50 411 l 50 959 l 244 959 l 244 411 l 50 411 z "},"ĳ":{"ha":576,"x_min":47,"x_max":529,"o":"m 290 -236 q 125 -182 186 -236 q 61 -18 64 -127 l 231 -18 q 293 -79 231 -79 q 336 -61 319 -79 q 354 -14 354 -43 l 354 119 q 293 75 324 94 q 228 57 262 57 q 98 115 149 57 q 47 297 47 174 l 47 739 l 231 739 l 231 330 q 292 220 231 220 q 350 330 350 224 l 350 739 l 529 739 l 529 4 q 463 -172 529 -109 q 290 -236 397 -236 m 47 821 l 47 959 l 231 959 l 231 821 l 47 821 m 350 821 l 350 959 l 529 959 l 529 821 l 350 821 z "},"Ĵ":{"ha":370,"x_min":12,"x_max":422,"o":"m 19 0 l 19 176 l 37 176 q 122 262 122 176 l 122 959 l 316 959 l 316 240 q 49 0 316 0 l 19 0 m 12 1042 l 155 1251 l 278 1251 l 422 1042 l 292 1042 l 218 1149 l 142 1042 l 12 1042 z "},"ĵ":{"ha":290,"x_min":-61,"x_max":349,"o":"m -34 -222 l -34 -57 l -30 -57 q 56 28 56 -57 l 56 739 l 239 739 l 239 18 q -28 -222 239 -222 l -34 -222 m -61 818 l 81 1027 l 205 1027 l 349 818 l 218 818 l 145 925 l 69 818 l -61 818 z "},"Ķ":{"ha":639,"x_min":50,"x_max":633,"o":"m 50 0 l 50 959 l 243 959 l 243 534 l 411 959 l 604 959 l 415 563 l 633 0 l 429 0 l 305 339 l 243 203 l 243 0 l 50 0 m 248 -235 l 248 -37 l 391 -37 l 391 -110 l 248 -235 z "},"ķ":{"ha":587,"x_min":49,"x_max":575,"o":"m 49 0 l 49 959 l 232 959 l 232 465 l 385 739 l 575 739 l 387 448 l 575 0 l 374 0 l 274 270 l 232 206 l 232 0 l 49 0 m 221 -235 l 221 -37 l 363 -37 l 363 -110 l 221 -235 z "},"Ĺ":{"ha":498,"x_min":35,"x_max":477,"o":"m 50 0 l 50 959 l 244 959 l 244 174 l 477 174 l 477 0 l 50 0 m 35 1080 l 176 1271 l 370 1271 l 193 1080 l 35 1080 z "},"ĺ":{"ha":335,"x_min":46,"x_max":381,"o":"m 316 0 q 49 240 49 0 l 49 959 l 232 959 l 232 252 q 316 164 232 164 l 319 164 l 319 0 l 316 0 m 46 1080 l 187 1271 l 381 1271 l 203 1080 l 46 1080 z "},"Ļ":{"ha":498,"x_min":50,"x_max":477,"o":"m 50 0 l 50 959 l 244 959 l 244 174 l 477 174 l 477 0 l 50 0 m 178 -235 l 178 -37 l 320 -37 l 320 -110 l 178 -235 z "},"ļ":{"ha":335,"x_min":49,"x_max":319,"o":"m 316 0 q 49 240 49 0 l 49 959 l 232 959 l 232 252 q 316 164 232 164 l 319 164 l 319 0 l 316 0 m 95 -235 l 95 -37 l 237 -37 l 237 -110 l 95 -235 z "},"Ľ":{"ha":498,"x_min":50,"x_max":477,"o":"m 50 0 l 50 959 l 244 959 l 244 174 l 477 174 l 477 0 l 50 0 m 339 629 l 339 959 l 475 959 l 475 750 l 339 629 z "},"ľ":{"ha":422,"x_min":49,"x_max":465,"o":"m 316 0 q 49 240 49 0 l 49 959 l 232 959 l 232 252 q 316 164 232 164 l 319 164 l 319 0 l 316 0 m 330 629 l 330 959 l 465 959 l 465 750 l 330 629 z "},"Ł":{"ha":498,"x_min":26,"x_max":477,"o":"m 26 346 l 27 525 l 50 536 l 50 959 l 244 959 l 244 632 l 391 704 l 391 526 l 244 454 l 244 174 l 477 174 l 477 0 l 50 0 l 50 358 l 26 346 z "},"ł":{"ha":335,"x_min":24,"x_max":332,"o":"m 24 346 l 26 524 l 49 534 l 49 959 l 232 959 l 232 625 l 331 674 l 332 498 l 232 448 l 232 252 q 316 164 232 164 l 319 164 l 319 0 l 316 0 q 49 240 49 0 l 49 358 l 24 346 z "},"Ń":{"ha":644,"x_min":50,"x_max":594,"o":"m 50 0 l 50 959 l 244 959 l 400 492 l 400 959 l 594 959 l 594 0 l 400 0 l 244 437 l 244 0 l 50 0 m 201 1080 l 342 1271 l 536 1271 l 358 1080 l 201 1080 z "},"ń":{"ha":566,"x_min":49,"x_max":518,"o":"m 49 0 l 49 739 l 224 739 l 224 689 q 340 750 277 750 q 518 525 518 750 l 518 0 l 335 0 l 335 525 q 321 570 335 555 q 283 585 307 585 q 232 525 232 585 l 232 0 l 49 0 m 163 826 l 304 1017 l 498 1017 l 320 826 l 163 826 z "},"Ņ":{"ha":644,"x_min":50,"x_max":594,"o":"m 50 0 l 50 959 l 244 959 l 400 492 l 400 959 l 594 959 l 594 0 l 400 0 l 244 437 l 244 0 l 50 0 m 250 -235 l 250 -37 l 392 -37 l 392 -110 l 250 -235 z "},"ņ":{"ha":566,"x_min":49,"x_max":518,"o":"m 49 0 l 49 739 l 224 739 l 224 689 q 340 750 277 750 q 518 525 518 750 l 518 0 l 335 0 l 335 525 q 321 570 335 555 q 283 585 307 585 q 232 525 232 585 l 232 0 l 49 0 m 212 -235 l 212 -37 l 354 -37 l 354 -110 l 212 -235 z "},"Ň":{"ha":644,"x_min":50,"x_max":594,"o":"m 50 0 l 50 959 l 244 959 l 400 492 l 400 959 l 594 959 l 594 0 l 400 0 l 244 437 l 244 0 l 50 0 m 259 1058 l 118 1264 l 247 1264 l 323 1161 l 396 1264 l 526 1264 l 382 1058 l 259 1058 z "},"ň":{"ha":566,"x_min":49,"x_max":518,"o":"m 49 0 l 49 739 l 224 739 l 224 689 q 340 750 277 750 q 518 525 518 750 l 518 0 l 335 0 l 335 525 q 321 570 335 555 q 283 585 307 585 q 232 525 232 585 l 232 0 l 49 0 m 220 804 l 79 1010 l 208 1010 l 283 907 l 357 1010 l 487 1010 l 343 804 l 220 804 z "},"Ŋ":{"ha":644,"x_min":50,"x_max":594,"o":"m 324 -236 l 324 -73 l 327 -73 q 385 -56 369 -73 q 400 -1 400 -39 l 400 0 l 244 437 l 244 0 l 50 0 l 50 959 l 244 959 l 400 492 l 400 959 l 594 959 l 594 4 q 328 -236 594 -236 l 324 -236 z "},"ŋ":{"ha":566,"x_min":49,"x_max":518,"o":"m 248 -236 l 248 -73 l 251 -73 q 313 -57 293 -73 q 335 3 334 -41 l 335 525 q 321 570 335 555 q 283 585 307 585 q 232 525 232 585 l 232 0 l 49 0 l 49 739 l 224 739 l 224 689 q 340 750 277 750 q 518 525 518 750 l 518 4 q 251 -236 518 -236 l 248 -236 z "},"Ō":{"ha":646,"x_min":46,"x_max":598,"o":"m 317 -11 q 119 57 193 -11 q 46 259 46 125 l 46 701 q 125 903 46 833 q 331 972 203 972 q 524 904 450 972 q 598 701 598 836 l 598 259 q 519 60 598 130 q 317 -11 441 -11 m 240 285 q 324 163 240 165 q 382 195 361 163 q 404 285 404 228 l 404 669 q 386 764 404 731 q 324 798 368 798 q 258 765 277 798 q 240 669 240 732 l 240 285 m 157 1084 l 157 1248 l 490 1248 l 490 1084 l 157 1084 z "},"ō":{"ha":571,"x_min":47,"x_max":525,"o":"m 286 -11 q 109 52 170 -11 q 47 260 47 115 l 47 477 q 109 686 47 623 q 286 750 170 750 q 465 686 406 750 q 525 477 525 623 l 525 260 q 465 52 525 115 q 286 -11 406 -11 m 231 255 q 285 153 231 153 q 340 255 340 153 l 340 483 q 285 585 340 585 q 231 483 231 585 l 231 255 m 118 830 l 118 994 l 450 994 l 450 830 l 118 830 z "},"Ŏ":{"ha":646,"x_min":46,"x_max":598,"o":"m 317 -11 q 119 57 193 -11 q 46 259 46 125 l 46 701 q 125 903 46 833 q 331 972 203 972 q 524 904 450 972 q 598 701 598 836 l 598 259 q 519 60 598 130 q 317 -11 441 -11 m 240 285 q 324 163 240 165 q 382 195 361 163 q 404 285 404 228 l 404 669 q 386 764 404 731 q 324 798 368 798 q 258 765 277 798 q 240 669 240 732 l 240 285 m 331 1017 q 203 1065 247 1017 q 159 1199 159 1112 l 159 1223 l 259 1223 l 259 1203 q 277 1126 259 1145 q 331 1108 294 1108 q 385 1126 368 1108 q 403 1203 403 1145 l 403 1223 l 503 1223 l 503 1199 q 459 1065 503 1112 q 331 1017 415 1017 z "},"ŏ":{"ha":571,"x_min":47,"x_max":525,"o":"m 286 -11 q 109 52 170 -11 q 47 260 47 115 l 47 477 q 109 686 47 623 q 286 750 170 750 q 465 686 406 750 q 525 477 525 623 l 525 260 q 465 52 525 115 q 286 -11 406 -11 m 231 255 q 285 153 231 153 q 340 255 340 153 l 340 483 q 285 585 340 585 q 231 483 231 585 l 231 255 m 286 793 q 158 841 202 793 q 114 975 114 888 l 114 1000 l 214 1000 l 214 979 q 232 903 214 921 q 286 884 250 884 q 340 903 323 884 q 358 979 358 921 l 358 1000 l 458 1000 l 458 975 q 414 841 458 888 q 286 793 370 793 z "},"Ő":{"ha":646,"x_min":46,"x_max":690,"o":"m 317 -11 q 119 57 193 -11 q 46 259 46 125 l 46 701 q 125 903 46 833 q 331 972 203 972 q 524 904 450 972 q 598 701 598 836 l 598 259 q 519 60 598 130 q 317 -11 441 -11 m 240 285 q 324 163 240 165 q 382 195 361 163 q 404 285 404 228 l 404 669 q 386 764 404 731 q 324 798 368 798 q 258 765 277 798 q 240 669 240 732 l 240 285 m 110 1080 l 252 1271 l 446 1271 l 269 1080 l 110 1080 m 354 1080 l 496 1271 l 690 1271 l 513 1080 l 354 1080 z "},"ő":{"ha":571,"x_min":47,"x_max":652,"o":"m 286 -11 q 109 52 170 -11 q 47 260 47 115 l 47 477 q 109 686 47 623 q 286 750 170 750 q 465 686 406 750 q 525 477 525 623 l 525 260 q 465 52 525 115 q 286 -11 406 -11 m 231 255 q 285 153 231 153 q 340 255 340 153 l 340 483 q 285 585 340 585 q 231 483 231 585 l 231 255 m 72 826 l 214 1017 l 408 1017 l 231 826 l 72 826 m 316 826 l 458 1017 l 652 1017 l 475 826 l 316 826 z "},"Œ":{"ha":871,"x_min":46,"x_max":841,"o":"m 290 -11 q 46 259 46 -11 l 46 701 q 111 903 46 834 q 301 972 175 972 q 434 937 370 972 l 434 959 l 841 959 l 841 783 l 600 783 l 600 575 l 808 575 l 808 400 l 600 400 l 600 174 l 841 174 l 841 0 l 434 0 l 434 33 q 290 -11 369 -11 m 240 285 q 324 163 240 165 q 384 195 363 163 q 404 285 404 227 l 404 667 q 386 764 404 730 q 324 798 368 798 q 258 764 277 798 q 240 667 240 731 l 240 285 z "},"œ":{"ha":865,"x_min":47,"x_max":818,"o":"m 286 -11 q 109 52 170 -11 q 47 260 47 115 l 47 477 q 109 686 47 623 q 286 750 170 750 q 437 715 377 750 q 575 750 491 750 q 753 677 689 750 q 818 449 818 605 l 818 301 l 525 301 l 525 241 q 538 175 525 199 q 579 151 551 151 q 635 227 635 151 l 635 235 l 811 235 l 811 225 q 579 -11 811 -11 q 437 24 491 -11 q 286 -11 378 -11 m 231 255 q 285 153 231 153 q 340 255 340 153 l 340 483 q 285 585 340 585 q 231 483 231 585 l 231 255 m 525 433 l 635 433 l 635 481 q 621 560 635 536 q 578 585 608 585 q 525 483 525 585 l 525 433 z "},"Ŕ":{"ha":636,"x_min":50,"x_max":612,"o":"m 50 0 l 50 959 l 315 959 q 520 889 461 959 q 579 667 579 819 q 555 510 579 575 q 476 410 532 445 l 612 0 l 410 0 l 301 374 l 244 374 l 244 0 l 50 0 m 244 547 l 312 547 q 370 576 354 547 q 385 667 385 606 q 372 755 385 724 q 312 785 359 785 l 244 785 l 244 547 m 198 1080 l 339 1271 l 533 1271 l 355 1080 l 198 1080 z "},"ŕ":{"ha":433,"x_min":49,"x_max":430,"o":"m 49 0 l 49 739 l 224 739 l 224 670 q 286 734 252 716 q 366 753 320 753 q 391 751 378 753 q 416 747 404 750 l 416 552 q 378 564 397 560 q 342 567 359 567 q 262 535 293 567 q 232 445 232 503 l 232 0 l 49 0 m 95 826 l 236 1017 l 430 1017 l 252 826 l 95 826 z "},"Ŗ":{"ha":636,"x_min":50,"x_max":612,"o":"m 50 0 l 50 959 l 315 959 q 520 889 461 959 q 579 667 579 819 q 555 510 579 575 q 476 410 532 445 l 612 0 l 410 0 l 301 374 l 244 374 l 244 0 l 50 0 m 244 547 l 312 547 q 370 576 354 547 q 385 667 385 606 q 372 755 385 724 q 312 785 359 785 l 244 785 l 244 547 m 247 -235 l 247 -37 l 389 -37 l 389 -110 l 247 -235 z "},"ŗ":{"ha":433,"x_min":49,"x_max":416,"o":"m 49 0 l 49 739 l 224 739 l 224 670 q 286 734 252 716 q 366 753 320 753 q 391 751 378 753 q 416 747 404 750 l 416 552 q 378 564 397 560 q 342 567 359 567 q 262 535 293 567 q 232 445 232 503 l 232 0 l 49 0 m 65 -235 l 65 -37 l 208 -37 l 208 -110 l 65 -235 z "},"Ř":{"ha":636,"x_min":50,"x_max":612,"o":"m 50 0 l 50 959 l 315 959 q 520 889 461 959 q 579 667 579 819 q 555 510 579 575 q 476 410 532 445 l 612 0 l 410 0 l 301 374 l 244 374 l 244 0 l 50 0 m 244 547 l 312 547 q 370 576 354 547 q 385 667 385 606 q 372 755 385 724 q 312 785 359 785 l 244 785 l 244 547 m 255 1058 l 114 1264 l 243 1264 l 319 1161 l 392 1264 l 522 1264 l 378 1058 l 255 1058 z "},"ř":{"ha":433,"x_min":12,"x_max":420,"o":"m 49 0 l 49 739 l 224 739 l 224 670 q 286 734 252 716 q 366 753 320 753 q 391 751 378 753 q 416 747 404 750 l 416 552 q 378 564 397 560 q 342 567 359 567 q 262 535 293 567 q 232 445 232 503 l 232 0 l 49 0 m 153 804 l 12 1010 l 141 1010 l 217 907 l 290 1010 l 420 1010 l 277 804 l 153 804 z "},"Ś":{"ha":591,"x_min":22,"x_max":559,"o":"m 288 -11 q 92 64 160 -11 q 22 278 24 138 l 205 278 q 292 155 206 155 q 353 182 335 155 q 370 269 370 209 q 347 347 370 316 q 270 403 324 378 l 202 435 q 71 538 111 479 q 31 705 31 598 q 101 899 31 825 q 294 974 171 974 q 479 901 414 974 q 548 690 545 827 l 372 690 q 355 778 370 749 q 296 807 339 807 q 218 715 218 807 q 238 642 218 669 q 304 595 258 616 l 369 567 q 514 453 469 521 q 559 271 559 385 q 487 62 559 136 q 288 -11 415 -11 m 175 1080 l 316 1271 l 510 1271 l 332 1080 l 175 1080 z "},"ś":{"ha":548,"x_min":38,"x_max":515,"o":"m 277 -11 q 102 50 165 -11 q 38 218 38 111 l 38 227 l 214 227 l 214 218 q 279 141 214 141 q 324 159 311 141 q 338 209 338 178 q 274 286 338 258 l 193 323 q 73 411 104 362 q 41 534 41 460 q 71 646 41 597 q 153 722 100 694 q 274 750 205 750 q 396 722 343 750 q 478 644 449 693 q 507 529 507 594 l 507 517 l 328 517 l 328 525 q 312 582 328 564 q 273 600 296 600 q 216 541 216 600 q 229 498 216 514 q 277 468 241 483 l 366 427 q 481 341 448 392 q 515 210 515 290 q 451 52 515 115 q 277 -11 387 -11 m 152 826 l 293 1017 l 487 1017 l 309 826 l 152 826 z "},"Ŝ":{"ha":591,"x_min":22,"x_max":559,"o":"m 288 -11 q 92 64 160 -11 q 22 278 24 138 l 205 278 q 292 155 206 155 q 353 182 335 155 q 370 269 370 209 q 347 347 370 316 q 270 403 324 378 l 202 435 q 71 538 111 479 q 31 705 31 598 q 101 899 31 825 q 294 974 171 974 q 479 901 414 974 q 548 690 545 827 l 372 690 q 355 778 370 749 q 296 807 339 807 q 218 715 218 807 q 238 642 218 669 q 304 595 258 616 l 369 567 q 514 453 469 521 q 559 271 559 385 q 487 62 559 136 q 288 -11 415 -11 m 88 1042 l 231 1251 l 354 1251 l 498 1042 l 368 1042 l 294 1149 l 218 1042 l 88 1042 z "},"ŝ":{"ha":548,"x_min":38,"x_max":515,"o":"m 277 -11 q 102 50 165 -11 q 38 218 38 111 l 38 227 l 214 227 l 214 218 q 279 141 214 141 q 324 159 311 141 q 338 209 338 178 q 274 286 338 258 l 193 323 q 73 411 104 362 q 41 534 41 460 q 71 646 41 597 q 153 722 100 694 q 274 750 205 750 q 396 722 343 750 q 478 644 449 693 q 507 529 507 594 l 507 517 l 328 517 l 328 525 q 312 582 328 564 q 273 600 296 600 q 216 541 216 600 q 229 498 216 514 q 277 468 241 483 l 366 427 q 481 341 448 392 q 515 210 515 290 q 451 52 515 115 q 277 -11 387 -11 m 65 818 l 208 1027 l 331 1027 l 475 818 l 345 818 l 271 925 l 195 818 l 65 818 z "},"Ş":{"ha":591,"x_min":22,"x_max":559,"o":"m 288 -11 q 92 64 160 -11 q 22 278 24 138 l 205 278 q 292 155 206 155 q 353 182 335 155 q 370 269 370 209 q 347 347 370 316 q 270 403 324 378 l 202 435 q 71 538 111 479 q 31 705 31 598 q 101 899 31 825 q 294 974 171 974 q 479 901 414 974 q 548 690 545 827 l 372 690 q 355 778 370 749 q 296 807 339 807 q 218 715 218 807 q 238 642 218 669 q 304 595 258 616 l 369 567 q 514 453 469 521 q 559 271 559 385 q 487 62 559 136 q 288 -11 415 -11 m 190 -222 l 292 12 l 426 12 l 342 -222 l 190 -222 z "},"ş":{"ha":548,"x_min":38,"x_max":515,"o":"m 277 -11 q 102 50 165 -11 q 38 218 38 111 l 38 227 l 214 227 l 214 218 q 279 141 214 141 q 324 159 311 141 q 338 209 338 178 q 274 286 338 258 l 193 323 q 73 411 104 362 q 41 534 41 460 q 71 646 41 597 q 153 722 100 694 q 274 750 205 750 q 396 722 343 750 q 478 644 449 693 q 507 529 507 594 l 507 517 l 328 517 l 328 525 q 312 582 328 564 q 273 600 296 600 q 216 541 216 600 q 229 498 216 514 q 277 468 241 483 l 366 427 q 481 341 448 392 q 515 210 515 290 q 451 52 515 115 q 277 -11 387 -11 m 164 -222 l 266 12 l 400 12 l 316 -222 l 164 -222 z "},"Š":{"ha":591,"x_min":22,"x_max":559,"o":"m 288 -11 q 92 64 160 -11 q 22 278 24 138 l 205 278 q 292 155 206 155 q 353 182 335 155 q 370 269 370 209 q 347 347 370 316 q 270 403 324 378 l 202 435 q 71 538 111 479 q 31 705 31 598 q 101 899 31 825 q 294 974 171 974 q 479 901 414 974 q 548 690 545 827 l 372 690 q 355 778 370 749 q 296 807 339 807 q 218 715 218 807 q 238 642 218 669 q 304 595 258 616 l 369 567 q 514 453 469 521 q 559 271 559 385 q 487 62 559 136 q 288 -11 415 -11 m 228 1029 l 87 1236 l 216 1236 l 292 1133 l 365 1236 l 495 1236 l 351 1029 l 228 1029 z "},"š":{"ha":548,"x_min":38,"x_max":515,"o":"m 277 -11 q 102 50 165 -11 q 38 218 38 111 l 38 227 l 214 227 l 214 218 q 279 141 214 141 q 324 159 311 141 q 338 209 338 178 q 274 286 338 258 l 193 323 q 73 411 104 362 q 41 534 41 460 q 71 646 41 597 q 153 722 100 694 q 274 750 205 750 q 396 722 343 750 q 478 644 449 693 q 507 529 507 594 l 507 517 l 328 517 l 328 525 q 312 582 328 564 q 273 600 296 600 q 216 541 216 600 q 229 498 216 514 q 277 468 241 483 l 366 427 q 481 341 448 392 q 515 210 515 290 q 451 52 515 115 q 277 -11 387 -11 m 212 810 l 71 1016 l 199 1016 l 275 913 l 349 1016 l 479 1016 l 335 810 l 212 810 z "},"Ţ":{"ha":511,"x_min":4,"x_max":509,"o":"m 161 0 l 161 783 l 4 783 l 4 959 l 509 959 l 509 783 l 354 783 l 354 0 l 161 0 m 102 -222 l 203 12 l 338 12 l 254 -222 l 102 -222 z "},"ţ":{"ha":422,"x_min":22,"x_max":395,"o":"m 373 0 q 170 58 239 0 q 102 241 102 117 l 102 613 l 22 613 l 22 739 l 102 739 l 102 861 l 285 933 l 285 739 l 395 739 l 395 613 l 285 613 l 285 252 q 373 164 285 164 l 373 0 m 374 0 l 373 0 l 373 0 q 374 0 373 0 m 141 -216 l 243 19 l 377 19 l 293 -216 l 141 -216 z "},"Ť":{"ha":511,"x_min":4,"x_max":509,"o":"m 161 0 l 161 783 l 4 783 l 4 959 l 509 959 l 509 783 l 354 783 l 354 0 l 161 0 m 193 1058 l 52 1264 l 180 1264 l 256 1161 l 330 1264 l 460 1264 l 316 1058 l 193 1058 z "},"ť":{"ha":487,"x_min":22,"x_max":487,"o":"m 373 0 q 170 58 239 0 q 102 241 102 117 l 102 613 l 22 613 l 22 739 l 102 739 l 102 861 l 285 933 l 285 739 l 395 739 l 395 613 l 285 613 l 285 252 q 373 164 285 164 l 373 0 m 374 0 l 373 0 l 373 0 q 374 0 373 0 m 351 720 l 351 1050 l 487 1050 l 487 841 l 351 720 z "},"Ŧ":{"ha":511,"x_min":4,"x_max":509,"o":"m 161 0 l 161 783 l 4 783 l 4 959 l 509 959 l 509 783 l 354 783 l 354 0 l 161 0 m 98 414 l 98 578 l 430 578 l 430 414 l 98 414 z "},"ŧ":{"ha":422,"x_min":22,"x_max":395,"o":"m 22 411 l 22 543 l 102 543 l 102 613 l 22 613 l 22 739 l 102 739 l 102 861 l 285 933 l 285 739 l 395 739 l 395 613 l 285 613 l 285 543 l 387 543 l 387 411 l 285 411 l 285 252 q 373 164 285 164 l 373 0 q 170 58 239 0 q 102 241 102 117 l 102 411 l 22 411 m 374 0 l 373 0 l 373 0 q 374 0 373 0 z "},"Ũ":{"ha":629,"x_min":50,"x_max":579,"o":"m 316 -11 q 179 23 239 -11 q 85 117 119 57 q 50 254 50 176 l 50 959 l 244 959 l 244 256 q 260 184 244 206 q 316 163 277 163 q 371 186 357 163 q 385 256 385 210 l 385 959 l 579 959 l 579 254 q 545 117 579 176 q 450 23 510 57 q 316 -11 391 -11 m 156 1051 l 156 1190 q 204 1231 183 1221 q 251 1241 225 1241 q 289 1235 273 1241 q 326 1214 305 1229 q 357 1198 345 1204 q 387 1192 369 1192 q 422 1202 408 1192 q 475 1248 437 1211 l 475 1109 q 429 1067 446 1078 q 381 1057 411 1057 q 342 1063 358 1057 q 308 1084 327 1070 q 277 1100 290 1095 q 244 1105 264 1105 q 205 1095 222 1105 q 156 1051 189 1085 z "},"ũ":{"ha":566,"x_min":49,"x_max":518,"o":"m 283 -11 q 139 18 190 -11 q 68 106 88 47 q 49 254 49 165 l 49 739 l 232 739 l 232 278 q 239 180 232 208 q 283 153 245 153 q 329 179 323 153 q 335 262 335 205 q 335 270 335 266 q 335 278 335 274 l 335 739 l 518 739 l 518 254 q 498 103 518 161 q 428 17 479 45 q 283 -11 377 -11 m 127 827 l 127 966 q 176 1007 155 997 q 222 1017 197 1017 q 260 1011 244 1017 q 297 990 277 1005 q 328 975 316 981 q 358 968 340 968 q 394 978 380 968 q 446 1024 408 987 l 446 886 q 400 844 418 854 q 353 833 382 833 q 314 840 330 833 q 279 860 298 846 q 249 876 262 871 q 216 882 236 882 q 177 871 194 882 q 127 827 160 861 z "},"Ū":{"ha":629,"x_min":50,"x_max":579,"o":"m 316 -11 q 179 23 239 -11 q 85 117 119 57 q 50 254 50 176 l 50 959 l 244 959 l 244 256 q 260 184 244 206 q 316 163 277 163 q 371 186 357 163 q 385 256 385 210 l 385 959 l 579 959 l 579 254 q 545 117 579 176 q 450 23 510 57 q 316 -11 391 -11 m 149 1084 l 149 1248 l 481 1248 l 481 1084 l 149 1084 z "},"ū":{"ha":566,"x_min":49,"x_max":518,"o":"m 283 -11 q 139 18 190 -11 q 68 106 88 47 q 49 254 49 165 l 49 739 l 232 739 l 232 278 q 239 180 232 208 q 283 153 245 153 q 329 179 323 153 q 335 262 335 205 q 335 270 335 266 q 335 278 335 274 l 335 739 l 518 739 l 518 254 q 498 103 518 161 q 428 17 479 45 q 283 -11 377 -11 m 117 830 l 117 994 l 449 994 l 449 830 l 117 830 z "},"Ŭ":{"ha":629,"x_min":50,"x_max":579,"o":"m 316 -11 q 179 23 239 -11 q 85 117 119 57 q 50 254 50 176 l 50 959 l 244 959 l 244 256 q 260 184 244 206 q 316 163 277 163 q 371 186 357 163 q 385 256 385 210 l 385 959 l 579 959 l 579 254 q 545 117 579 176 q 450 23 510 57 q 316 -11 391 -11 m 321 1062 q 193 1109 237 1062 q 149 1244 149 1157 l 149 1268 l 250 1268 l 250 1248 q 267 1171 250 1190 q 321 1153 285 1153 q 376 1171 358 1153 q 393 1248 393 1190 l 393 1268 l 494 1268 l 494 1244 q 450 1109 494 1157 q 321 1062 406 1062 z "},"ŭ":{"ha":566,"x_min":49,"x_max":518,"o":"m 283 -11 q 139 18 190 -11 q 68 106 88 47 q 49 254 49 165 l 49 739 l 232 739 l 232 278 q 239 180 232 208 q 283 153 245 153 q 329 179 323 153 q 335 262 335 205 q 335 270 335 266 q 335 278 335 274 l 335 739 l 518 739 l 518 254 q 498 103 518 161 q 428 17 479 45 q 283 -11 377 -11 m 281 777 q 153 825 197 777 q 109 959 109 872 l 109 983 l 209 983 l 209 963 q 227 886 209 905 q 281 868 244 868 q 335 886 317 868 q 353 963 353 905 l 353 983 l 453 983 l 453 959 q 409 825 453 872 q 281 777 365 777 z "},"Ů":{"ha":629,"x_min":50,"x_max":579,"o":"m 316 -11 q 179 23 239 -11 q 85 117 119 57 q 50 254 50 176 l 50 959 l 244 959 l 244 256 q 260 184 244 206 q 316 163 277 163 q 371 186 357 163 q 385 256 385 210 l 385 959 l 579 959 l 579 254 q 545 117 579 176 q 450 23 510 57 q 316 -11 391 -11 m 316 996 q 222 1034 260 996 q 183 1128 183 1073 q 222 1223 183 1185 q 316 1261 260 1261 q 410 1224 372 1261 q 449 1128 449 1187 q 410 1034 449 1072 q 316 996 370 996 m 255 1128 q 273 1085 255 1103 q 316 1067 292 1067 q 359 1085 342 1067 q 376 1128 376 1103 q 359 1171 376 1153 q 316 1190 342 1190 q 273 1171 292 1190 q 255 1128 255 1153 z "},"ů":{"ha":566,"x_min":49,"x_max":518,"o":"m 283 -11 q 139 18 190 -11 q 68 106 88 47 q 49 254 49 165 l 49 739 l 232 739 l 232 278 q 239 180 232 208 q 283 153 245 153 q 329 179 323 153 q 335 262 335 205 q 335 270 335 266 q 335 278 335 274 l 335 739 l 518 739 l 518 254 q 498 103 518 161 q 428 17 479 45 q 283 -11 377 -11 m 283 804 q 189 843 228 804 q 151 937 151 882 q 189 1032 151 994 q 283 1070 228 1070 q 378 1033 339 1070 q 416 937 416 996 q 377 842 416 880 q 283 804 338 804 m 222 937 q 241 894 222 911 q 283 876 259 876 q 326 894 309 876 q 343 937 343 911 q 326 980 343 962 q 283 998 309 998 q 241 980 259 998 q 222 937 222 962 z "},"Ű":{"ha":629,"x_min":50,"x_max":692,"o":"m 316 -11 q 179 23 239 -11 q 85 117 119 57 q 50 254 50 176 l 50 959 l 244 959 l 244 256 q 260 184 244 206 q 316 163 277 163 q 371 186 357 163 q 385 256 385 210 l 385 959 l 579 959 l 579 254 q 545 117 579 176 q 450 23 510 57 q 316 -11 391 -11 m 111 1080 l 254 1271 l 448 1271 l 270 1080 l 111 1080 m 355 1080 l 498 1271 l 692 1271 l 514 1080 l 355 1080 z "},"ű":{"ha":566,"x_min":49,"x_max":659,"o":"m 283 -11 q 139 18 190 -11 q 68 106 88 47 q 49 254 49 165 l 49 739 l 232 739 l 232 278 q 239 180 232 208 q 283 153 245 153 q 329 179 323 153 q 335 262 335 205 q 335 270 335 266 q 335 278 335 274 l 335 739 l 518 739 l 518 254 q 498 103 518 161 q 428 17 479 45 q 283 -11 377 -11 m 79 826 l 221 1017 l 415 1017 l 237 826 l 79 826 m 323 826 l 465 1017 l 659 1017 l 481 826 l 323 826 z "},"Ų":{"ha":629,"x_min":50,"x_max":579,"o":"m 410 -296 q 303 -271 350 -293 q 221 -199 256 -248 q 189 -145 202 -176 q 167 -76 176 -114 l 260 -5 q 109 81 167 11 q 50 254 50 151 l 50 959 l 244 959 l 244 256 q 260 184 244 206 q 316 163 277 163 q 371 186 357 163 q 385 256 385 210 l 385 959 l 579 959 l 579 254 q 531 96 579 161 q 407 4 483 30 l 300 -83 q 336 -115 319 -111 q 380 -118 354 -119 q 394 -118 387 -118 q 410 -118 401 -118 l 410 -296 z "},"ų":{"ha":566,"x_min":49,"x_max":518,"o":"m 427 -283 q 321 -258 369 -281 q 239 -187 274 -235 q 186 -64 202 -141 l 258 -11 q 130 24 175 -7 q 66 112 84 54 q 49 254 49 170 l 49 739 l 232 739 l 232 278 q 239 180 232 208 q 283 153 245 153 q 329 179 323 153 q 335 262 335 205 q 335 270 335 266 q 335 278 335 274 l 335 739 l 518 739 l 518 254 q 498 102 518 161 q 426 16 479 43 l 427 16 l 317 -71 q 355 -103 336 -99 q 400 -106 373 -107 q 412 -104 406 -104 q 427 -104 419 -104 l 427 -283 z "},"Ŵ":{"ha":945,"x_min":7,"x_max":937,"o":"m 172 0 l 7 959 l 203 959 l 282 271 l 355 959 l 590 959 l 665 271 l 743 959 l 937 959 l 772 0 l 563 0 l 472 515 l 380 0 l 172 0 m 266 1059 l 408 1268 l 532 1268 l 675 1059 l 545 1059 l 472 1166 l 396 1059 l 266 1059 z "},"ŵ":{"ha":860,"x_min":14,"x_max":846,"o":"m 182 0 l 14 739 l 216 739 l 279 290 l 354 739 l 505 739 l 581 290 l 643 739 l 846 739 l 677 0 l 499 0 l 430 418 l 358 0 l 182 0 m 225 818 l 368 1027 l 491 1027 l 635 818 l 505 818 l 431 925 l 355 818 l 225 818 z "},"Ŷ":{"ha":586,"x_min":7,"x_max":581,"o":"m 197 0 l 197 370 l 7 959 l 220 959 l 293 616 l 366 959 l 581 959 l 389 365 l 389 0 l 197 0 m 87 1059 l 229 1268 l 353 1268 l 496 1059 l 366 1059 l 293 1166 l 217 1059 l 87 1059 z "},"ŷ":{"ha":585,"x_min":14,"x_max":572,"o":"m 69 -221 l 69 -60 l 140 -60 q 189 -55 168 -60 q 220 -45 210 -50 l 14 739 l 216 739 l 302 327 l 381 739 l 572 739 l 377 -47 q 325 -158 361 -121 q 228 -208 289 -195 q 72 -221 167 -221 l 69 -221 m 85 818 l 228 1027 l 351 1027 l 495 818 l 365 818 l 292 925 l 216 818 l 85 818 z "},"Ÿ":{"ha":586,"x_min":7,"x_max":581,"o":"m 197 0 l 197 370 l 7 959 l 220 959 l 293 616 l 366 959 l 581 959 l 389 365 l 389 0 l 197 0 m 111 1046 l 111 1218 l 248 1218 l 248 1046 l 111 1046 m 331 1046 l 331 1218 l 468 1218 l 468 1046 l 331 1046 z "},"Ź":{"ha":486,"x_min":26,"x_max":464,"o":"m 26 0 l 26 176 l 269 783 l 39 783 l 39 959 l 460 959 l 460 783 l 217 176 l 464 176 l 464 0 l 26 0 m 123 1080 l 264 1271 l 458 1271 l 281 1080 l 123 1080 z "},"ź":{"ha":537,"x_min":47,"x_max":490,"o":"m 47 0 l 47 152 l 309 585 l 47 585 l 47 739 l 490 739 l 490 585 l 235 152 l 490 152 l 490 0 l 47 0 m 146 826 l 288 1017 l 481 1017 l 304 826 l 146 826 z "},"Ż":{"ha":486,"x_min":26,"x_max":464,"o":"m 26 0 l 26 176 l 269 783 l 39 783 l 39 959 l 460 959 l 460 783 l 217 176 l 464 176 l 464 0 l 26 0 m 153 1090 l 153 1230 l 346 1230 l 346 1090 l 153 1090 z "},"ż":{"ha":537,"x_min":47,"x_max":490,"o":"m 47 0 l 47 152 l 309 585 l 47 585 l 47 739 l 490 739 l 490 585 l 235 152 l 490 152 l 490 0 l 47 0 m 178 837 l 178 977 l 370 977 l 370 837 l 178 837 z "},"Ž":{"ha":486,"x_min":26,"x_max":464,"o":"m 26 0 l 26 176 l 269 783 l 39 783 l 39 959 l 460 959 l 460 783 l 217 176 l 464 176 l 464 0 l 26 0 m 178 1029 l 37 1236 l 167 1236 l 241 1133 l 316 1236 l 446 1236 l 302 1029 l 178 1029 z "},"ž":{"ha":537,"x_min":47,"x_max":490,"o":"m 47 0 l 47 152 l 309 585 l 47 585 l 47 739 l 490 739 l 490 585 l 235 152 l 490 152 l 490 0 l 47 0 m 202 810 l 61 1016 l 191 1016 l 266 913 l 340 1016 l 471 1016 l 327 810 l 202 810 z "},"ƒ":{"ha":544,"x_min":8,"x_max":536,"o":"m 8 -222 l 8 -57 l 41 -57 q 104 -41 81 -57 q 130 24 126 -24 l 184 425 l 85 425 l 85 589 l 208 589 l 225 728 q 300 902 239 845 q 476 959 361 959 l 536 959 l 536 793 l 502 793 q 436 776 458 793 q 410 711 414 758 l 393 589 l 488 589 l 488 425 l 369 425 l 316 8 q 243 -167 302 -111 q 64 -222 183 -222 l 8 -222 z "},"ƚ":{"ha":335,"x_min":11,"x_max":321,"o":"m 11 465 l 11 640 l 49 640 l 49 959 l 232 959 l 232 640 l 321 640 l 321 465 l 232 465 l 232 252 q 316 164 232 164 l 319 164 l 319 0 l 316 0 q 49 240 49 0 l 49 465 l 11 465 z "},"Ɵ":{"ha":646,"x_min":46,"x_max":598,"o":"m 317 -11 q 119 57 193 -11 q 46 259 46 125 l 46 701 q 125 903 46 833 q 331 972 203 972 q 524 904 450 972 q 598 701 598 836 l 598 259 q 519 60 598 130 q 317 -11 441 -11 m 240 285 q 324 163 240 165 q 382 195 361 163 q 404 285 404 228 l 404 669 q 386 764 404 731 q 324 798 368 798 q 258 765 277 798 q 240 669 240 732 l 240 285 m 79 393 l 79 567 l 566 567 l 566 393 l 79 393 z "},"Ǎ":{"ha":684,"x_min":7,"x_max":677,"o":"m 7 0 l 247 959 l 438 959 l 677 0 l 476 0 l 445 167 l 240 167 l 209 0 l 7 0 m 275 342 l 411 342 l 343 703 l 275 342 m 278 1058 l 137 1264 l 266 1264 l 342 1161 l 415 1264 l 545 1264 l 401 1058 l 278 1058 z "},"ǎ":{"ha":563,"x_min":38,"x_max":517,"o":"m 222 -11 q 84 50 130 -11 q 38 220 38 110 q 103 381 38 326 q 288 437 168 437 l 332 437 l 332 524 q 319 570 332 553 q 279 587 305 587 q 241 572 256 587 q 227 528 227 557 l 227 517 l 57 517 l 57 519 q 121 692 57 635 q 285 750 184 750 q 456 684 395 750 q 517 509 517 618 l 517 0 l 346 0 l 346 60 q 288 4 312 19 q 222 -11 264 -11 m 221 228 q 278 148 221 148 q 317 169 301 148 q 332 224 332 190 l 332 311 l 311 311 q 243 292 264 311 q 221 228 221 273 m 218 804 l 77 1010 l 206 1010 l 282 907 l 355 1010 l 486 1010 l 342 804 l 218 804 z "},"Ǐ":{"ha":302,"x_min":-53,"x_max":355,"o":"m 54 0 l 54 959 l 247 959 l 247 0 l 54 0 m 88 1058 l -53 1264 l 76 1264 l 152 1161 l 225 1264 l 355 1264 l 212 1058 l 88 1058 z "},"ǐ":{"ha":288,"x_min":-61,"x_max":347,"o":"m 80 804 l -61 1010 l 68 1010 l 144 907 l 217 1010 l 347 1010 l 203 804 l 80 804 m 53 0 l 53 739 l 237 739 l 237 0 l 53 0 z "},"Ǒ":{"ha":646,"x_min":46,"x_max":598,"o":"m 317 -11 q 119 57 193 -11 q 46 259 46 125 l 46 701 q 125 903 46 833 q 331 972 203 972 q 524 904 450 972 q 598 701 598 836 l 598 259 q 519 60 598 130 q 317 -11 441 -11 m 240 285 q 324 163 240 165 q 382 195 361 163 q 404 285 404 228 l 404 669 q 386 764 404 731 q 324 798 368 798 q 258 765 277 798 q 240 669 240 732 l 240 285 m 259 1058 l 118 1264 l 247 1264 l 323 1161 l 396 1264 l 526 1264 l 382 1058 l 259 1058 z "},"ǒ":{"ha":571,"x_min":47,"x_max":525,"o":"m 286 -11 q 109 52 170 -11 q 47 260 47 115 l 47 477 q 109 686 47 623 q 286 750 170 750 q 465 686 406 750 q 525 477 525 623 l 525 260 q 465 52 525 115 q 286 -11 406 -11 m 231 255 q 285 153 231 153 q 340 255 340 153 l 340 483 q 285 585 340 585 q 231 483 231 585 l 231 255 m 221 804 l 80 1010 l 209 1010 l 285 907 l 358 1010 l 488 1010 l 345 804 l 221 804 z "},"Ǔ":{"ha":629,"x_min":50,"x_max":579,"o":"m 316 -11 q 179 23 239 -11 q 85 117 119 57 q 50 254 50 176 l 50 959 l 244 959 l 244 256 q 260 184 244 206 q 316 163 277 163 q 371 186 357 163 q 385 256 385 210 l 385 959 l 579 959 l 579 254 q 545 117 579 176 q 450 23 510 57 q 316 -11 391 -11 m 252 1058 l 111 1264 l 240 1264 l 316 1161 l 389 1264 l 519 1264 l 376 1058 l 252 1058 z "},"ǔ":{"ha":566,"x_min":49,"x_max":518,"o":"m 283 -11 q 139 18 190 -11 q 68 106 88 47 q 49 254 49 165 l 49 739 l 232 739 l 232 278 q 239 180 232 208 q 283 153 245 153 q 329 179 323 153 q 335 262 335 205 q 335 270 335 266 q 335 278 335 274 l 335 739 l 518 739 l 518 254 q 498 103 518 161 q 428 17 479 45 q 283 -11 377 -11 m 220 804 l 79 1010 l 208 1010 l 283 907 l 357 1010 l 487 1010 l 343 804 l 220 804 z "},"Ǧ":{"ha":646,"x_min":46,"x_max":598,"o":"m 317 -11 q 119 57 193 -11 q 46 259 46 125 l 46 701 q 124 903 46 834 q 330 972 202 972 q 526 903 453 972 q 598 701 598 834 l 598 669 l 404 669 l 404 701 q 380 773 404 749 q 324 798 355 798 q 258 765 277 798 q 240 669 240 732 l 240 285 q 324 163 240 165 q 386 194 368 163 q 404 275 404 225 l 404 368 l 323 368 l 323 518 l 598 518 l 598 260 q 519 60 598 132 q 317 -11 441 -11 m 259 1058 l 118 1264 l 247 1264 l 323 1161 l 396 1264 l 526 1264 l 382 1058 l 259 1058 z "},"ǧ":{"ha":567,"x_min":47,"x_max":521,"o":"m 286 -236 q 123 -182 182 -236 q 61 -18 64 -127 l 232 -18 q 289 -79 231 -79 q 330 -61 315 -79 q 346 -14 346 -43 l 346 119 q 224 61 292 61 q 96 117 145 61 q 47 297 47 174 l 47 514 q 94 694 47 639 q 220 750 141 750 q 290 733 258 750 q 338 685 321 716 l 338 739 l 521 739 l 521 4 q 457 -172 521 -109 q 286 -236 393 -236 m 231 330 q 243 251 231 277 q 288 225 256 225 q 342 330 342 227 l 342 483 q 328 562 342 538 q 286 585 315 585 q 243 559 256 585 q 231 481 231 534 l 231 330 m 221 804 l 80 1010 l 209 1010 l 285 907 l 358 1010 l 488 1010 l 345 804 l 221 804 z "},"Ǩ":{"ha":639,"x_min":50,"x_max":633,"o":"m 50 0 l 50 959 l 243 959 l 243 534 l 411 959 l 604 959 l 415 563 l 633 0 l 429 0 l 305 339 l 243 203 l 243 0 l 50 0 m 256 1058 l 115 1264 l 244 1264 l 320 1161 l 393 1264 l 524 1264 l 380 1058 l 256 1058 z "},"ǩ":{"ha":587,"x_min":-68,"x_max":575,"o":"m 49 0 l 49 959 l 232 959 l 232 465 l 385 739 l 575 739 l 387 448 l 575 0 l 374 0 l 274 270 l 232 206 l 232 0 l 49 0 m 73 1058 l -68 1264 l 61 1264 l 137 1161 l 210 1264 l 340 1264 l 197 1058 l 73 1058 z "},"Ǫ":{"ha":646,"x_min":46,"x_max":598,"o":"m 317 -11 q 119 57 193 -11 q 46 259 46 125 l 46 701 q 125 903 46 833 q 331 972 203 972 q 524 904 450 972 q 598 701 598 836 l 598 259 q 519 60 598 130 q 317 -11 441 -11 m 240 285 q 324 163 240 165 q 382 195 361 163 q 404 285 404 228 l 404 669 q 386 764 404 731 q 324 798 368 798 q 258 765 277 798 q 240 669 240 732 l 240 285 m 420 -296 q 314 -271 361 -293 q 232 -199 267 -248 q 200 -145 213 -176 q 178 -76 187 -114 l 285 4 l 420 23 l 420 1 l 311 -83 q 347 -115 330 -111 q 391 -118 365 -119 q 405 -118 397 -118 q 420 -118 412 -118 l 420 -296 z "},"ǫ":{"ha":571,"x_min":47,"x_max":525,"o":"m 427 -296 q 321 -271 369 -293 q 239 -199 274 -248 q 186 -76 202 -153 l 273 -11 q 104 56 161 -8 q 47 260 47 119 l 47 477 q 109 686 47 623 q 286 750 170 750 q 465 686 406 750 q 525 477 525 623 l 525 260 q 410 14 525 61 l 317 -83 q 355 -115 336 -111 q 399 -118 373 -119 q 412 -118 406 -118 q 427 -118 419 -118 l 427 -296 m 231 255 q 285 153 231 153 q 340 255 340 153 l 340 483 q 285 585 340 585 q 231 483 231 585 l 231 255 z "},"Ǭ":{"ha":646,"x_min":46,"x_max":598,"o":"m 165 1029 l 165 1194 l 498 1194 l 498 1029 l 165 1029 m 317 -11 q 119 57 193 -11 q 46 259 46 125 l 46 701 q 125 903 46 833 q 331 972 203 972 q 524 904 450 972 q 598 701 598 836 l 598 259 q 519 60 598 130 q 317 -11 441 -11 m 240 285 q 324 163 240 165 q 382 195 361 163 q 404 285 404 228 l 404 669 q 386 764 404 731 q 324 798 368 798 q 258 765 277 798 q 240 669 240 732 l 240 285 m 427 -296 q 321 -271 368 -293 q 239 -199 274 -248 q 207 -145 220 -176 q 184 -76 194 -114 l 292 4 l 427 23 l 427 1 l 317 -83 q 354 -115 336 -111 q 397 -118 372 -119 q 412 -118 404 -118 q 427 -118 419 -118 l 427 -296 z "},"ǭ":{"ha":571,"x_min":47,"x_max":525,"o":"m 427 -296 q 321 -271 369 -293 q 239 -199 274 -248 q 186 -76 202 -153 l 273 -11 q 104 56 161 -8 q 47 260 47 119 l 47 477 q 109 686 47 623 q 286 750 170 750 q 465 686 406 750 q 525 477 525 623 l 525 260 q 410 14 525 61 l 317 -83 q 355 -115 336 -111 q 399 -118 373 -119 q 412 -118 406 -118 q 427 -118 419 -118 l 427 -296 m 231 255 q 285 153 231 153 q 340 255 340 153 l 340 483 q 285 585 340 585 q 231 483 231 585 l 231 255 m 122 830 l 122 994 l 454 994 l 454 830 l 122 830 z "},"ǰ":{"ha":290,"x_min":-60,"x_max":349,"o":"m -34 -222 l -34 -57 l -30 -57 q 56 28 56 -57 l 56 739 l 239 739 l 239 18 q -28 -222 239 -222 l -34 -222 m 81 804 l -60 1010 l 69 1010 l 145 907 l 218 1010 l 349 1010 l 205 804 l 81 804 z "},"Ǵ":{"ha":646,"x_min":46,"x_max":598,"o":"m 317 -11 q 119 57 193 -11 q 46 259 46 125 l 46 701 q 124 903 46 834 q 330 972 202 972 q 526 903 453 972 q 598 701 598 834 l 598 669 l 404 669 l 404 701 q 380 773 404 749 q 324 798 355 798 q 258 765 277 798 q 240 669 240 732 l 240 285 q 324 163 240 165 q 386 194 368 163 q 404 275 404 225 l 404 368 l 323 368 l 323 518 l 598 518 l 598 260 q 519 60 598 132 q 317 -11 441 -11 m 203 1080 l 345 1271 l 538 1271 l 361 1080 l 203 1080 z "},"ǵ":{"ha":567,"x_min":47,"x_max":521,"o":"m 286 -236 q 123 -182 182 -236 q 61 -18 64 -127 l 232 -18 q 289 -79 231 -79 q 330 -61 315 -79 q 346 -14 346 -43 l 346 119 q 224 61 292 61 q 96 117 145 61 q 47 297 47 174 l 47 514 q 94 694 47 639 q 220 750 141 750 q 290 733 258 750 q 338 685 321 716 l 338 739 l 521 739 l 521 4 q 457 -172 521 -109 q 286 -236 393 -236 m 231 330 q 243 251 231 277 q 288 225 256 225 q 342 330 342 227 l 342 483 q 328 562 342 538 q 286 585 315 585 q 243 559 256 585 q 231 481 231 534 l 231 330 m 164 826 l 305 1017 l 499 1017 l 321 826 l 164 826 z "},"Ș":{"ha":591,"x_min":22,"x_max":559,"o":"m 288 -11 q 92 64 160 -11 q 22 278 24 138 l 205 278 q 292 155 206 155 q 353 182 335 155 q 370 269 370 209 q 347 347 370 316 q 270 403 324 378 l 202 435 q 71 538 111 479 q 31 705 31 598 q 101 899 31 825 q 294 974 171 974 q 479 901 414 974 q 548 690 545 827 l 372 690 q 355 778 370 749 q 296 807 339 807 q 218 715 218 807 q 238 642 218 669 q 304 595 258 616 l 369 567 q 514 453 469 521 q 559 271 559 385 q 487 62 559 136 q 288 -11 415 -11 m 224 -235 l 224 -37 l 366 -37 l 366 -110 l 224 -235 z "},"ș":{"ha":548,"x_min":38,"x_max":515,"o":"m 277 -11 q 102 50 165 -11 q 38 218 38 111 l 38 227 l 214 227 l 214 218 q 279 141 214 141 q 324 159 311 141 q 338 209 338 178 q 274 286 338 258 l 193 323 q 73 411 104 362 q 41 534 41 460 q 71 646 41 597 q 153 722 100 694 q 274 750 205 750 q 396 722 343 750 q 478 644 449 693 q 507 529 507 594 l 507 517 l 328 517 l 328 525 q 312 582 328 564 q 273 600 296 600 q 216 541 216 600 q 229 498 216 514 q 277 468 241 483 l 366 427 q 481 341 448 392 q 515 210 515 290 q 451 52 515 115 q 277 -11 387 -11 m 201 -235 l 201 -37 l 343 -37 l 343 -110 l 201 -235 z "},"Ț":{"ha":511,"x_min":4,"x_max":509,"o":"m 161 0 l 161 783 l 4 783 l 4 959 l 509 959 l 509 783 l 354 783 l 354 0 l 161 0 m 183 -235 l 183 -37 l 326 -37 l 326 -110 l 183 -235 z "},"ț":{"ha":422,"x_min":22,"x_max":395,"o":"m 373 0 q 170 58 239 0 q 102 241 102 117 l 102 613 l 22 613 l 22 739 l 102 739 l 102 861 l 285 933 l 285 739 l 395 739 l 395 613 l 285 613 l 285 252 q 373 164 285 164 l 373 0 m 374 0 l 373 0 l 373 0 q 374 0 373 0 m 175 -235 l 175 -37 l 317 -37 l 317 -110 l 175 -235 z "},"ȷ":{"ha":290,"x_min":-34,"x_max":239,"o":"m -34 -222 l -34 -57 l -30 -57 q 56 28 56 -57 l 56 739 l 239 739 l 239 18 q -28 -222 239 -222 l -34 -222 z "},"Ƚ":{"ha":498,"x_min":11,"x_max":477,"o":"m 50 0 l 50 959 l 244 959 l 244 174 l 477 174 l 477 0 l 50 0 m 11 448 l 11 621 l 393 621 l 393 448 l 11 448 z "},"ɵ":{"ha":571,"x_min":47,"x_max":525,"o":"m 286 -11 q 109 52 170 -11 q 47 260 47 115 l 47 477 q 109 686 47 623 q 286 750 170 750 q 465 686 406 750 q 525 477 525 623 l 525 260 q 465 52 525 115 q 286 -11 406 -11 m 231 255 q 285 153 231 153 q 340 255 340 153 l 340 483 q 285 585 340 585 q 231 483 231 585 l 231 255 m 95 289 l 95 463 l 477 463 l 477 289 l 95 289 z "},"ʼ":{"ha":0,"x_min":-90,"x_max":87,"o":"m -90 525 l -90 959 l 87 959 l 87 666 l -90 525 z "},"ˆ":{"ha":694,"x_min":141,"x_max":551,"o":"m 141 818 l 283 1027 l 407 1027 l 551 818 l 420 818 l 347 925 l 271 818 l 141 818 z "},"ˇ":{"ha":685,"x_min":137,"x_max":547,"o":"m 278 810 l 137 1016 l 267 1016 l 342 913 l 416 1016 l 547 1016 l 403 810 l 278 810 z "},"˘":{"ha":581,"x_min":118,"x_max":463,"o":"m 290 777 q 162 825 206 777 q 118 959 118 872 l 118 983 l 218 983 l 218 963 q 236 886 218 905 q 290 868 254 868 q 345 886 327 868 q 362 963 362 905 l 362 983 l 463 983 l 463 959 q 418 825 463 872 q 290 777 374 777 z "},"˙":{"ha":694,"x_min":256,"x_max":449,"o":"m 256 837 l 256 977 l 449 977 l 449 837 l 256 837 z "},"˚":{"ha":689,"x_min":212,"x_max":477,"o":"m 345 804 q 250 843 289 804 q 212 937 212 882 q 249 1032 212 994 q 345 1070 286 1070 q 439 1033 400 1070 q 477 937 477 996 q 438 842 477 880 q 345 804 399 804 m 283 937 q 301 894 283 911 q 345 876 319 876 q 387 894 370 876 q 404 937 404 911 q 387 980 404 962 q 345 998 370 998 q 302 980 320 998 q 283 937 283 962 z "},"˛":{"ha":749,"x_min":186,"x_max":427,"o":"m 427 -296 q 321 -271 369 -293 q 239 -199 274 -248 q 186 -76 202 -153 l 319 23 l 427 23 l 427 1 l 317 -83 q 355 -115 336 -111 q 399 -118 373 -119 q 412 -118 406 -118 q 427 -118 419 -118 l 427 -296 z "},"˜":{"ha":694,"x_min":187,"x_max":506,"o":"m 187 827 l 187 966 q 235 1007 214 997 q 282 1017 256 1017 q 320 1011 304 1017 q 357 990 336 1005 q 388 975 376 981 q 418 968 400 968 q 454 978 439 968 q 506 1024 468 987 l 506 886 q 460 844 477 854 q 412 833 442 833 q 374 840 389 833 q 339 860 358 846 q 309 876 321 871 q 275 882 296 882 q 237 871 254 882 q 187 827 220 861 z "},"˝":{"ha":694,"x_min":142,"x_max":723,"o":"m 142 826 l 285 1017 l 479 1017 l 301 826 l 142 826 m 387 826 l 529 1017 l 723 1017 l 545 826 l 387 826 z "},"̀":{"ha":0,"x_min":-209,"x_max":125,"o":"m -31 826 l -209 1017 l -15 1017 l 125 826 l -31 826 z "},"́":{"ha":0,"x_min":-121,"x_max":214,"o":"m -121 826 l 20 1017 l 214 1017 l 37 826 l -121 826 z "},"̂":{"ha":0,"x_min":-206,"x_max":203,"o":"m -206 818 l -64 1027 l 60 1027 l 203 818 l 73 818 l 0 925 l -76 818 l -206 818 z "},"̃":{"ha":0,"x_min":-160,"x_max":159,"o":"m -160 827 l -160 966 q -112 1007 -133 997 q -65 1017 -91 1017 q -27 1011 -43 1017 q 9 990 -11 1005 q 41 975 28 981 q 71 968 53 968 q 106 978 92 968 q 159 1024 121 987 l 159 886 q 113 844 130 854 q 65 833 95 833 q 26 840 42 833 q -8 860 11 846 q -39 876 -26 871 q -72 882 -52 882 q -111 871 -94 882 q -160 827 -127 861 z "},"̄":{"ha":0,"x_min":-167,"x_max":165,"o":"m -167 830 l -167 994 l 165 994 l 165 830 l -167 830 z "},"̆":{"ha":0,"x_min":-172,"x_max":172,"o":"m 0 777 q -128 825 -84 777 q -172 959 -172 872 l -172 983 l -72 983 l -72 963 q -54 886 -72 905 q 0 868 -37 868 q 54 886 37 868 q 72 963 72 905 l 72 983 l 172 983 l 172 959 q 128 825 172 872 q 0 777 84 777 z "},"̇":{"ha":0,"x_min":-91,"x_max":102,"o":"m -91 837 l -91 977 l 102 977 l 102 837 l -91 837 z "},"̈":{"ha":0,"x_min":-179,"x_max":178,"o":"m -179 826 l -179 998 l -42 998 l -42 826 l -179 826 m 41 826 l 41 998 l 178 998 l 178 826 l 41 826 z "},"̊":{"ha":0,"x_min":-133,"x_max":133,"o":"m 0 804 q -94 843 -56 804 q -133 937 -133 882 q -94 1032 -133 994 q 0 1070 -56 1070 q 94 1033 56 1070 q 133 937 133 996 q 94 842 133 880 q 0 804 54 804 m -61 937 q -43 894 -61 911 q 0 876 -24 876 q 43 894 26 876 q 60 937 60 911 q 43 980 60 962 q 0 998 26 998 q -43 980 -24 998 q -61 937 -61 962 z "},"̋":{"ha":0,"x_min":-205,"x_max":376,"o":"m -205 826 l -62 1017 l 132 1017 l -46 826 l -205 826 m 39 826 l 182 1017 l 376 1017 l 198 826 l 39 826 z "},"̌":{"ha":0,"x_min":-205,"x_max":203,"o":"m -64 804 l -205 1010 l -76 1010 l 0 907 l 73 1010 l 203 1010 l 60 804 l -64 804 z "},"̒":{"ha":0,"x_min":-121,"x_max":214,"o":"m -121 826 l 57 1017 l 214 1017 l 73 826 l -121 826 z "},"̣":{"ha":0,"x_min":-91,"x_max":102,"o":"m -91 -256 l -91 -117 l 102 -117 l 102 -256 l -91 -256 z "},"̦":{"ha":0,"x_min":-72,"x_max":71,"o":"m -72 -235 l -72 -37 l 71 -37 l 71 -110 l -72 -235 z "},"̧":{"ha":0,"x_min":218,"x_max":454,"o":"m 218 -222 l 320 12 l 454 12 l 370 -222 l 218 -222 z "},"̨":{"ha":0,"x_min":-165,"x_max":77,"o":"m 77 -296 q -29 -271 18 -293 q -111 -199 -76 -248 q -143 -145 -130 -176 q -165 -76 -156 -114 l -58 4 l 77 23 l 77 1 l -33 -83 q 4 -115 -14 -111 q 47 -118 22 -119 q 62 -118 54 -118 q 77 -118 69 -118 l 77 -296 z "},"Α":{"ha":684,"x_min":7,"x_max":677,"o":"m 7 0 l 247 959 l 438 959 l 677 0 l 476 0 l 445 167 l 240 167 l 209 0 l 7 0 m 275 342 l 411 342 l 343 703 l 275 342 z "},"α":{"ha":642,"x_min":47,"x_max":594,"o":"m 286 -11 q 109 52 170 -11 q 47 260 47 115 l 47 477 q 109 686 47 623 q 286 750 170 750 q 389 736 342 750 q 461 692 435 722 q 521 712 487 704 q 594 720 555 720 l 594 563 q 537 542 549 563 q 525 472 525 521 l 525 266 q 536 197 525 220 q 594 174 548 175 l 594 19 q 522 26 553 19 q 461 46 491 34 q 404 -7 439 0 q 324 -12 369 -14 q 305 -11 315 -11 q 286 -11 296 -11 m 231 255 q 285 153 231 153 q 340 255 340 153 l 340 483 q 285 585 340 585 q 231 483 231 585 l 231 255 z "},"Ѐ":{"ha":509,"x_min":50,"x_max":477,"o":"m 260 1050 l 83 1241 l 277 1241 l 416 1050 l 260 1050 m 50 0 l 50 959 l 477 959 l 477 783 l 243 783 l 243 575 l 446 575 l 446 400 l 243 400 l 243 174 l 477 174 l 477 0 l 50 0 z "},"Ё":{"ha":509,"x_min":50,"x_max":477,"o":"m 113 1050 l 113 1222 l 250 1222 l 250 1050 l 113 1050 m 332 1050 l 332 1222 l 469 1222 l 469 1050 l 332 1050 m 50 0 l 50 959 l 477 959 l 477 783 l 243 783 l 243 575 l 446 575 l 446 400 l 243 400 l 243 174 l 477 174 l 477 0 l 50 0 z "},"Ђ":{"ha":736,"x_min":4,"x_max":692,"o":"m 161 0 l 161 783 l 4 783 l 4 959 l 509 959 l 509 783 l 354 783 l 354 623 l 423 623 q 628 548 564 623 q 692 311 692 473 q 628 73 692 146 q 423 0 564 0 l 404 0 l 404 174 l 418 174 q 498 311 498 174 q 479 414 498 382 q 418 446 460 446 l 354 446 l 354 0 l 161 0 z "},"Ѓ":{"ha":473,"x_min":50,"x_max":499,"o":"m 50 0 l 50 959 l 477 959 l 477 783 l 244 783 l 244 0 l 50 0 m 164 1050 l 305 1241 l 499 1241 l 321 1050 l 164 1050 z "},"Є":{"ha":646,"x_min":46,"x_max":598,"o":"m 317 -11 q 117 59 187 -11 q 46 259 46 129 l 46 701 q 122 901 46 829 q 330 972 198 972 q 528 900 458 972 q 598 692 598 827 l 598 656 l 404 656 l 404 690 q 383 769 404 741 q 324 798 362 798 q 240 669 240 798 l 240 575 l 401 575 l 401 400 l 240 400 l 240 285 q 324 163 240 163 q 404 271 404 163 l 404 300 l 598 300 l 598 270 q 524 64 598 138 q 317 -11 450 -11 z "},"Ѕ":{"ha":591,"x_min":22,"x_max":559,"o":"m 288 -11 q 92 64 160 -11 q 22 278 24 138 l 205 278 q 292 155 206 155 q 353 182 335 155 q 370 269 370 209 q 347 347 370 316 q 270 403 324 378 l 202 435 q 71 538 111 479 q 31 705 31 598 q 101 899 31 825 q 294 974 171 974 q 479 901 414 974 q 548 690 545 827 l 372 690 q 355 778 370 749 q 296 807 339 807 q 218 715 218 807 q 238 642 218 669 q 304 595 258 616 l 369 567 q 514 453 469 521 q 559 271 559 385 q 487 62 559 136 q 288 -11 415 -11 z "},"І":{"ha":302,"x_min":54,"x_max":247,"o":"m 54 0 l 54 959 l 247 959 l 247 0 l 54 0 z "},"Ї":{"ha":302,"x_min":-27,"x_max":330,"o":"m -27 1050 l -27 1222 l 110 1222 l 110 1050 l -27 1050 m 193 1050 l 193 1222 l 330 1222 l 330 1050 l 193 1050 m 54 0 l 54 959 l 247 959 l 247 0 l 54 0 z "},"Ј":{"ha":370,"x_min":19,"x_max":316,"o":"m 19 0 l 19 176 l 37 176 q 122 262 122 176 l 122 959 l 316 959 l 316 240 q 49 0 316 0 l 19 0 z "},"Љ":{"ha":990,"x_min":27,"x_max":945,"o":"m 27 0 l 28 176 q 102 233 85 176 q 132 404 119 289 l 186 959 l 648 959 l 648 623 l 677 623 q 882 548 818 623 q 945 311 945 473 q 882 73 945 146 q 677 0 818 0 l 454 0 l 454 783 l 362 783 l 305 258 q 289 174 301 218 q 248 90 277 129 q 165 25 218 50 q 27 0 113 0 m 648 174 l 671 174 q 751 311 751 174 q 732 414 751 382 q 671 446 713 446 l 648 446 l 648 174 z "},"Њ":{"ha":945,"x_min":50,"x_max":901,"o":"m 50 0 l 50 959 l 244 959 l 244 575 l 387 575 l 387 959 l 581 959 l 581 623 l 632 623 q 837 548 773 623 q 901 311 901 473 q 837 73 901 146 q 632 0 773 0 l 387 0 l 387 400 l 244 400 l 244 0 l 50 0 m 581 174 l 627 174 q 707 311 707 174 q 688 414 707 382 q 627 446 669 446 l 581 446 l 581 174 z "},"Ћ":{"ha":746,"x_min":4,"x_max":701,"o":"m 161 0 l 161 783 l 4 783 l 4 959 l 509 959 l 509 783 l 354 783 l 354 623 q 433 650 393 650 q 637 562 574 650 q 701 311 701 473 l 701 0 l 507 0 l 507 311 q 488 428 507 382 q 427 473 469 473 q 354 446 389 473 l 354 0 l 161 0 z "},"Ќ":{"ha":639,"x_min":50,"x_max":633,"o":"m 50 0 l 50 959 l 243 959 l 243 575 l 258 575 l 431 959 l 624 959 l 434 541 l 633 0 l 429 0 l 288 400 l 243 400 l 243 0 l 50 0 m 199 1050 l 340 1241 l 534 1241 l 357 1050 l 199 1050 z "},"Ѝ":{"ha":643,"x_min":50,"x_max":598,"o":"m 50 0 l 50 959 l 244 959 l 244 494 l 408 959 l 598 959 l 598 0 l 404 0 l 404 434 l 240 0 l 50 0 m 271 1050 l 94 1241 l 288 1241 l 427 1050 l 271 1050 z "},"Ў":{"ha":586,"x_min":7,"x_max":581,"o":"m 75 0 l 75 194 l 91 194 q 206 315 161 194 l 218 353 l 7 959 l 220 959 l 317 666 l 366 959 l 581 959 l 384 316 q 268 76 334 152 q 106 0 202 0 l 75 0 m 304 1017 q 176 1065 220 1017 q 132 1199 132 1112 l 132 1223 l 232 1223 l 232 1203 q 250 1126 232 1145 q 304 1108 267 1108 q 358 1126 340 1108 q 376 1203 376 1145 l 376 1223 l 476 1223 l 476 1199 q 432 1065 476 1112 q 304 1017 388 1017 z "},"Џ":{"ha":694,"x_min":50,"x_max":644,"o":"m 251 -231 l 251 0 l 50 0 l 50 959 l 244 959 l 244 176 l 450 176 l 450 959 l 644 959 l 644 0 l 445 0 l 445 -231 l 251 -231 z "},"А":{"ha":684,"x_min":7,"x_max":677,"o":"m 7 0 l 247 959 l 438 959 l 677 0 l 476 0 l 445 167 l 240 167 l 209 0 l 7 0 m 275 342 l 411 342 l 343 703 l 275 342 z "},"Б":{"ha":624,"x_min":50,"x_max":579,"o":"m 50 0 l 50 959 l 477 959 l 477 783 l 244 783 l 244 623 l 311 623 q 515 548 452 623 q 579 311 579 473 q 515 73 579 146 q 311 0 452 0 l 50 0 m 244 174 l 305 174 q 385 311 385 174 q 366 414 385 382 q 305 446 347 446 l 244 446 l 244 174 z "},"В":{"ha":625,"x_min":50,"x_max":581,"o":"m 50 0 l 50 959 l 313 959 q 519 897 457 959 q 581 697 581 836 q 559 580 581 628 q 483 505 538 532 q 562 420 544 473 q 581 282 581 366 q 555 119 581 180 q 471 28 529 57 q 313 0 412 0 l 50 0 m 243 174 l 290 174 q 366 200 346 174 q 387 297 387 227 q 366 389 387 361 q 290 418 345 418 l 243 418 l 243 174 m 243 585 l 293 585 q 366 606 345 585 q 387 685 387 628 q 366 763 387 741 q 293 785 345 785 l 243 785 l 243 585 z "},"Г":{"ha":471,"x_min":50,"x_max":477,"o":"m 50 0 l 50 959 l 477 959 l 477 783 l 244 783 l 244 0 l 50 0 z "},"Д":{"ha":837,"x_min":14,"x_max":823,"o":"m 14 -231 l 14 176 l 46 176 q 103 205 80 186 q 142 267 126 224 q 170 392 157 311 q 194 608 182 473 l 228 959 l 727 959 l 727 176 l 823 176 l 823 -231 l 629 -231 l 629 0 l 208 0 l 208 -231 l 14 -231 m 297 176 l 533 176 l 533 783 l 404 783 l 377 526 q 356 364 368 427 q 330 258 345 301 q 297 176 316 216 z "},"Е":{"ha":509,"x_min":50,"x_max":477,"o":"m 50 0 l 50 959 l 477 959 l 477 783 l 243 783 l 243 575 l 446 575 l 446 400 l 243 400 l 243 174 l 477 174 l 477 0 l 50 0 z "},"Ж":{"ha":1002,"x_min":14,"x_max":989,"o":"m 14 0 l 213 541 l 24 959 l 216 959 l 389 575 l 406 575 l 406 959 l 597 959 l 597 575 l 613 575 l 787 959 l 978 959 l 789 541 l 989 0 l 784 0 l 643 400 l 597 400 l 597 0 l 406 0 l 406 400 l 359 400 l 218 0 l 14 0 z "},"З":{"ha":636,"x_min":52,"x_max":591,"o":"m 336 -11 q 168 21 231 -11 q 79 111 106 53 q 52 243 52 168 l 52 259 l 245 259 l 245 243 q 264 188 245 213 q 317 163 283 163 q 379 195 361 163 q 397 305 397 227 l 397 324 q 382 397 397 376 q 320 418 368 418 l 282 418 l 282 585 l 321 585 q 383 601 369 585 q 397 663 397 617 l 397 674 q 386 768 397 736 q 323 799 374 799 q 268 786 283 799 q 249 754 252 773 q 245 718 245 735 q 245 716 245 716 l 245 699 l 52 699 l 52 716 q 78 846 52 788 q 166 939 104 905 q 335 972 228 972 q 469 938 411 972 q 559 844 526 903 q 591 713 591 785 l 591 697 q 494 505 591 553 q 568 434 545 479 q 591 305 591 389 l 591 282 q 525 63 591 137 q 336 -11 458 -11 z "},"И":{"ha":643,"x_min":50,"x_max":598,"o":"m 50 0 l 50 959 l 244 959 l 244 494 l 408 959 l 598 959 l 598 0 l 404 0 l 404 434 l 240 0 l 50 0 z "},"Й":{"ha":643,"x_min":50,"x_max":598,"o":"m 50 0 l 50 959 l 244 959 l 244 494 l 408 959 l 598 959 l 598 0 l 404 0 l 404 434 l 240 0 l 50 0 m 302 1017 q 174 1065 218 1017 q 130 1199 130 1112 l 130 1223 l 231 1223 l 231 1203 q 248 1126 231 1145 q 302 1108 266 1108 q 357 1126 339 1108 q 374 1203 374 1145 l 374 1223 l 475 1223 l 475 1199 q 431 1065 475 1112 q 302 1017 387 1017 z "},"К":{"ha":639,"x_min":50,"x_max":633,"o":"m 50 0 l 50 959 l 243 959 l 243 575 l 258 575 l 431 959 l 624 959 l 434 541 l 633 0 l 429 0 l 288 400 l 243 400 l 243 0 l 50 0 z "},"Л":{"ha":700,"x_min":27,"x_max":648,"o":"m 27 0 l 28 176 q 102 233 85 176 q 132 404 119 289 l 186 959 l 648 959 l 648 0 l 454 0 l 454 783 l 362 783 l 305 258 q 289 174 301 218 q 248 90 277 129 q 165 25 218 50 q 27 0 113 0 z "},"М":{"ha":780,"x_min":50,"x_max":731,"o":"m 50 0 l 50 959 l 244 959 l 389 481 l 537 959 l 731 959 l 731 0 l 537 0 l 537 503 l 439 174 l 339 174 l 244 499 l 244 0 l 50 0 z "},"Н":{"ha":631,"x_min":50,"x_max":581,"o":"m 50 0 l 50 959 l 244 959 l 244 575 l 387 575 l 387 959 l 581 959 l 581 0 l 387 0 l 387 400 l 244 400 l 244 0 l 50 0 z "},"О":{"ha":646,"x_min":46,"x_max":598,"o":"m 317 -11 q 119 57 193 -11 q 46 259 46 125 l 46 701 q 125 903 46 833 q 331 972 203 972 q 524 904 450 972 q 598 701 598 836 l 598 259 q 519 60 598 130 q 317 -11 441 -11 m 240 285 q 324 163 240 165 q 382 195 361 163 q 404 285 404 228 l 404 669 q 386 764 404 731 q 324 798 368 798 q 258 765 277 798 q 240 669 240 732 l 240 285 z "},"П":{"ha":716,"x_min":50,"x_max":663,"o":"m 50 0 l 50 959 l 663 959 l 663 0 l 469 0 l 469 783 l 244 783 l 244 0 l 50 0 z "},"Р":{"ha":600,"x_min":50,"x_max":579,"o":"m 50 0 l 50 959 l 311 959 q 517 883 456 959 q 579 648 579 807 q 517 413 579 490 q 311 336 456 336 l 243 336 l 243 0 l 50 0 m 243 513 l 305 513 q 368 545 351 513 q 385 648 385 578 q 369 751 385 716 q 305 785 353 785 l 243 785 l 243 513 z "},"С":{"ha":646,"x_min":46,"x_max":598,"o":"m 317 -11 q 119 57 193 -11 q 46 259 46 125 l 46 701 q 124 903 46 834 q 330 972 202 972 q 526 902 453 972 q 598 692 598 831 l 598 656 l 404 656 l 404 690 q 382 771 404 745 q 324 798 359 798 q 258 765 277 798 q 240 669 240 732 l 240 285 q 324 163 240 164 q 384 191 363 163 q 404 271 404 220 l 404 300 l 598 300 l 598 270 q 562 114 598 176 q 462 20 525 52 q 317 -11 399 -11 z "},"Т":{"ha":511,"x_min":4,"x_max":509,"o":"m 161 0 l 161 783 l 4 783 l 4 959 l 509 959 l 509 783 l 354 783 l 354 0 l 161 0 z "},"У":{"ha":586,"x_min":7,"x_max":581,"o":"m 75 0 l 75 194 l 91 194 q 206 315 161 194 l 218 353 l 7 959 l 220 959 l 317 666 l 366 959 l 581 959 l 384 316 q 268 76 334 152 q 106 0 202 0 l 75 0 z "},"Ф":{"ha":808,"x_min":46,"x_max":761,"o":"m 311 0 l 311 107 q 117 180 187 111 q 46 377 46 250 l 46 583 q 115 780 46 708 q 311 856 184 852 l 311 959 l 503 959 l 503 856 q 692 779 624 850 q 761 583 761 708 l 761 377 q 693 184 761 258 q 503 107 625 111 l 503 0 l 311 0 m 311 281 l 311 678 q 240 551 240 670 l 240 403 q 311 281 240 292 m 503 282 q 549 321 532 289 q 567 403 567 354 l 567 551 q 503 678 567 666 l 503 282 z "},"Х":{"ha":575,"x_min":7,"x_max":570,"o":"m 7 0 l 197 498 l 19 959 l 205 959 l 289 678 l 372 959 l 557 959 l 380 498 l 570 0 l 384 0 l 289 315 l 193 0 l 7 0 z "},"Ц":{"ha":754,"x_min":50,"x_max":741,"o":"m 547 -231 l 547 0 l 50 0 l 50 959 l 244 959 l 244 176 l 450 176 l 450 959 l 644 959 l 644 176 l 741 176 l 741 -231 l 547 -231 z "},"Ч":{"ha":631,"x_min":50,"x_max":578,"o":"m 385 0 l 385 289 q 351 286 368 288 q 316 283 335 283 q 178 317 239 283 q 84 410 118 351 q 50 547 50 469 l 50 959 l 244 959 l 244 551 q 261 480 244 503 q 316 457 278 457 q 334 458 320 457 q 363 460 347 458 q 385 467 378 463 l 385 959 l 578 959 l 578 0 l 385 0 z "},"Ш":{"ha":1089,"x_min":52,"x_max":1035,"o":"m 52 0 l 52 959 l 244 959 l 244 176 l 448 176 l 448 959 l 639 959 l 639 176 l 844 176 l 844 959 l 1035 959 l 1035 0 l 52 0 z "},"Щ":{"ha":1229,"x_min":52,"x_max":1214,"o":"m 1020 -231 l 1020 0 l 52 0 l 52 959 l 245 959 l 245 176 l 448 176 l 448 959 l 642 959 l 642 176 l 844 176 l 844 959 l 1038 959 l 1038 176 l 1214 176 l 1214 -231 l 1020 -231 z "},"Ъ":{"ha":738,"x_min":0,"x_max":693,"o":"m 163 0 l 163 783 l 0 783 l 0 959 l 355 959 l 355 623 l 423 623 q 629 548 564 623 q 693 311 693 473 q 629 73 693 146 q 423 0 566 0 l 163 0 m 355 174 l 418 174 q 498 311 498 174 q 479 414 498 382 q 418 446 461 446 l 355 446 l 355 174 z "},"Ы":{"ha":888,"x_min":50,"x_max":836,"o":"m 50 0 l 50 959 l 243 959 l 243 623 l 311 623 q 515 548 452 623 q 579 311 579 473 q 515 73 579 146 q 311 0 452 0 l 50 0 m 243 174 l 305 174 q 385 311 385 174 q 366 414 385 382 q 305 446 347 446 l 243 446 l 243 174 m 643 0 l 643 959 l 836 959 l 836 0 l 643 0 z "},"Ь":{"ha":624,"x_min":50,"x_max":579,"o":"m 50 0 l 50 959 l 243 959 l 243 623 l 311 623 q 515 548 452 623 q 579 311 579 473 q 515 73 579 146 q 311 0 452 0 l 50 0 m 243 174 l 305 174 q 385 311 385 174 q 366 414 385 382 q 305 446 347 446 l 243 446 l 243 174 z "},"Э":{"ha":646,"x_min":46,"x_max":598,"o":"m 328 -11 q 184 20 248 -11 q 84 114 121 52 q 47 270 47 176 l 47 300 l 240 300 l 240 271 q 261 191 240 220 q 321 163 282 163 q 404 285 404 164 l 404 400 l 243 400 l 243 575 l 404 575 l 404 669 q 387 765 404 732 q 321 798 369 798 q 263 771 286 798 q 240 690 240 745 l 240 656 l 46 656 l 46 692 q 119 902 46 831 q 315 972 191 972 q 520 903 442 972 q 598 701 598 834 l 598 259 q 526 57 598 125 q 328 -11 453 -11 z "},"Ю":{"ha":971,"x_min":50,"x_max":924,"o":"m 50 0 l 50 959 l 244 959 l 244 575 l 372 575 l 372 701 q 450 903 372 833 q 656 972 529 972 q 850 904 776 972 q 924 701 924 836 l 924 259 q 845 60 924 130 q 643 -11 766 -11 q 445 57 518 -11 q 372 259 372 125 l 372 400 l 244 400 l 244 0 l 50 0 m 566 285 q 650 163 566 165 q 708 195 686 163 q 730 285 730 228 l 730 669 q 711 764 730 731 q 650 798 693 798 q 584 765 602 798 q 566 669 566 732 l 566 285 z "},"Я":{"ha":636,"x_min":24,"x_max":586,"o":"m 24 0 l 160 410 q 81 510 104 445 q 57 667 57 575 q 116 889 57 819 q 321 959 175 959 l 586 959 l 586 0 l 392 0 l 392 374 l 335 374 l 227 0 l 24 0 m 251 667 q 267 576 251 606 q 324 547 282 547 l 392 547 l 392 785 l 324 785 q 264 755 278 785 q 251 667 251 724 z "},"а":{"ha":563,"x_min":38,"x_max":517,"o":"m 222 -11 q 84 50 130 -11 q 38 220 38 110 q 103 381 38 326 q 288 437 168 437 l 332 437 l 332 524 q 319 570 332 553 q 279 587 305 587 q 241 572 256 587 q 227 528 227 557 l 227 517 l 57 517 l 57 519 q 121 692 57 635 q 285 750 184 750 q 456 684 395 750 q 517 509 517 618 l 517 0 l 346 0 l 346 60 q 288 4 312 19 q 222 -11 264 -11 m 221 228 q 278 148 221 148 q 317 169 301 148 q 332 224 332 190 l 332 311 l 311 311 q 243 292 264 311 q 221 228 221 273 z "},"б":{"ha":571,"x_min":47,"x_max":525,"o":"m 286 -11 q 106 56 164 -11 q 47 260 47 123 l 47 620 q 69 762 47 709 q 130 842 91 814 q 221 886 170 871 q 332 917 273 902 q 456 959 392 932 l 456 773 q 334 730 382 746 q 261 690 286 713 q 232 617 236 667 q 282 648 245 636 q 357 659 319 659 q 442 635 404 659 q 503 574 480 610 q 525 500 525 538 l 525 260 q 468 55 525 121 q 286 -11 411 -11 m 231 255 q 285 153 231 153 q 340 255 340 153 l 340 392 q 285 494 340 494 q 231 392 231 494 l 231 255 z "},"в":{"ha":567,"x_min":49,"x_max":519,"o":"m 49 0 l 49 739 l 307 739 q 401 717 359 739 q 468 656 444 694 q 492 570 492 617 q 474 463 492 502 q 419 406 456 425 q 489 343 458 384 q 519 239 519 302 q 475 62 519 125 q 350 0 430 0 l 49 0 m 233 189 l 281 189 q 323 198 311 189 q 335 233 335 208 q 324 281 335 260 q 281 301 313 301 l 233 301 l 233 189 m 233 494 l 278 494 q 302 504 297 494 q 308 522 308 514 q 300 539 308 526 q 278 552 293 552 l 233 552 l 233 494 z "},"г":{"ha":408,"x_min":49,"x_max":392,"o":"m 49 0 l 49 739 l 392 739 l 392 552 l 232 552 l 232 0 l 49 0 z "},"д":{"ha":770,"x_min":27,"x_max":743,"o":"m 27 -231 l 27 187 l 81 187 q 146 237 121 187 q 180 406 171 288 l 208 739 l 647 739 l 647 187 l 743 187 l 743 -231 l 559 -231 l 559 0 l 212 0 l 212 -231 l 27 -231 m 312 187 l 463 187 l 463 552 l 378 552 l 365 361 q 346 267 361 308 q 312 187 331 225 z "},"е":{"ha":571,"x_min":47,"x_max":525,"o":"m 286 -11 q 111 56 174 -11 q 47 288 47 123 l 47 449 q 105 679 47 608 q 282 750 163 750 q 461 677 397 750 q 525 449 525 605 l 525 302 l 231 302 l 231 241 q 244 175 231 199 q 285 151 258 151 q 342 227 342 151 l 342 235 l 518 235 l 518 225 q 458 48 518 107 q 286 -11 399 -11 m 231 434 l 340 434 l 340 481 q 328 560 340 536 q 285 585 315 585 q 231 483 231 585 l 231 434 z "},"ж":{"ha":894,"x_min":11,"x_max":883,"o":"m 12 0 l 194 463 l 11 739 l 199 739 l 339 491 l 355 491 l 355 739 l 538 739 l 538 491 l 555 491 l 694 739 l 883 739 l 700 463 l 882 0 l 681 0 l 581 302 l 538 302 l 538 0 l 355 0 l 355 302 l 313 302 l 213 0 l 12 0 z "},"з":{"ha":604,"x_min":47,"x_max":559,"o":"m 308 -11 q 180 18 240 -11 q 84 100 121 46 q 47 231 47 155 l 47 239 l 232 239 l 232 232 q 254 174 232 194 q 312 153 277 153 q 357 174 339 153 q 374 221 374 195 l 374 233 q 307 319 374 319 l 262 319 l 262 476 l 317 476 q 361 526 361 476 l 361 543 q 345 572 361 559 q 305 585 328 585 q 253 565 274 585 q 232 511 232 545 l 232 502 l 47 502 l 47 514 q 81 641 47 589 q 175 722 115 693 q 309 750 235 750 q 431 726 378 750 q 515 660 484 701 q 545 568 545 618 l 545 553 q 520 467 545 505 q 454 418 495 429 q 505 389 481 415 q 544 324 529 362 q 559 247 559 286 l 559 209 q 526 97 559 146 q 436 18 492 47 q 308 -11 380 -11 z "},"и":{"ha":589,"x_min":49,"x_max":540,"o":"m 49 0 l 49 739 l 233 739 l 233 415 l 342 739 l 540 739 l 540 0 l 355 0 l 355 324 l 247 0 l 49 0 z "},"й":{"ha":589,"x_min":49,"x_max":540,"o":"m 49 0 l 49 739 l 233 739 l 233 415 l 342 739 l 540 739 l 540 0 l 355 0 l 355 324 l 247 0 l 49 0 m 289 793 q 161 841 205 793 q 117 975 117 888 l 117 1000 l 217 1000 l 217 979 q 235 903 217 921 q 289 884 252 884 q 343 903 326 884 q 361 979 361 921 l 361 1000 l 461 1000 l 461 975 q 417 841 461 888 q 289 793 373 793 z "},"к":{"ha":587,"x_min":49,"x_max":576,"o":"m 49 0 l 49 739 l 232 739 l 232 491 l 248 491 l 388 739 l 576 739 l 393 463 l 575 0 l 374 0 l 274 302 l 232 302 l 232 0 l 49 0 z "},"л":{"ha":629,"x_min":15,"x_max":581,"o":"m 15 0 l 15 187 q 78 216 54 187 q 104 290 102 245 l 141 739 l 581 739 l 581 0 l 396 0 l 396 552 l 313 552 l 288 198 q 208 54 282 107 q 15 0 133 0 z "},"м":{"ha":802,"x_min":49,"x_max":751,"o":"m 49 0 l 49 739 l 247 739 l 403 273 l 553 739 l 751 739 l 751 0 l 567 0 l 567 342 l 449 -27 l 351 -27 l 233 342 l 233 0 l 49 0 z "},"н":{"ha":568,"x_min":49,"x_max":519,"o":"m 49 0 l 49 739 l 233 739 l 233 491 l 335 491 l 335 739 l 519 739 l 519 0 l 335 0 l 335 302 l 233 302 l 233 0 l 49 0 z "},"о":{"ha":571,"x_min":47,"x_max":525,"o":"m 286 -11 q 109 52 170 -11 q 47 260 47 115 l 47 477 q 109 686 47 623 q 286 750 170 750 q 465 686 406 750 q 525 477 525 623 l 525 260 q 465 52 525 115 q 286 -11 406 -11 m 231 255 q 285 153 231 153 q 340 255 340 153 l 340 483 q 285 585 340 585 q 231 483 231 585 l 231 255 z "},"п":{"ha":563,"x_min":49,"x_max":514,"o":"m 49 0 l 49 739 l 514 739 l 514 0 l 331 0 l 331 551 l 233 551 l 233 0 l 49 0 z "},"р":{"ha":567,"x_min":49,"x_max":521,"o":"m 49 -222 l 49 739 l 225 739 l 225 685 q 351 750 273 750 q 475 695 429 750 q 521 515 521 640 l 521 224 q 472 45 521 100 q 347 -11 423 -11 q 232 38 281 -11 l 232 -222 l 49 -222 m 229 255 q 283 153 229 153 q 324 176 311 153 q 338 255 338 198 l 338 483 q 323 562 338 540 q 283 585 309 585 q 243 562 258 585 q 229 483 229 538 l 229 255 z "},"с":{"ha":563,"x_min":47,"x_max":517,"o":"m 286 -11 q 108 52 168 -11 q 47 260 47 115 l 47 477 q 109 686 47 623 q 286 750 170 750 q 458 690 399 750 q 517 507 517 629 l 517 476 l 340 476 l 340 505 q 286 585 340 585 q 231 483 231 585 l 231 255 q 285 153 231 153 q 326 173 312 153 q 340 236 340 193 l 340 260 l 517 260 l 517 236 q 458 50 517 111 q 286 -11 399 -11 z "},"т":{"ha":444,"x_min":4,"x_max":439,"o":"m 132 0 l 132 552 l 4 552 l 4 739 l 439 739 l 439 552 l 315 552 l 315 0 l 132 0 z "},"у":{"ha":585,"x_min":14,"x_max":572,"o":"m 69 -221 l 69 -60 l 140 -60 q 189 -55 168 -60 q 220 -45 210 -50 l 14 739 l 216 739 l 302 327 l 381 739 l 572 739 l 377 -47 q 325 -158 361 -121 q 228 -208 289 -195 q 72 -221 167 -221 l 69 -221 z "},"ф":{"ha":863,"x_min":47,"x_max":817,"o":"m 336 -222 l 336 38 q 221 -11 288 -11 q 93 50 138 -11 q 47 224 47 111 l 47 515 q 91 690 47 629 q 217 750 134 750 q 343 685 297 750 l 343 959 l 519 959 l 519 685 q 647 750 567 750 q 772 690 728 750 q 817 515 817 629 l 817 224 q 772 50 817 111 q 643 -11 727 -11 q 528 38 576 -11 l 528 -222 l 336 -222 m 231 255 q 286 153 231 153 q 340 255 340 153 l 340 483 q 286 585 340 585 q 231 483 231 585 l 231 255 m 524 255 q 578 153 524 153 q 632 255 632 153 l 632 483 q 578 585 632 585 q 524 483 524 585 l 524 255 z "},"х":{"ha":543,"x_min":14,"x_max":529,"o":"m 14 0 l 176 384 l 22 739 l 206 739 l 281 571 l 336 739 l 522 739 l 361 385 l 529 0 l 345 0 l 263 186 l 201 0 l 14 0 z "},"ц":{"ha":629,"x_min":49,"x_max":616,"o":"m 431 -231 l 431 0 l 49 0 l 49 739 l 233 739 l 233 187 l 335 187 l 335 739 l 519 739 l 519 187 l 616 187 l 616 -231 l 431 -231 z "},"ч":{"ha":567,"x_min":49,"x_max":518,"o":"m 335 0 l 335 229 q 277 220 307 224 q 225 217 247 217 q 117 244 155 217 q 64 315 79 271 q 49 408 49 359 l 49 739 l 232 739 l 232 448 q 232 446 232 448 q 234 422 232 438 q 247 394 236 407 q 283 381 258 381 q 307 383 290 381 q 335 391 324 385 l 335 739 l 518 739 l 518 0 l 335 0 z "},"ш":{"ha":849,"x_min":49,"x_max":800,"o":"m 49 0 l 49 739 l 233 739 l 233 189 l 332 189 l 332 739 l 517 739 l 517 189 l 617 189 l 617 739 l 800 739 l 800 0 l 49 0 z "},"щ":{"ha":910,"x_min":49,"x_max":897,"o":"m 713 -231 l 713 0 l 49 0 l 49 739 l 233 739 l 233 189 l 332 189 l 332 739 l 517 739 l 517 189 l 617 189 l 617 739 l 800 739 l 800 187 l 897 187 l 897 -231 l 713 -231 z "},"ъ":{"ha":655,"x_min":0,"x_max":609,"o":"m 140 0 l 140 552 l 0 552 l 0 739 l 323 739 l 323 491 l 395 491 q 523 454 476 491 q 589 359 570 418 q 609 232 609 300 q 585 119 609 172 q 522 33 560 66 q 439 0 483 0 l 140 0 m 323 189 l 372 189 q 414 199 401 189 q 426 235 426 209 q 414 283 426 263 q 372 302 403 302 l 323 302 l 323 189 z "},"ы":{"ha":819,"x_min":49,"x_max":770,"o":"m 49 0 l 49 739 l 233 739 l 233 491 l 305 491 q 433 454 387 491 q 500 359 480 418 q 519 232 519 300 q 495 119 519 172 q 432 33 471 66 q 350 0 393 0 l 49 0 m 233 189 l 281 189 q 323 199 311 189 q 335 235 335 209 q 324 283 335 263 q 281 302 313 302 l 233 302 l 233 189 m 586 0 l 586 739 l 770 739 l 770 0 l 586 0 z "},"ь":{"ha":566,"x_min":49,"x_max":519,"o":"m 49 0 l 49 739 l 233 739 l 233 491 l 305 491 q 433 454 387 491 q 500 359 480 418 q 519 232 519 300 q 495 119 519 172 q 432 33 471 66 q 350 0 393 0 l 49 0 m 233 189 l 281 189 q 323 199 311 189 q 335 235 335 209 q 324 283 335 263 q 281 302 313 302 l 233 302 l 233 189 z "},"э":{"ha":562,"x_min":46,"x_max":515,"o":"m 278 -11 q 106 50 165 -11 q 46 236 46 111 l 46 260 l 222 260 l 222 236 q 238 173 222 193 q 279 153 254 153 q 332 255 332 153 l 332 302 l 278 302 l 278 491 l 332 491 q 278 585 331 585 q 222 505 222 585 l 222 476 l 46 476 l 46 507 q 106 690 46 629 q 277 750 165 750 q 455 686 395 750 q 515 477 515 623 l 515 260 q 455 52 515 115 q 278 -11 395 -11 z "},"ю":{"ha":850,"x_min":49,"x_max":806,"o":"m 49 0 l 49 739 l 233 739 l 233 491 l 328 491 q 392 689 331 628 q 567 750 453 750 q 746 686 686 750 q 806 477 806 623 l 806 260 q 746 52 806 115 q 567 -11 686 -11 q 389 52 450 -11 q 328 260 328 115 l 328 302 l 233 302 l 233 0 l 49 0 m 511 255 q 566 153 511 153 q 621 255 621 153 l 621 483 q 566 585 621 585 q 511 483 511 585 l 511 255 z "},"я":{"ha":594,"x_min":47,"x_max":545,"o":"m 47 0 l 137 245 q 61 457 61 321 q 73 551 61 502 q 112 642 84 600 q 188 712 140 685 q 308 739 236 739 l 545 739 l 545 0 l 361 0 l 361 179 l 293 179 l 233 0 l 47 0 m 245 460 q 273 395 245 422 q 334 368 300 368 l 361 368 l 361 552 l 324 552 q 270 526 294 552 q 245 460 245 499 z "},"ѐ":{"ha":571,"x_min":47,"x_max":525,"o":"m 255 826 l 77 1017 l 271 1017 l 411 826 l 255 826 m 286 -11 q 111 56 174 -11 q 47 288 47 123 l 47 449 q 105 679 47 608 q 282 750 163 750 q 461 677 397 750 q 525 449 525 605 l 525 302 l 231 302 l 231 241 q 244 175 231 199 q 285 151 258 151 q 342 227 342 151 l 342 235 l 518 235 l 518 225 q 458 48 518 107 q 286 -11 399 -11 m 231 434 l 340 434 l 340 481 q 328 560 340 536 q 285 585 315 585 q 231 483 231 585 l 231 434 z "},"ё":{"ha":571,"x_min":47,"x_max":525,"o":"m 107 826 l 107 998 l 244 998 l 244 826 l 107 826 m 327 826 l 327 998 l 464 998 l 464 826 l 327 826 m 286 -11 q 111 56 174 -11 q 47 288 47 123 l 47 449 q 105 679 47 608 q 282 750 163 750 q 461 677 397 750 q 525 449 525 605 l 525 302 l 231 302 l 231 241 q 244 175 231 199 q 285 151 258 151 q 342 227 342 151 l 342 235 l 518 235 l 518 225 q 458 48 518 107 q 286 -11 399 -11 m 231 434 l 340 434 l 340 481 q 328 560 340 536 q 285 585 315 585 q 231 483 231 585 l 231 434 z "},"ђ":{"ha":566,"x_min":-5,"x_max":518,"o":"m 247 -222 l 247 -57 l 250 -57 q 335 28 335 -57 l 335 525 q 323 566 335 547 q 283 585 312 585 q 242 567 252 585 q 232 525 232 549 l 232 0 l 49 0 l 49 814 l -5 814 l -5 906 l 49 906 l 49 959 l 232 959 l 232 906 l 377 906 l 377 814 l 232 814 l 232 697 q 340 750 283 750 q 475 696 433 750 q 518 525 518 642 l 518 7 q 251 -222 513 -222 l 247 -222 z "},"ѓ":{"ha":408,"x_min":49,"x_max":430,"o":"m 49 0 l 49 739 l 392 739 l 392 552 l 232 552 l 232 0 l 49 0 m 95 826 l 236 1017 l 430 1017 l 252 826 l 95 826 z "},"є":{"ha":563,"x_min":47,"x_max":517,"o":"m 286 -11 q 106 56 164 -11 q 47 260 47 123 l 47 477 q 105 684 47 617 q 286 750 163 750 q 517 507 517 750 l 517 476 l 340 476 l 340 505 q 286 585 340 585 q 231 491 233 585 l 285 491 l 285 302 l 231 302 l 231 255 q 285 153 231 153 q 340 236 340 153 l 340 260 l 517 260 l 517 236 q 286 -11 517 -11 z "},"ѕ":{"ha":548,"x_min":38,"x_max":515,"o":"m 277 -11 q 102 50 165 -11 q 38 218 38 111 l 38 227 l 214 227 l 214 218 q 279 141 214 141 q 324 159 311 141 q 338 209 338 178 q 274 286 338 258 l 193 323 q 73 411 104 362 q 41 534 41 460 q 71 646 41 597 q 153 722 100 694 q 274 750 205 750 q 396 722 343 750 q 478 644 449 693 q 507 529 507 594 l 507 517 l 328 517 l 328 525 q 312 582 328 564 q 273 600 296 600 q 216 541 216 600 q 229 498 216 514 q 277 468 241 483 l 366 427 q 481 341 448 392 q 515 210 515 290 q 451 52 515 115 q 277 -11 387 -11 z "},"і":{"ha":288,"x_min":53,"x_max":237,"o":"m 53 0 l 53 739 l 237 739 l 237 0 l 53 0 m 53 821 l 53 959 l 236 959 l 236 821 l 53 821 z "},"ї":{"ha":289,"x_min":-35,"x_max":321,"o":"m 53 0 l 53 739 l 237 739 l 237 0 l 53 0 m -35 826 l -35 998 l 102 998 l 102 826 l -35 826 m 184 826 l 184 998 l 321 998 l 321 826 l 184 826 z "},"ј":{"ha":290,"x_min":-34,"x_max":239,"o":"m -34 -222 l -34 -57 l -30 -57 q 56 28 56 -57 l 56 739 l 239 739 l 239 18 q -28 -222 239 -222 l -34 -222 m 56 821 l 56 959 l 239 959 l 239 821 l 56 821 z "},"љ":{"ha":891,"x_min":15,"x_max":845,"o":"m 15 0 l 15 187 q 78 216 54 187 q 104 290 102 245 l 141 739 l 581 739 l 581 491 l 631 491 q 759 454 712 491 q 825 359 806 418 q 845 232 845 300 q 821 119 845 172 q 758 33 796 66 q 675 0 719 0 l 396 0 l 396 552 l 313 552 l 288 198 q 208 54 282 107 q 15 0 133 0 m 581 189 l 606 189 q 648 199 636 189 q 661 235 661 209 q 650 283 661 263 q 606 302 639 302 l 581 302 l 581 189 z "},"њ":{"ha":859,"x_min":49,"x_max":812,"o":"m 49 0 l 49 739 l 233 739 l 233 491 l 335 491 l 335 739 l 519 739 l 519 491 l 598 491 q 726 454 680 491 q 793 359 773 418 q 812 232 812 300 q 788 119 812 172 q 725 33 764 66 q 643 0 686 0 l 335 0 l 335 302 l 233 302 l 233 0 l 49 0 m 519 189 l 575 189 q 617 199 605 189 q 629 235 629 209 q 618 283 629 263 q 575 302 606 302 l 519 302 l 519 189 z "},"ћ":{"ha":566,"x_min":-5,"x_max":518,"o":"m -5 814 l -5 906 l 49 906 l 49 959 l 232 959 l 232 906 l 377 906 l 377 814 l 232 814 l 232 697 q 340 750 285 750 q 477 692 437 750 q 518 525 518 635 l 518 0 l 335 0 l 335 525 q 321 570 335 555 q 283 585 307 585 q 232 525 232 585 l 232 0 l 49 0 l 49 814 l -5 814 z "},"ќ":{"ha":587,"x_min":49,"x_max":576,"o":"m 49 0 l 49 739 l 232 739 l 232 491 l 248 491 l 388 739 l 576 739 l 393 463 l 575 0 l 374 0 l 274 302 l 232 302 l 232 0 l 49 0 m 170 826 l 311 1017 l 505 1017 l 327 826 l 170 826 z "},"ѝ":{"ha":589,"x_min":49,"x_max":540,"o":"m 49 0 l 49 739 l 233 739 l 233 415 l 342 739 l 540 739 l 540 0 l 355 0 l 355 324 l 247 0 l 49 0 m 258 826 l 80 1017 l 274 1017 l 414 826 l 258 826 z "},"ў":{"ha":585,"x_min":14,"x_max":572,"o":"m 69 -221 l 69 -60 l 140 -60 q 189 -55 168 -60 q 220 -45 210 -50 l 14 739 l 216 739 l 302 327 l 381 739 l 572 739 l 377 -47 q 325 -158 361 -121 q 228 -208 289 -195 q 72 -221 167 -221 l 69 -221 m 301 793 q 173 841 217 793 q 129 975 129 888 l 129 1000 l 229 1000 l 229 979 q 247 903 229 921 q 301 884 264 884 q 355 903 338 884 q 373 979 373 921 l 373 1000 l 473 1000 l 473 975 q 429 841 473 888 q 301 793 385 793 z "},"џ":{"ha":568,"x_min":49,"x_max":519,"o":"m 191 -231 l 191 0 l 49 0 l 49 739 l 233 739 l 233 187 l 335 187 l 335 739 l 519 739 l 519 0 l 376 0 l 376 -231 l 191 -231 z "},"Ґ":{"ha":502,"x_min":50,"x_max":477,"o":"m 311 959 l 311 1176 l 477 1176 l 477 783 l 244 783 l 244 0 l 50 0 l 50 959 l 311 959 z "},"ґ":{"ha":408,"x_min":49,"x_max":392,"o":"m 220 739 l 220 944 l 392 944 l 392 552 l 232 552 l 232 0 l 49 0 l 49 739 l 220 739 z "},"Ү":{"ha":586,"x_min":7,"x_max":581,"o":"m 197 0 l 197 370 l 7 959 l 220 959 l 293 616 l 366 959 l 581 959 l 389 365 l 389 0 l 197 0 z "},"ү":{"ha":547,"x_min":9,"x_max":537,"o":"m 176 -221 l 176 151 l 9 739 l 221 739 l 273 400 l 323 739 l 537 739 l 369 145 l 369 -221 l 176 -221 z "},"Ө":{"ha":646,"x_min":46,"x_max":598,"o":"m 317 -11 q 119 57 193 -11 q 46 259 46 125 l 46 701 q 125 903 46 833 q 331 972 203 972 q 524 904 450 972 q 598 701 598 836 l 598 259 q 519 60 598 130 q 317 -11 441 -11 m 240 285 q 324 163 240 165 q 382 195 361 163 q 404 285 404 228 l 404 669 q 386 764 404 731 q 324 798 368 798 q 258 765 277 798 q 240 669 240 732 l 240 285 m 79 393 l 79 567 l 566 567 l 566 393 l 79 393 z "},"ө":{"ha":571,"x_min":47,"x_max":525,"o":"m 286 -11 q 109 52 170 -11 q 47 260 47 115 l 47 477 q 109 686 47 623 q 286 750 170 750 q 465 686 406 750 q 525 477 525 623 l 525 260 q 465 52 525 115 q 286 -11 406 -11 m 231 255 q 285 153 231 153 q 340 255 340 153 l 340 483 q 285 585 340 585 q 231 483 231 585 l 231 255 m 95 289 l 95 463 l 477 463 l 477 289 l 95 289 z "},"Ḍ":{"ha":636,"x_min":50,"x_max":590,"o":"m 50 0 l 50 959 l 321 959 q 516 890 442 959 q 590 689 590 822 l 590 270 q 513 70 590 140 q 309 0 435 0 l 50 0 m 243 174 l 316 174 q 376 205 355 174 q 396 296 396 237 l 396 652 q 316 783 396 783 l 243 783 l 243 174 m 228 -256 l 228 -117 l 420 -117 l 420 -256 l 228 -256 z "},"ḍ":{"ha":567,"x_min":47,"x_max":521,"o":"m 224 -11 q 96 45 145 -11 q 47 224 47 102 l 47 515 q 94 694 47 639 q 220 750 141 750 q 290 733 258 750 q 338 685 321 716 l 338 959 l 521 959 l 521 0 l 346 0 l 346 47 q 224 -11 292 -11 m 231 255 q 244 177 231 201 q 288 153 258 153 q 342 255 342 153 l 342 483 q 328 562 342 538 q 286 585 315 585 q 243 561 256 585 q 231 483 231 537 l 231 255 m 194 -256 l 194 -117 l 387 -117 l 387 -256 l 194 -256 z "},"Ḥ":{"ha":631,"x_min":50,"x_max":581,"o":"m 50 0 l 50 959 l 244 959 l 244 575 l 387 575 l 387 959 l 581 959 l 581 0 l 387 0 l 387 400 l 244 400 l 244 0 l 50 0 m 225 -256 l 225 -117 l 418 -117 l 418 -256 l 225 -256 z "},"ḥ":{"ha":566,"x_min":49,"x_max":518,"o":"m 49 0 l 49 959 l 232 959 l 232 697 q 340 750 285 750 q 477 692 437 750 q 518 525 518 635 l 518 0 l 335 0 l 335 525 q 321 570 335 555 q 283 585 307 585 q 232 525 232 585 l 232 0 l 49 0 m 193 -256 l 193 -117 l 385 -117 l 385 -256 l 193 -256 z "},"Ḱ":{"ha":639,"x_min":50,"x_max":633,"o":"m 50 0 l 50 959 l 243 959 l 243 534 l 411 959 l 604 959 l 415 563 l 633 0 l 429 0 l 305 339 l 243 203 l 243 0 l 50 0 m 199 1080 l 340 1271 l 534 1271 l 357 1080 l 199 1080 z "},"ḱ":{"ha":587,"x_min":33,"x_max":575,"o":"m 49 0 l 49 959 l 232 959 l 232 465 l 385 739 l 575 739 l 387 448 l 575 0 l 374 0 l 274 270 l 232 206 l 232 0 l 49 0 m 33 1080 l 174 1271 l 368 1271 l 190 1080 l 33 1080 z "},"Ḷ":{"ha":498,"x_min":50,"x_max":477,"o":"m 50 0 l 50 959 l 244 959 l 244 174 l 477 174 l 477 0 l 50 0 m 149 -256 l 149 -117 l 342 -117 l 342 -256 l 149 -256 z "},"ḷ":{"ha":335,"x_min":49,"x_max":319,"o":"m 316 0 q 49 240 49 0 l 49 959 l 232 959 l 232 252 q 316 164 232 164 l 319 164 l 319 0 l 316 0 m 76 -256 l 76 -117 l 269 -117 l 269 -256 l 76 -256 z "},"Ḿ":{"ha":780,"x_min":50,"x_max":731,"o":"m 50 0 l 50 959 l 244 959 l 389 481 l 537 959 l 731 959 l 731 0 l 537 0 l 537 503 l 439 174 l 339 174 l 244 499 l 244 0 l 50 0 m 269 1080 l 410 1271 l 604 1271 l 426 1080 l 269 1080 z "},"ḿ":{"ha":852,"x_min":49,"x_max":804,"o":"m 49 0 l 49 739 l 224 739 l 224 689 q 342 750 277 750 q 421 731 384 750 q 480 678 458 712 q 545 730 507 711 q 620 750 583 750 q 764 694 723 750 q 804 525 804 637 l 804 0 l 621 0 l 621 525 q 568 585 621 585 q 518 524 518 585 l 518 0 l 335 0 l 335 525 q 321 570 335 555 q 283 585 307 585 q 232 525 232 585 l 232 0 l 49 0 m 305 826 l 446 1017 l 640 1017 l 463 826 l 305 826 z "},"Ṕ":{"ha":600,"x_min":50,"x_max":579,"o":"m 50 0 l 50 959 l 311 959 q 517 883 456 959 q 579 648 579 807 q 517 413 579 490 q 311 336 456 336 l 243 336 l 243 0 l 50 0 m 243 513 l 305 513 q 368 545 351 513 q 385 648 385 578 q 369 751 385 716 q 305 785 353 785 l 243 785 l 243 513 m 179 1080 l 320 1271 l 514 1271 l 336 1080 l 179 1080 z "},"ṕ":{"ha":567,"x_min":49,"x_max":521,"o":"m 49 -222 l 49 739 l 225 739 l 225 685 q 351 750 273 750 q 475 695 429 750 q 521 515 521 640 l 521 224 q 472 45 521 100 q 347 -11 423 -11 q 232 38 281 -11 l 232 -222 l 49 -222 m 229 255 q 283 153 229 153 q 324 176 311 153 q 338 255 338 198 l 338 483 q 323 562 338 540 q 283 585 309 585 q 243 562 258 585 q 229 483 229 538 l 229 255 m 164 826 l 305 1017 l 499 1017 l 321 826 l 164 826 z "},"Ṛ":{"ha":636,"x_min":50,"x_max":612,"o":"m 50 0 l 50 959 l 315 959 q 520 889 461 959 q 579 667 579 819 q 555 510 579 575 q 476 410 532 445 l 612 0 l 410 0 l 301 374 l 244 374 l 244 0 l 50 0 m 244 547 l 312 547 q 370 576 354 547 q 385 667 385 606 q 372 755 385 724 q 312 785 359 785 l 244 785 l 244 547 m 228 -256 l 228 -117 l 420 -117 l 420 -256 l 228 -256 z "},"ṛ":{"ha":433,"x_min":49,"x_max":416,"o":"m 49 0 l 49 739 l 224 739 l 224 670 q 286 734 252 716 q 366 753 320 753 q 391 751 378 753 q 416 747 404 750 l 416 552 q 378 564 397 560 q 342 567 359 567 q 262 535 293 567 q 232 445 232 503 l 232 0 l 49 0 m 125 -256 l 125 -117 l 317 -117 l 317 -256 l 125 -256 z "},"Ṣ":{"ha":591,"x_min":22,"x_max":559,"o":"m 288 -11 q 92 64 160 -11 q 22 278 24 138 l 205 278 q 292 155 206 155 q 353 182 335 155 q 370 269 370 209 q 347 347 370 316 q 270 403 324 378 l 202 435 q 71 538 111 479 q 31 705 31 598 q 101 899 31 825 q 294 974 171 974 q 479 901 414 974 q 548 690 545 827 l 372 690 q 355 778 370 749 q 296 807 339 807 q 218 715 218 807 q 238 642 218 669 q 304 595 258 616 l 369 567 q 514 453 469 521 q 559 271 559 385 q 487 62 559 136 q 288 -11 415 -11 m 205 -256 l 205 -117 l 397 -117 l 397 -256 l 205 -256 z "},"ṣ":{"ha":548,"x_min":38,"x_max":515,"o":"m 277 -11 q 102 50 165 -11 q 38 218 38 111 l 38 227 l 214 227 l 214 218 q 279 141 214 141 q 324 159 311 141 q 338 209 338 178 q 274 286 338 258 l 193 323 q 73 411 104 362 q 41 534 41 460 q 71 646 41 597 q 153 722 100 694 q 274 750 205 750 q 396 722 343 750 q 478 644 449 693 q 507 529 507 594 l 507 517 l 328 517 l 328 525 q 312 582 328 564 q 273 600 296 600 q 216 541 216 600 q 229 498 216 514 q 277 468 241 483 l 366 427 q 481 341 448 392 q 515 210 515 290 q 451 52 515 115 q 277 -11 387 -11 m 182 -256 l 182 -117 l 374 -117 l 374 -256 l 182 -256 z "},"Ṭ":{"ha":511,"x_min":4,"x_max":509,"o":"m 161 0 l 161 783 l 4 783 l 4 959 l 509 959 l 509 783 l 354 783 l 354 0 l 161 0 m 164 -256 l 164 -117 l 357 -117 l 357 -256 l 164 -256 z "},"ṭ":{"ha":422,"x_min":22,"x_max":395,"o":"m 373 0 q 170 58 239 0 q 102 241 102 117 l 102 613 l 22 613 l 22 739 l 102 739 l 102 861 l 285 933 l 285 739 l 395 739 l 395 613 l 285 613 l 285 252 q 373 164 285 164 l 373 0 m 374 0 l 373 0 l 373 0 q 374 0 373 0 m 119 -256 l 119 -117 l 312 -117 l 312 -256 l 119 -256 z "},"Ẁ":{"ha":945,"x_min":7,"x_max":937,"o":"m 172 0 l 7 959 l 203 959 l 282 271 l 355 959 l 590 959 l 665 271 l 743 959 l 937 959 l 772 0 l 563 0 l 472 515 l 380 0 l 172 0 m 441 1080 l 263 1271 l 457 1271 l 597 1080 l 441 1080 z "},"ẁ":{"ha":860,"x_min":14,"x_max":846,"o":"m 182 0 l 14 739 l 216 739 l 279 290 l 354 739 l 505 739 l 581 290 l 643 739 l 846 739 l 677 0 l 499 0 l 430 418 l 358 0 l 182 0 m 400 826 l 222 1017 l 416 1017 l 556 826 l 400 826 z "},"Ẃ":{"ha":945,"x_min":7,"x_max":937,"o":"m 172 0 l 7 959 l 203 959 l 282 271 l 355 959 l 590 959 l 665 271 l 743 959 l 937 959 l 772 0 l 563 0 l 472 515 l 380 0 l 172 0 m 338 1080 l 479 1271 l 673 1271 l 495 1080 l 338 1080 z "},"ẃ":{"ha":860,"x_min":14,"x_max":846,"o":"m 182 0 l 14 739 l 216 739 l 279 290 l 354 739 l 505 739 l 581 290 l 643 739 l 846 739 l 677 0 l 499 0 l 430 418 l 358 0 l 182 0 m 297 826 l 438 1017 l 632 1017 l 454 826 l 297 826 z "},"Ẅ":{"ha":945,"x_min":7,"x_max":937,"o":"m 172 0 l 7 959 l 203 959 l 282 271 l 355 959 l 590 959 l 665 271 l 743 959 l 937 959 l 772 0 l 563 0 l 472 515 l 380 0 l 172 0 m 293 1080 l 293 1252 l 430 1252 l 430 1080 l 293 1080 m 513 1080 l 513 1252 l 650 1252 l 650 1080 l 513 1080 z "},"ẅ":{"ha":860,"x_min":14,"x_max":846,"o":"m 182 0 l 14 739 l 216 739 l 279 290 l 354 739 l 505 739 l 581 290 l 643 739 l 846 739 l 677 0 l 499 0 l 430 418 l 358 0 l 182 0 m 252 826 l 252 998 l 389 998 l 389 826 l 252 826 m 472 826 l 472 998 l 609 998 l 609 826 l 472 826 z "},"Ẓ":{"ha":486,"x_min":26,"x_max":464,"o":"m 26 0 l 26 176 l 269 783 l 39 783 l 39 959 l 460 959 l 460 783 l 217 176 l 464 176 l 464 0 l 26 0 m 153 -256 l 153 -117 l 346 -117 l 346 -256 l 153 -256 z "},"ẓ":{"ha":537,"x_min":47,"x_max":490,"o":"m 47 0 l 47 152 l 309 585 l 47 585 l 47 739 l 490 739 l 490 585 l 235 152 l 490 152 l 490 0 l 47 0 m 176 -256 l 176 -117 l 369 -117 l 369 -256 l 176 -256 z "},"ẞ":{"ha":811,"x_min":49,"x_max":776,"o":"m 302 -4 l 302 178 l 458 178 q 493 180 471 178 q 538 192 515 182 q 577 225 562 202 q 593 290 593 248 q 572 360 593 336 q 519 393 551 384 q 453 403 487 403 l 301 403 l 301 545 l 476 780 q 331 830 502 833 q 257 786 281 829 q 233 646 233 743 l 233 1 l 49 1 l 49 646 q 93 842 49 770 q 210 941 137 913 q 368 968 283 970 q 484 949 423 968 q 600 890 544 930 q 694 781 655 849 l 541 575 q 718 473 661 551 q 776 290 776 396 q 748 129 776 189 q 673 41 720 69 q 565 4 625 12 q 438 -4 505 -4 l 302 -4 z "},"Ạ":{"ha":684,"x_min":7,"x_max":677,"o":"m 7 0 l 247 959 l 438 959 l 677 0 l 476 0 l 445 167 l 240 167 l 209 0 l 7 0 m 275 342 l 411 342 l 343 703 l 275 342 m 251 -256 l 251 -117 l 444 -117 l 444 -256 l 251 -256 z "},"ạ":{"ha":563,"x_min":38,"x_max":517,"o":"m 222 -11 q 84 50 130 -11 q 38 220 38 110 q 103 381 38 326 q 288 437 168 437 l 332 437 l 332 524 q 319 570 332 553 q 279 587 305 587 q 241 572 256 587 q 227 528 227 557 l 227 517 l 57 517 l 57 519 q 121 692 57 635 q 285 750 184 750 q 456 684 395 750 q 517 509 517 618 l 517 0 l 346 0 l 346 60 q 288 4 312 19 q 222 -11 264 -11 m 221 228 q 278 148 221 148 q 317 169 301 148 q 332 224 332 190 l 332 311 l 311 311 q 243 292 264 311 q 221 228 221 273 m 191 -256 l 191 -117 l 384 -117 l 384 -256 l 191 -256 z "},"Ẹ":{"ha":509,"x_min":50,"x_max":477,"o":"m 50 0 l 50 959 l 477 959 l 477 783 l 243 783 l 243 575 l 446 575 l 446 400 l 243 400 l 243 174 l 477 174 l 477 0 l 50 0 m 163 -256 l 163 -117 l 355 -117 l 355 -256 l 163 -256 z "},"ẹ":{"ha":571,"x_min":47,"x_max":525,"o":"m 286 -11 q 111 56 174 -11 q 47 288 47 123 l 47 449 q 105 679 47 608 q 282 750 163 750 q 461 677 397 750 q 525 449 525 605 l 525 302 l 231 302 l 231 241 q 244 175 231 199 q 285 151 258 151 q 342 227 342 151 l 342 235 l 518 235 l 518 225 q 458 48 518 107 q 286 -11 399 -11 m 231 434 l 340 434 l 340 481 q 328 560 340 536 q 285 585 315 585 q 231 483 231 585 l 231 434 m 195 -256 l 195 -117 l 388 -117 l 388 -256 l 195 -256 z "},"Ị":{"ha":302,"x_min":54,"x_max":254,"o":"m 54 0 l 54 959 l 247 959 l 247 0 l 54 0 m 61 -256 l 61 -117 l 254 -117 l 254 -256 l 61 -256 z "},"ị":{"ha":288,"x_min":53,"x_max":245,"o":"m 53 0 l 53 739 l 237 739 l 237 0 l 53 0 m 53 821 l 53 959 l 236 959 l 236 821 l 53 821 m 53 -256 l 53 -117 l 245 -117 l 245 -256 l 53 -256 z "},"Ọ":{"ha":646,"x_min":46,"x_max":598,"o":"m 317 -11 q 119 57 193 -11 q 46 259 46 125 l 46 701 q 125 903 46 833 q 331 972 203 972 q 524 904 450 972 q 598 701 598 836 l 598 259 q 519 60 598 130 q 317 -11 441 -11 m 240 285 q 324 163 240 165 q 382 195 361 163 q 404 285 404 228 l 404 669 q 386 764 404 731 q 324 798 368 798 q 258 765 277 798 q 240 669 240 732 l 240 285 m 233 -256 l 233 -117 l 426 -117 l 426 -256 l 233 -256 z "},"ọ":{"ha":571,"x_min":47,"x_max":525,"o":"m 286 -11 q 109 52 170 -11 q 47 260 47 115 l 47 477 q 109 686 47 623 q 286 750 170 750 q 465 686 406 750 q 525 477 525 623 l 525 260 q 465 52 525 115 q 286 -11 406 -11 m 231 255 q 285 153 231 153 q 340 255 340 153 l 340 483 q 285 585 340 585 q 231 483 231 585 l 231 255 m 194 -256 l 194 -117 l 387 -117 l 387 -256 l 194 -256 z "},"Ụ":{"ha":629,"x_min":50,"x_max":579,"o":"m 316 -11 q 179 23 239 -11 q 85 117 119 57 q 50 254 50 176 l 50 959 l 244 959 l 244 256 q 260 184 244 206 q 316 163 277 163 q 371 186 357 163 q 385 256 385 210 l 385 959 l 579 959 l 579 254 q 545 117 579 176 q 450 23 510 57 q 316 -11 391 -11 m 225 -256 l 225 -117 l 418 -117 l 418 -256 l 225 -256 z "},"ụ":{"ha":566,"x_min":49,"x_max":518,"o":"m 283 -11 q 139 18 190 -11 q 68 106 88 47 q 49 254 49 165 l 49 739 l 232 739 l 232 278 q 239 180 232 208 q 283 153 245 153 q 329 179 323 153 q 335 262 335 205 q 335 270 335 266 q 335 278 335 274 l 335 739 l 518 739 l 518 254 q 498 103 518 161 q 428 17 479 45 q 283 -11 377 -11 m 193 -256 l 193 -117 l 385 -117 l 385 -256 l 193 -256 z "},"Ỳ":{"ha":586,"x_min":7,"x_max":581,"o":"m 197 0 l 197 370 l 7 959 l 220 959 l 293 616 l 366 959 l 581 959 l 389 365 l 389 0 l 197 0 m 262 1080 l 84 1271 l 278 1271 l 418 1080 l 262 1080 z "},"ỳ":{"ha":585,"x_min":14,"x_max":572,"o":"m 69 -221 l 69 -60 l 140 -60 q 189 -55 168 -60 q 220 -45 210 -50 l 14 739 l 216 739 l 302 327 l 381 739 l 572 739 l 377 -47 q 325 -158 361 -121 q 228 -208 289 -195 q 72 -221 167 -221 l 69 -221 m 260 826 l 83 1017 l 277 1017 l 416 826 l 260 826 z "},"Ỵ":{"ha":586,"x_min":7,"x_max":581,"o":"m 197 0 l 197 370 l 7 959 l 220 959 l 293 616 l 366 959 l 581 959 l 389 365 l 389 0 l 197 0 m 202 -256 l 202 -117 l 395 -117 l 395 -256 l 202 -256 z "},"ỵ":{"ha":585,"x_min":14,"x_max":593,"o":"m 69 -221 l 69 -60 l 140 -60 q 189 -55 168 -60 q 220 -45 210 -50 l 14 739 l 216 739 l 302 327 l 381 739 l 572 739 l 377 -47 q 325 -158 361 -121 q 228 -208 289 -195 q 72 -221 167 -221 l 69 -221 m 400 -256 l 400 -117 l 593 -117 l 593 -256 l 400 -256 z "},"‐":{"ha":476,"x_min":47,"x_max":430,"o":"m 47 393 l 47 567 l 430 567 l 430 393 l 47 393 z "},"–":{"ha":579,"x_min":0,"x_max":579,"o":"m 0 393 l 0 567 l 579 567 l 579 393 l 0 393 z "},"—":{"ha":1156,"x_min":0,"x_max":1157,"o":"m 0 393 l 0 567 l 1157 567 l 1157 393 l 0 393 z "},"‘":{"ha":247,"x_min":35,"x_max":212,"o":"m 35 576 l 35 869 l 212 1010 l 212 576 l 35 576 z "},"’":{"ha":247,"x_min":35,"x_max":212,"o":"m 35 525 l 35 959 l 212 959 l 212 666 l 35 525 z "},"‚":{"ha":247,"x_min":35,"x_max":212,"o":"m 35 -232 l 35 203 l 212 203 l 212 -91 l 35 -232 z "},"“":{"ha":519,"x_min":35,"x_max":486,"o":"m 308 576 l 308 869 l 486 1010 l 486 576 l 308 576 m 35 576 l 35 869 l 212 1010 l 212 576 l 35 576 z "},"”":{"ha":519,"x_min":35,"x_max":486,"o":"m 308 525 l 308 959 l 486 959 l 486 666 l 308 525 m 35 525 l 35 959 l 212 959 l 212 666 l 35 525 z "},"„":{"ha":519,"x_min":35,"x_max":484,"o":"m 35 -232 l 35 203 l 212 203 l 212 -91 l 35 -232 m 308 -232 l 308 203 l 484 203 l 484 -91 l 308 -232 z "},"†":{"ha":624,"x_min":49,"x_max":578,"o":"m 217 -222 l 217 515 l 49 515 l 49 690 l 217 690 l 217 959 l 411 959 l 411 690 l 578 690 l 578 515 l 411 515 l 411 -222 l 217 -222 z "},"‡":{"ha":624,"x_min":49,"x_max":578,"o":"m 217 -222 l 217 62 l 49 62 l 49 237 l 217 237 l 217 513 l 49 513 l 49 689 l 217 689 l 217 959 l 411 959 l 411 689 l 578 689 l 578 513 l 411 513 l 411 237 l 578 237 l 578 62 l 411 62 l 411 -222 l 217 -222 z "},"•":{"ha":537,"x_min":71,"x_max":464,"o":"m 267 232 q 127 289 184 232 q 71 427 71 346 q 127 567 71 510 q 267 624 183 624 q 408 567 353 624 q 464 427 464 511 q 408 289 464 345 q 267 232 351 232 z "},"…":{"ha":911,"x_min":35,"x_max":878,"o":"m 35 0 l 35 203 l 216 203 l 216 0 l 35 0 m 366 0 l 366 203 l 547 203 l 547 0 l 366 0 m 697 0 l 697 203 l 878 203 l 878 0 l 697 0 z "},"‰":{"ha":1488,"x_min":31,"x_max":1458,"o":"m 363 0 l 723 974 l 848 974 l 488 0 l 363 0 m 890 -23 q 720 156 720 -23 l 720 415 q 890 594 720 595 q 1058 414 1059 594 l 1058 156 q 890 -23 1058 -23 m 850 153 q 858 119 850 129 q 891 110 865 110 q 924 123 916 110 q 932 153 932 136 l 932 416 q 922 451 932 444 q 890 458 913 458 q 858 452 865 458 q 850 416 850 446 l 850 153 m 1289 -23 q 1119 156 1119 -23 l 1119 415 q 1289 594 1119 595 q 1457 414 1458 594 l 1457 156 q 1289 -23 1457 -23 m 1249 153 q 1257 119 1249 129 q 1290 110 1264 110 q 1322 123 1314 110 q 1331 153 1331 136 l 1331 416 q 1321 451 1331 444 q 1289 458 1312 458 q 1257 452 1264 458 q 1249 416 1249 446 l 1249 153 m 201 366 q 31 545 31 366 l 31 804 q 201 983 31 985 q 369 803 370 983 l 369 545 q 201 366 369 366 m 161 543 q 169 509 161 518 q 202 499 176 499 q 235 512 227 499 q 243 543 243 525 l 243 806 q 233 840 243 833 q 201 848 224 848 q 169 842 176 848 q 161 806 161 836 l 161 543 z "},"′":{"ha":289,"x_min":37,"x_max":260,"o":"m 37 826 l 66 1017 l 260 1017 l 193 826 l 37 826 z "},"″":{"ha":538,"x_min":37,"x_max":509,"o":"m 285 826 l 315 1017 l 509 1017 l 441 826 l 285 826 m 37 826 l 66 1017 l 260 1017 l 193 826 l 37 826 z "},"‹":{"ha":340,"x_min":16,"x_max":293,"o":"m 293 85 l 16 366 l 293 648 l 293 479 l 182 366 l 293 252 l 293 85 z "},"›":{"ha":350,"x_min":49,"x_max":326,"o":"m 49 85 l 49 252 l 160 366 l 49 479 l 49 648 l 326 366 l 49 85 z "},"⁄":{"ha":281,"x_min":-102,"x_max":382,"o":"m -102 0 l 258 974 l 382 974 l 23 0 l -102 0 z "},"⁰":{"ha":363,"x_min":14,"x_max":353,"o":"m 183 570 q 14 749 14 570 l 14 1008 q 183 1187 14 1188 q 351 1006 353 1187 l 351 749 q 183 570 351 570 m 144 746 q 151 712 144 722 q 184 703 159 703 q 217 715 209 703 q 225 746 225 728 l 225 1009 q 216 1044 225 1036 q 183 1051 206 1051 q 151 1045 159 1051 q 144 1009 144 1039 l 144 746 z "},"⁴":{"ha":381,"x_min":5,"x_max":380,"o":"m 214 578 l 214 666 l 5 666 l 5 787 l 127 1177 l 286 1177 l 168 799 l 214 799 l 214 918 l 354 918 l 354 799 l 380 799 l 380 666 l 354 666 l 354 578 l 214 578 z "},"⁵":{"ha":362,"x_min":14,"x_max":351,"o":"m 180 570 q 14 726 14 570 l 14 772 l 168 772 l 168 731 q 172 707 168 711 q 180 703 175 703 q 191 707 187 703 q 193 730 195 712 l 193 829 q 182 850 193 850 q 163 826 171 850 l 20 826 l 20 1177 l 351 1177 l 351 1042 l 167 1042 l 167 972 q 191 979 178 978 q 217 981 203 981 q 350 834 350 981 l 350 727 q 306 610 350 650 q 180 570 262 570 z "},"⁶":{"ha":355,"x_min":9,"x_max":350,"o":"m 179 570 q 52 611 95 570 q 9 727 9 652 l 9 811 q 43 947 9 880 l 155 1177 l 320 1177 l 220 964 l 224 964 q 317 924 283 962 q 347 825 350 887 l 347 722 q 302 608 347 647 q 179 570 258 568 m 144 739 q 152 718 144 731 q 178 704 160 704 q 206 718 199 704 q 213 741 213 732 l 213 798 q 205 820 213 807 q 178 833 197 833 q 152 821 160 833 q 144 803 144 810 l 144 739 z "},"⁷":{"ha":343,"x_min":1,"x_max":343,"o":"m 35 578 l 180 1043 l 1 1043 l 1 1177 l 343 1177 l 343 1057 l 194 578 l 35 578 z "},"⁸":{"ha":366,"x_min":11,"x_max":355,"o":"m 183 570 q 56 610 100 570 q 14 731 11 651 l 14 788 q 52 890 14 853 q 12 982 12 922 l 12 1036 q 59 1145 12 1104 q 184 1185 106 1187 q 309 1145 263 1185 q 355 1036 355 1105 l 355 982 q 313 891 355 925 q 354 788 354 854 l 354 731 q 311 613 354 656 q 183 570 267 570 m 189 701 q 232 713 227 701 q 236 739 237 726 q 236 747 236 745 l 236 779 q 227 804 236 789 q 182 819 217 819 q 138 805 148 819 q 127 779 127 791 l 127 747 q 137 715 127 730 q 189 701 146 701 m 189 952 q 229 965 220 952 q 239 994 239 978 l 239 1017 q 225 1039 239 1025 q 183 1053 212 1053 q 140 1039 153 1053 q 126 1017 126 1025 l 126 994 q 134 966 126 981 q 189 952 142 952 z "},"⁹":{"ha":355,"x_min":9,"x_max":347,"o":"m 38 578 l 138 788 q 140 789 140 789 q 137 789 140 789 q 43 827 77 789 q 9 930 9 865 l 9 1034 q 54 1147 9 1108 q 180 1185 99 1185 q 305 1145 263 1185 q 347 1028 347 1104 l 347 943 q 315 808 347 876 l 202 578 l 38 578 m 140 939 q 178 921 140 921 q 217 935 217 921 l 217 1034 q 178 1051 217 1051 q 140 1034 140 1051 l 140 939 z "},"€":{"ha":629,"x_min":22,"x_max":585,"o":"m 340 -12 q 158 50 220 -12 q 96 241 96 111 l 96 330 l 22 330 l 22 450 l 96 450 l 96 514 l 22 514 l 22 635 l 96 635 l 96 715 q 158 906 96 840 q 342 972 220 972 q 585 713 581 972 l 403 713 q 389 781 401 760 q 347 802 376 802 q 302 781 313 802 q 290 719 290 760 l 290 635 l 494 635 l 473 514 l 290 514 l 290 450 l 465 450 l 444 330 l 290 330 l 290 240 q 302 177 290 198 q 343 156 313 156 q 386 176 370 156 q 403 244 401 197 l 583 244 q 340 -12 571 -12 z "},"™":{"ha":838,"x_min":26,"x_max":791,"o":"m 393 411 l 393 959 l 521 959 l 594 667 l 598 667 l 665 959 l 791 959 l 791 411 l 674 411 l 674 680 l 671 680 l 629 498 l 556 498 l 513 680 l 510 680 l 510 411 l 393 411 m 118 411 l 118 844 l 26 844 l 26 959 l 340 959 l 340 844 l 244 844 l 244 411 l 118 411 z "},"−":{"ha":582,"x_min":47,"x_max":534,"o":"m 47 393 l 47 567 l 534 567 l 534 393 l 47 393 z "},"∕":{"ha":281,"x_min":-102,"x_max":382,"o":"m -102 0 l 258 974 l 382 974 l 23 0 l -102 0 z "},"◌":{"ha":754,"x_min":69,"x_max":685,"o":"m 648 315 q 623 326 633 315 q 612 351 612 336 q 623 377 612 366 q 648 388 633 388 q 674 377 663 388 q 685 351 685 366 q 674 326 685 336 q 648 315 663 315 m 377 586 q 351 597 362 586 q 340 623 340 608 q 351 648 340 637 q 377 659 362 659 q 403 648 392 659 q 414 623 414 637 q 403 597 414 608 q 377 586 392 586 m 377 43 q 351 54 362 43 q 340 80 340 65 q 351 106 340 95 q 377 117 362 117 q 403 106 392 117 q 414 80 414 95 q 403 54 414 65 q 377 43 392 43 m 106 315 q 80 326 91 315 q 69 351 69 336 q 80 377 69 366 q 106 388 91 388 q 132 377 121 388 q 142 351 142 366 q 132 326 142 336 q 106 315 121 315 m 140 445 q 114 456 125 445 q 103 481 103 467 q 114 507 103 496 q 140 517 125 517 q 165 507 155 517 q 176 481 176 496 q 165 456 176 467 q 140 445 155 445 m 140 186 q 114 197 125 186 q 103 221 103 208 q 114 247 103 236 q 140 258 125 258 q 165 247 155 258 q 176 221 176 236 q 165 197 176 208 q 140 186 155 186 m 614 445 q 589 456 600 445 q 578 481 578 467 q 589 507 578 496 q 614 517 600 517 q 640 507 629 517 q 651 481 651 496 q 640 456 651 467 q 614 445 629 445 m 614 186 q 589 197 600 186 q 578 221 578 208 q 589 247 578 236 q 614 258 600 258 q 640 247 629 258 q 651 221 651 236 q 640 197 651 208 q 614 186 629 186 m 235 548 q 210 559 221 548 q 199 585 199 570 q 210 610 199 600 q 235 620 221 620 q 260 610 250 620 q 271 585 271 600 q 260 559 271 570 q 235 548 250 548 m 518 548 q 494 559 505 548 q 483 585 483 570 q 494 610 483 600 q 518 620 505 620 q 544 610 533 620 q 555 585 555 600 q 544 559 555 570 q 518 548 533 548 m 235 83 q 210 94 221 83 q 199 118 199 104 q 210 144 199 133 q 235 155 221 155 q 260 144 250 155 q 271 118 271 133 q 260 94 271 104 q 235 83 250 83 m 518 83 q 494 94 505 83 q 483 118 483 104 q 494 144 483 133 q 518 155 505 155 q 544 144 533 155 q 555 118 555 133 q 544 94 555 104 q 518 83 533 83 z "},"⸗":{"ha":582,"x_min":31,"x_max":526,"o":"m 80 98 l 31 235 l 477 397 l 526 260 l 80 98 m 80 370 l 31 505 l 477 667 l 526 533 l 80 370 z "},"ﬁ":{"ha":686,"x_min":33,"x_max":636,"o":"m 102 0 l 102 613 l 33 613 l 33 739 l 102 739 l 102 776 q 292 959 102 958 l 373 959 l 373 833 l 354 833 q 298 816 313 833 q 283 757 283 799 l 283 739 l 373 739 l 373 613 l 283 613 l 283 0 l 102 0 m 452 0 l 452 739 l 636 739 l 636 0 l 452 0 m 452 821 l 452 947 l 635 947 l 635 821 l 452 821 z "},"ﬂ":{"ha":734,"x_min":33,"x_max":718,"o":"m 102 0 l 102 613 l 33 613 l 33 739 l 102 739 l 102 776 q 292 959 102 958 l 373 959 l 373 833 l 354 833 q 298 816 313 833 q 283 757 283 799 l 283 739 l 373 739 l 373 613 l 283 613 l 283 0 l 102 0 m 715 0 q 448 240 448 0 l 448 959 l 631 959 l 631 252 q 715 164 631 164 l 718 164 l 718 0 l 715 0 z "}}}
